<?xml version="1.0" encoding="UTF-8"?>
<svg clip-rule="evenodd" fill-rule="evenodd" stroke-linejoin="round" stroke-miterlimit="1.414" version="1.1" viewBox="0 0 240 190" xmlns="http://www.w3.org/2000/svg" xmlns:cc="http://creativecommons.org/ns#" xmlns:dc="http://purl.org/dc/elements/1.1/" xmlns:rdf="http://www.w3.org/1999/02/22-rdf-syntax-ns#">
<metadata>
<rdf:RDF>
<cc:Work rdf:about="">
<dc:format>image/svg+xml</dc:format>
<dc:type rdf:resource="http://purl.org/dc/dcmitype/StillImage"/>
<dc:title/>
</cc:Work>
</rdf:RDF>
</metadata>
<clipPath>
<path d="M0 0h240v190H0z"/>
</clipPath>
<g transform="matrix(.48116 0 0 .48116 4.4405 -20.559)">
<path d="m480.09 82.43-0.01 344.48c0 2.21-1.79 4-4 4h-471.83c-2.21 0-4-1.79-4-4v-344.48c0-2.21 1.79-4 4-4h10.41c2.17-6.86 11.54-11.72 23.49-11.72s21.33 4.86 23.5 11.72h6.31v-11.54c0-9.79 12.7-17.46 28.9-17.46 16.21 0 28.9 7.67 28.9 17.46v11.54h230.74c10.82-7.74 27.52-12.63 46.6-12.63s35.78 4.89 46.59 12.63h26.4c2.21 0 4 1.79 4 4zm-8 313.34v-309.34h-14.11c2.98 4.08 4.62 8.6 4.62 13.37 0 36.12-26.69 65.51-59.5 65.51s-59.5-29.39-59.5-65.51c0-4.77 1.64-9.29 4.61-13.37h-31.5c10.65 5.39 17.28 13.33 17.28 22.32 0 31.19-23.07 56.56-51.42 56.56s-51.41-25.37-51.41-56.56c0-8.99 6.63-16.93 17.28-22.32h-122.68v40.77c0 4-2.03 7.68-5.79 10.67 0.37 0.97 0.59 1.99 0.59 3.06v36.42c0 6.91-8.19 12.13-19.04 12.13s-19.04-5.22-19.04-12.13v-12.68c-4.18 2.25-9.72 3.58-15.97 3.58-0.86 0-1.71-0.04-2.56-0.09v5.55c0 6.92-8.18 12.13-19.03 12.13s-19.04-5.21-19.04-12.13v-31.05c-7.29-2.57-11.69-7.3-11.69-12.8v-43.43h-5.94v309.34zm-0.01 27.14v-19.14h-463.83v19.14zm-17.48-323.11c0-14.1-23.59-26-51.5-26-27.92 0-51.5 11.9-51.5 26 0 14.09 23.58 25.99 51.5 25.99 27.91 0 51.5-11.9 51.5-25.99zm-51.5 57.51c22.05 0 40.9-15.57 48.23-37.37-10.73 8.45-28.17 13.85-48.23 13.85-20.07 0-37.51-5.4-48.23-13.86 7.32 21.81 26.17 37.38 48.23 37.38zm-79.25-41.97c1.39-2.09 2.14-4.3 2.14-6.59 0-11.72-19.88-21.63-43.42-21.63-23.53 0-43.41 9.91-43.41 21.63 0 11.73 19.88 21.63 43.41 21.63 18.95 0 35.54-6.42 41.28-15.04zm-41.28 41.97c17.99 0 33.45-12.29 40.03-29.76-9.35 6.65-23.68 10.83-40.03 10.83-16.33 0-30.66-4.18-40.01-10.82 6.58 17.46 22.03 29.75 40.01 29.75zm-164.81-30.11v-48.14c-5.23 3.27-12.6 5.29-20.9 5.29s-15.67-2.02-20.9-5.3v12.37c8.7 2.17 14.52 7.34 14.52 13.67v25.84c3.08-1.35 6.86-2.13 11.04-2.13 5.14 0 9.67 1.18 13.02 3.15 2.06-1.51 3.22-3.18 3.22-4.75zm0-60.28v-0.03c0-4.46-8.94-9.46-20.9-9.46s-20.9 5-20.9 9.46c0 4.47 8.94 9.46 20.9 9.46 11.94 0 20.86-4.97 20.9-9.43zm-5.2 110.43v-26.42c-3.08 1.35-6.86 2.13-11.04 2.13s-7.96-0.78-11.04-2.13v26.42c0 1.26 4.17 4.13 11.04 4.13s11.04-2.87 11.04-4.13zm0-36.42c0-1.26-4.17-4.13-11.04-4.13s-11.04 2.87-11.04 4.13 4.17 4.13 11.04 4.13 11.04-2.87 11.04-4.13zm-30.08 12.53v-37.15c-4.17 2.25-9.72 3.58-15.97 3.58-6.24 0-11.78-1.33-15.96-3.58v9.36c7.93 1.46 13.4 5.97 13.4 11.62v22.85c0.84 0.07 1.7 0.11 2.56 0.11 9.75 0 15.97-4.02 15.97-6.79zm0-48.36c0-2.77-6.22-6.8-15.97-6.8-4.87 0-8.86 1-11.63 2.36-2.77 1.35-4.33 3.04-4.33 4.43v0.02c0.02 2.77 6.23 6.78 15.96 6.78 9.75 0 15.97-4.02 15.97-6.79zm-14.52-14.77v-3.9h-5.84v4.11c1.42-0.15 2.88-0.24 4.39-0.24 0.49 0 0.98 0.01 1.45 0.03zm-12.01 83.38v-26.42c-3.07 1.35-6.85 2.13-11.03 2.13s-7.96-0.78-11.04-2.13v26.42c0 1.26 4.17 4.13 11.04 4.13s11.03-2.87 11.03-4.13zm0-36.42c0-1.26-4.16-4.12-11.03-4.12s-11.04 2.86-11.04 4.12 4.17 4.13 11.04 4.13 11.03-2.87 11.03-4.13zm-1.83-55.79c0-2.77-6.22-6.79-15.97-6.79-4.87 0-8.86 1.01-11.63 2.36s-4.33 3.05-4.33 4.43v0.02c0.02 2.76 6.23 6.77 15.96 6.77 9.75 0 15.97-4.02 15.97-6.79zm-11.57 23.6c0-4.09 2.42-7.68 6.47-10.31-3.23 0.97-6.91 1.5-10.87 1.5-6.24 0-11.78-1.33-15.96-3.58v37.15c0 1.29 1.48 3 4.28 4.38 1.84-4.87 8.03-8.4 16.08-8.98v-20.16z"/>
<path d="m472.09 86.43v309.34h-463.84v-309.34h5.94v43.43c0 5.5 4.4 10.23 11.69 12.8v31.05c0 6.92 8.19 12.13 19.04 12.13s19.03-5.21 19.03-12.13v-5.55c0.85 0.05 1.7 0.09 2.56 0.09 6.25 0 11.79-1.33 15.97-3.58v12.68c0 6.91 8.19 12.13 19.04 12.13s19.04-5.22 19.04-12.13v-36.42c0-1.07-0.22-2.09-0.59-3.06 3.76-2.99 5.79-6.67 5.79-10.67v-40.77h122.68c-10.65 5.39-17.28 13.33-17.28 22.32 0 31.19 23.06 56.56 51.41 56.56s51.42-25.37 51.42-56.56c0-8.99-6.63-16.93-17.28-22.32h31.5c-2.97 4.08-4.61 8.6-4.61 13.37 0 36.12 26.69 65.51 59.5 65.51s59.5-29.39 59.5-65.51c0-4.77-1.64-9.29-4.62-13.37zm-8.23 257.83v-85.34c0-2.21-1.79-4-4-4h-42c-2.21 0-4 1.79-4 4v116.67c0 6.61 5.38 12 12 12s12-5.39 12-12v-27.33h22c2.21 0 4-1.79 4-4zm0.57-145.85c0-6.07-4.94-11-11-11h-19.18v-5.5c0-2.21-1.79-4-4-4h-146.99c-2.21 0-4 1.79-4 4v5.5h-19.16c-6.07 0-11 4.93-11 11 0 6.06 4.93 11 11 11h19.16v5.5c0 2.21 1.79 4 4 4h146.99c2.21 0 4-1.79 4-4v-5.5h19.18c6.06 0 11-4.94 11-11zm-61.23 145.85v-29c0-22.35-8.71-43.36-24.51-59.16-1.14-1.15-2.86-1.49-4.36-0.87-1.49 0.62-2.47 2.08-2.47 3.69v116.67c0 6.61 5.39 12 12 12 6.62 0 12-5.39 12-12v-27.33h3.34c2.21 0 4-1.79 4-4zm-43.84 0v-85.57c0-13.11-10.66-23.77-23.76-23.77-2.21 0-4 1.79-4 4v136.67c0 6.61 5.38 12 12 12s12-5.39 12-12v-27.36c2.1-0.12 3.76-1.84 3.76-3.97zm-43.08 30.18v-93.67c0-7.25-5.9-13.15-13.15-13.15h-134.66c-7.25 0-13.15 5.9-13.15 13.15v18.69c0 3.09-2.51 5.6-5.6 5.6-1.31 0-2.52-0.5-3.32-1.37-5.71-6.23-13.84-9.29-22.29-8.4-12.21 1.28-22.05 11.06-23.39 23.26-0.21 1.89-0.18 14.49-0.16 15.56 0.12 6.32 2.48 12.43 6.72 17.16 5 5.59 12.17 8.8 19.67 8.8 7.28 0 14.31-3.06 19.29-8.38 0.93-0.99 2.11-1.54 3.33-1.54 3.17 0 5.75 2.58 5.75 5.75v18.54c0 7.25 5.9 13.15 13.15 13.15h134.66c7.25 0 13.15-5.9 13.15-13.15zm-34.63-123.2v-18.14c0-6.66-7.83-11.69-18.23-11.69-10.39 0-18.22 5.03-18.22 11.69v18.14c0 6.67 7.83 11.69 18.22 11.69 10.4 0 18.23-5.02 18.23-11.69zm-43.56 0v-18.14c0-6.66-7.84-11.69-18.23-11.69s-18.23 5.03-18.23 11.69v18.14c0 6.67 7.84 11.69 18.23 11.69s18.23-5.02 18.23-11.69zm0-44v-18.14c0-6.66-7.84-11.69-18.23-11.69s-18.23 5.03-18.23 11.69v18.14c0 6.67 7.84 11.69 18.23 11.69s18.23-5.02 18.23-11.69zm-13.31-88.18c0-13.8-18.5-24.6-42.12-24.6-23.61 0-42.12 10.8-42.12 24.6 0 25.5 18.9 46.25 42.12 46.25 23.23 0 42.12-20.75 42.12-46.25zm-34.79 122.64c0-11.41-5.39-21.91-14.34-28.58 6.09-6.24 9.9-15.11 9.9-24.94 0-10.5-13.72-18.72-31.23-18.72-17.52 0-31.24 8.22-31.24 18.72 0 9.83 3.82 18.7 9.9 24.94-8.95 6.67-14.34 17.19-14.34 28.66 0 11.86 15.67 21.16 35.68 21.16 20 0 35.67-9.3 35.67-21.24zm-84.04 25.64v-42.51c0-6.2-5.04-11.24-11.25-11.24h-23.5c-6.2 0-11.25 5.04-11.25 11.24v42.51c0 6.2 5.05 11.25 11.25 11.25h7.75v44.74c-4.23 1.62-7.25 5.71-7.25 10.5v42.51c0 6.2 5.05 11.25 11.25 11.25s11.25-5.05 11.25-11.25v-42.51c0-4.79-3.02-8.88-7.25-10.5v-44.74h7.75c6.21 0 11.25-5.05 11.25-11.25zm-67.43 11.05c10.78-1.9 19-11.33 19-22.65 0-10.52-8.41-43.65-23-43.65s-23 33.13-23 43.65c0 11.32 8.22 20.75 19 22.65v44.94c-4.23 1.62-7.25 5.71-7.25 10.5v42.51c0 6.2 5.05 11.25 11.25 11.25s11.25-5.05 11.25-11.25v-42.51c0-4.79-3.02-8.88-7.25-10.5z" fill="#fde2bf"/>
<rect x="8.25" y="403.77" width="463.83" height="19.14" fill="#fcd29b"/>
<path d="m463.86 258.92v85.34c0 2.21-1.79 4-4 4h-22v27.33c0 6.61-5.38 12-12 12s-12-5.39-12-12v-116.67c0-2.21 1.79-4 4-4h42c2.21 0 4 1.79 4 4zm-8 81.34v-77.34h-34v77.34zm-26 35.33v-27.33h-8v27.33c0 2.2 1.79 4 4 4s4-1.8 4-4z"/>
<path d="m453.43 187.41c6.06 0 11 4.93 11 11 0 6.06-4.94 11-11 11h-19.18v5.5c0 2.21-1.79 4-4 4h-146.99c-2.21 0-4-1.79-4-4v-5.5h-19.16c-6.07 0-11-4.94-11-11 0-6.07 4.93-11 11-11h19.16v-5.5c0-2.21 1.79-4 4-4h146.99c2.21 0 4 1.79 4 4v5.5zm3 11c0-1.66-1.35-3-3-3h-19.18v6h19.18c1.65 0 3-1.35 3-3zm-30.18 12.5v-25h-138.99v25zm-146.99-9.5v-6h-19.16c-1.66 0-3 1.34-3 3 0 1.65 1.34 3 3 3z"/>
<path d="m455.86 262.92v77.34h-34v-77.34zm-22.66 22v-13.33c0-2.21-1.79-4-4-4s-4 1.79-4 4v13.33c0 2.21 1.79 4 4 4s4-1.79 4-4z" fill="#e6e6e6"/>
<path d="m453.43 195.41c1.65 0 3 1.34 3 3 0 1.65-1.35 3-3 3h-19.18v-6z" fill="#faa639"/>
<path d="m403.1 73.8c27.91 0 51.5 11.9 51.5 26 0 14.09-23.59 25.99-51.5 25.99-27.92 0-51.5-11.9-51.5-25.99 0-14.1 23.58-26 51.5-26z" fill="#c51162"/>
<path d="m451.33 119.94c-7.33 21.8-26.18 37.37-48.23 37.37-22.06 0-40.91-15.57-48.23-37.38 10.72 8.46 28.16 13.86 48.23 13.86 20.06 0 37.5-5.4 48.23-13.85z" fill="#f13c63"/>
<path d="m433.2 271.59v13.33c0 2.21-1.79 4-4 4s-4-1.79-4-4v-13.33c0-2.21 1.79-4 4-4s4 1.79 4 4z"/>
<path d="m429.86 348.26v27.33c0 2.2-1.79 4-4 4s-4-1.8-4-4v-27.33z" fill="#c51162"/>
<path d="m426.25 185.91v25h-138.99v-25zm-3.82 8c0-2.21-1.79-4-4-4h-123.34c-2.2 0-4 1.79-4 4s1.8 4 4 4h123.34c2.21 0 4-1.79 4-4z" fill="#e58406"/>
<path d="m418.43 189.91c2.21 0 4 1.79 4 4s-1.79 4-4 4h-123.34c-2.2 0-4-1.79-4-4s1.8-4 4-4z"/>
<path d="m403.2 315.26v29c0 2.21-1.79 4-4 4h-3.34v27.33c0 6.61-5.38 12-12 12-6.61 0-12-5.39-12-12v-116.67c0-1.61 0.98-3.07 2.47-3.69 1.5-0.62 3.22-0.28 4.36 0.87 15.8 15.8 24.51 36.81 24.51 59.16zm-8 25v-25c0-16.72-5.39-32.61-15.34-45.69v70.69zm-7.34 35.33v-27.33h-8v27.33c0 2.2 1.8 4 4 4 2.21 0 4-1.8 4-4z"/>
<path d="m395.2 315.26v25h-15.34v-70.69c9.95 13.08 15.34 28.97 15.34 45.69z" fill="#b3b3b3"/>
<path d="m387.86 348.26v27.33c0 2.2-1.79 4-4 4-2.2 0-4-1.8-4-4v-27.33z" fill="#f13c63"/>
<path d="m359.36 258.69v85.57c0 2.13-1.66 3.85-3.76 3.97v27.36c0 6.61-5.38 12-12 12s-12-5.39-12-12v-136.67c0-2.21 1.79-4 4-4 13.1 0 23.76 10.66 23.76 23.77zm-8 81.57v-81.57c0-7.31-5-13.48-11.76-15.25v96.82zm-3.76 35.33v-27.33h-8v27.33c0 2.2 1.79 4 4 4 2.2 0 4-1.8 4-4z"/>
<path d="m351.36 258.69v81.57h-11.76v-96.82c6.76 1.77 11.76 7.94 11.76 15.25z" fill="#e6e6e6"/>
<path d="m347.6 348.26v27.33c0 2.2-1.8 4-4 4-2.21 0-4-1.8-4-4v-27.33z" fill="#c51162"/>
<path d="m325.99 108.75c0 2.29-0.75 4.5-2.14 6.59-5.74 8.62-22.33 15.04-41.28 15.04-23.53 0-43.41-9.9-43.41-21.63 0-11.72 19.88-21.63 43.41-21.63 23.54 0 43.42 9.91 43.42 21.63z" fill="#c51162"/>
<path d="m316.28 280.77v93.67c0 7.25-5.9 13.15-13.15 13.15h-134.66c-7.25 0-13.15-5.9-13.15-13.15v-18.54c0-3.17-2.58-5.75-5.75-5.75-1.22 0-2.4 0.55-3.33 1.54-4.98 5.32-12.01 8.38-19.29 8.38-7.5 0-14.67-3.21-19.67-8.8-4.24-4.73-6.6-10.84-6.72-17.16-0.02-1.07-0.05-13.67 0.16-15.56 1.34-12.2 11.18-21.98 23.39-23.26 8.45-0.89 16.58 2.17 22.29 8.4 0.8 0.87 2.01 1.37 3.32 1.37 3.09 0 5.6-2.51 5.6-5.6v-18.69c0-7.25 5.9-13.15 13.15-13.15h134.66c7.25 0 13.15 5.9 13.15 13.15zm-8 93.67v-0.03c-1.58 0.67-3.32 1.05-5.15 1.05h-134.66c-1.83 0-3.57-0.38-5.15-1.05v0.03c0 2.84 2.31 5.15 5.15 5.15h134.66c2.84 0 5.15-2.31 5.15-5.15zm0-12.13v-81.54c0-2.84-2.31-5.15-5.15-5.15h-134.66c-2.84 0-5.15 2.31-5.15 5.15v18.69c0 7.5-6.1 13.6-13.6 13.6-3.54 0-6.9-1.44-9.21-3.96-3.99-4.34-9.67-6.47-15.57-5.85-8.49 0.89-15.34 7.69-16.27 16.18-0.59 5.32 1.03 10.43 4.57 14.38 3.49 3.89 8.48 6.13 13.71 6.13 5.15 0 9.93-2.07 13.44-5.84 2.43-2.59 5.77-4.08 9.18-4.08 7.58 0 13.75 6.17 13.75 13.75v18.54c0 2.84 2.31 5.15 5.15 5.15h134.66c2.84 0 5.15-2.31 5.15-5.15zm-152.98-18.89c-0.18-3.01-2.68-5.4-5.73-5.4-1.22 0-2.4 0.55-3.33 1.54-4.98 5.33-12.01 8.38-19.29 8.38-5.91 0-11.6-2-16.21-5.57 0.69 1.26 1.51 2.46 2.5 3.57 3.49 3.89 8.48 6.13 13.71 6.13 5.15 0 9.93-2.08 13.44-5.84 2.43-2.6 5.77-4.08 9.18-4.08 2.04 0 3.98 0.46 5.73 1.27z"/>
<path d="m308.28 374.41v0.03c0 2.84-2.31 5.15-5.15 5.15h-134.66c-2.84 0-5.15-2.31-5.15-5.15v-0.03c1.58 0.67 3.32 1.05 5.15 1.05h134.66c1.83 0 3.57-0.38 5.15-1.05z" fill="#e58406"/>
<path d="m308.28 280.77v81.54c0 2.84-2.31 5.15-5.15 5.15h-134.66c-2.84 0-5.15-2.31-5.15-5.15v-18.54c0-7.58-6.17-13.75-13.75-13.75-3.41 0-6.75 1.49-9.18 4.08-3.51 3.77-8.29 5.84-13.44 5.84-5.23 0-10.22-2.24-13.71-6.13-3.54-3.95-5.16-9.06-4.57-14.38 0.93-8.49 7.78-15.29 16.27-16.18 5.9-0.62 11.58 1.51 15.57 5.85 2.31 2.52 5.67 3.96 9.21 3.96 7.5 0 13.6-6.1 13.6-13.6v-18.69c0-2.84 2.31-5.15 5.15-5.15h134.66c2.84 0 5.15 2.31 5.15 5.15zm-22.17 17.97c1.49-1.64 1.37-4.17-0.26-5.66-1.63-1.48-4.16-1.37-5.65 0.27l-22.25 24.41-12.63-11.51 6.85-7.51c1.49-1.64 1.37-4.17-0.26-5.66-1.64-1.48-4.16-1.37-5.65 0.27l-6.85 7.51-6.05-5.53c-1.64-1.48-4.17-1.37-5.66 0.27-1.48 1.63-1.37 4.16 0.26 5.65l6.06 5.52-6.66 7.31-20.56-18.75c-1.63-1.48-4.16-1.37-5.65 0.27-1.49 1.63-1.37 4.16 0.26 5.65l20.56 18.74-9.59 10.51-38.58-35.17c-1.63-1.48-4.16-1.37-5.65 0.27-1.49 1.63-1.37 4.16 0.26 5.65l38.58 35.17-7.23 7.92c-1.49 1.64-1.37 4.17 0.26 5.65 0.77 0.7 1.73 1.05 2.69 1.05 1.09 0 2.17-0.44 2.96-1.31l7.23-7.92 6.51 5.93c0.77 0.7 1.73 1.05 2.7 1.05 1.08 0 2.16-0.44 2.95-1.31 1.49-1.63 1.37-4.16-0.26-5.65l-6.51-5.94 9.59-10.51 12.62 11.51-6.8 7.45c-1.48 1.64-1.37 4.17 0.26 5.65 0.77 0.7 1.74 1.05 2.7 1.05 1.09 0 2.17-0.44 2.96-1.31l6.79-7.45 6 5.46c0.77 0.7 1.73 1.05 2.69 1.05 1.09 0 2.17-0.44 2.96-1.31 1.49-1.63 1.37-4.16-0.26-5.65l-6-5.46 6.67-7.31 20.49 18.68c0.77 0.7 1.73 1.05 2.7 1.05 1.08 0 2.16-0.44 2.95-1.31 1.49-1.63 1.37-4.16-0.26-5.65l-20.49-18.68zm-162.63 22.8c0-2.47-2.01-4.48-4.48-4.48s-4.48 2.01-4.48 4.48 2.01 4.48 4.48 4.48 4.48-2.01 4.48-4.48z" fill="#faa639"/>
<path d="m322.6 127.55c-6.58 17.47-22.04 29.76-40.03 29.76-17.98 0-33.43-12.29-40.01-29.75 9.35 6.64 23.68 10.82 40.01 10.82 16.35 0 30.68-4.18 40.03-10.83z" fill="#f13c63"/>
<path d="m285.85 293.08c1.63 1.49 1.75 4.02 0.26 5.66l-22.25 24.41 20.49 18.68c1.63 1.49 1.75 4.02 0.26 5.65-0.79 0.87-1.87 1.31-2.95 1.31-0.97 0-1.93-0.35-2.7-1.05l-20.49-18.68-6.67 7.31 6 5.46c1.63 1.49 1.75 4.02 0.26 5.65-0.79 0.87-1.87 1.31-2.96 1.31-0.96 0-1.92-0.35-2.69-1.05l-6-5.46-6.79 7.45c-0.79 0.87-1.87 1.31-2.96 1.31-0.96 0-1.93-0.35-2.7-1.05-1.63-1.48-1.74-4.01-0.26-5.65l6.8-7.45-12.62-11.51-9.59 10.51 6.51 5.94c1.63 1.49 1.75 4.02 0.26 5.65-0.79 0.87-1.87 1.31-2.95 1.31-0.97 0-1.93-0.35-2.7-1.05l-6.51-5.93-7.23 7.92c-0.79 0.87-1.87 1.31-2.96 1.31-0.96 0-1.92-0.35-2.69-1.05-1.63-1.48-1.75-4.01-0.26-5.65l7.23-7.92-38.58-35.17c-1.63-1.49-1.75-4.02-0.26-5.65 1.49-1.64 4.02-1.75 5.65-0.27l38.58 35.17 9.59-10.51-20.56-18.74c-1.63-1.49-1.75-4.02-0.26-5.65 1.49-1.64 4.02-1.75 5.65-0.27l20.56 18.75 6.66-7.31-6.06-5.52c-1.63-1.49-1.74-4.02-0.26-5.65 1.49-1.64 4.02-1.75 5.66-0.27l6.05 5.53 6.85-7.51c1.49-1.64 4.01-1.75 5.65-0.27 1.63 1.49 1.75 4.02 0.26 5.66l-6.85 7.51 12.63 11.51 22.25-24.41c1.49-1.64 4.02-1.75 5.65-0.27zm-39.96 37.9 6.67-7.31-12.63-11.51-6.66 7.31z"/>
<path d="m281.65 233.1v18.14c0 6.67-7.83 11.69-18.23 11.69-10.39 0-18.22-5.02-18.22-11.69v-18.14c0-6.66 7.83-11.69 18.22-11.69 10.4 0 18.23 5.03 18.23 11.69zm-8 18.14v-8.35c-2.88 1.21-6.37 1.9-10.23 1.9-3.85 0-7.34-0.69-10.22-1.9v8.35c0 0.92 3.62 3.69 10.22 3.69 6.61 0 10.23-2.77 10.23-3.69zm0-18.14c0-0.92-3.62-3.69-10.23-3.69-6.6 0-10.22 2.77-10.22 3.69s3.62 3.69 10.22 3.69c6.61 0 10.23-2.77 10.23-3.69z"/>
<path d="m279.26 195.41v6h-19.16c-1.66 0-3-1.35-3-3 0-1.66 1.34-3 3-3z" fill="#faa639"/>
<path d="m273.65 242.89v8.35c0 0.92-3.62 3.69-10.23 3.69-6.6 0-10.22-2.77-10.22-3.69v-8.35c2.88 1.21 6.37 1.9 10.22 1.9 3.86 0 7.35-0.69 10.23-1.9z" fill="#c51162"/>
<path d="m263.42 229.41c6.61 0 10.23 2.77 10.23 3.69s-3.62 3.69-10.23 3.69c-6.6 0-10.22-2.77-10.22-3.69s3.62-3.69 10.22-3.69z" fill="#f13c63"/>
<polygon points="233.27 319.47 239.93 312.16 252.56 323.67 245.89 330.98" fill="#faa639"/>
<path d="m238.09 233.1v18.14c0 6.67-7.84 11.69-18.23 11.69s-18.23-5.02-18.23-11.69v-18.14c0-6.66 7.84-11.69 18.23-11.69s18.23 5.03 18.23 11.69zm-8 18.14v-8.35c-2.88 1.21-6.38 1.9-10.23 1.9s-7.34-0.69-10.23-1.9v8.35c0 0.92 3.63 3.69 10.23 3.69s10.23-2.77 10.23-3.69zm0-18.14c0-0.92-3.63-3.69-10.23-3.69s-10.23 2.77-10.23 3.69 3.63 3.69 10.23 3.69 10.23-2.77 10.23-3.69z"/>
<path d="m238.09 189.1v18.14c0 6.67-7.84 11.69-18.23 11.69s-18.23-5.02-18.23-11.69v-18.14c0-6.66 7.84-11.69 18.23-11.69s18.23 5.03 18.23 11.69zm-8 18.14v-8.35c-2.88 1.21-6.38 1.9-10.23 1.9s-7.34-0.69-10.23-1.9v8.35c0 0.92 3.63 3.69 10.23 3.69s10.23-2.77 10.23-3.69zm0-18.14c0-0.92-3.63-3.69-10.23-3.69s-10.23 2.77-10.23 3.69 3.63 3.69 10.23 3.69 10.23-2.77 10.23-3.69z"/>
<path d="m230.09 242.89v8.35c0 0.92-3.63 3.69-10.23 3.69s-10.23-2.77-10.23-3.69v-8.35c2.89 1.21 6.38 1.9 10.23 1.9s7.35-0.69 10.23-1.9z" fill="#e58406"/>
<path d="m230.09 198.89v8.35c0 0.92-3.63 3.69-10.23 3.69s-10.23-2.77-10.23-3.69v-8.35c2.89 1.21 6.38 1.9 10.23 1.9s7.35-0.69 10.23-1.9z" fill="#c51162"/>
<path d="m219.86 185.41c6.6 0 10.23 2.77 10.23 3.69s-3.63 3.69-10.23 3.69-10.23-2.77-10.23-3.69 3.63-3.69 10.23-3.69z" fill="#f13c63"/>
<path d="m219.86 229.41c6.6 0 10.23 2.77 10.23 3.69s-3.63 3.69-10.23 3.69-10.23-2.77-10.23-3.69 3.63-3.69 10.23-3.69z" fill="#faa639"/>
<path d="m182.66 94.46c23.62 0 42.12 10.8 42.12 24.6 0 25.5-18.89 46.25-42.12 46.25-23.22 0-42.12-20.75-42.12-46.25 0-13.8 18.51-24.6 42.12-24.6zm34.12 24.6c0-9.79-17.98-16.6-34.12-16.6s-34.12 6.81-34.12 16.6 17.98 16.6 34.12 16.6 34.12-6.81 34.12-16.6zm-34.12 38.25c13.33 0 24.89-8.61 30.5-21.13-7.61 4.63-18.38 7.48-30.5 7.48s-22.88-2.85-30.5-7.48c5.61 12.52 17.18 21.13 30.5 21.13z"/>
<path d="m182.66 102.46c16.14 0 34.12 6.81 34.12 16.6s-17.98 16.6-34.12 16.6-34.12-6.81-34.12-16.6 17.98-16.6 34.12-16.6z" fill="#faa639"/>
<path d="m213.16 136.18c-5.61 12.52-17.17 21.13-30.5 21.13-13.32 0-24.89-8.61-30.5-21.13 7.62 4.63 18.38 7.48 30.5 7.48s22.89-2.85 30.5-7.48z" fill="#e58406"/>
<path d="m175.65 213.12c8.95 6.67 14.34 17.17 14.34 28.58 0 11.94-15.67 21.24-35.67 21.24-20.01 0-35.68-9.3-35.68-21.16 0-11.47 5.39-21.99 14.34-28.66-6.08-6.24-9.9-15.11-9.9-24.94 0-10.5 13.72-18.72 31.24-18.72 17.51 0 31.23 8.22 31.23 18.72 0 9.83-3.81 18.7-9.9 24.94zm-4.2 38.84c6.59-2.6 10.54-6.51 10.54-10.18 0-9.66-4.9-18.43-12.91-23.48-4.4 2.6-9.43 4.07-14.76 4.07-5.34 0-10.37-1.47-14.77-4.07-8.01 5.05-12.91 13.82-12.91 23.4 0 3.71 3.95 7.65 10.53 10.25-1.11-2.4-1.73-5.07-1.73-7.89 0-10.41 8.47-18.87 18.87-18.87 10.41 0 18.88 8.46 18.88 18.87 0 2.82-0.62 5.5-1.74 7.9zm6.1-63.78c0-5.06-9.93-10.72-23.23-10.72s-23.24 5.66-23.24 10.72 9.94 10.72 23.24 10.72 23.23-5.66 23.23-10.72zm-23.23 26.19c7.89 0 14.86-4.47 19.06-11.26-5.24 2.38-11.82 3.79-19.06 3.79s-13.83-1.4-19.07-3.79c4.2 6.79 11.18 11.26 19.07 11.26zm3.99 39.79c4.03-1.59 6.88-5.51 6.88-10.1 0-5.99-4.88-10.87-10.88-10.87-5.99 0-10.87 4.88-10.87 10.87 0 4.59 2.85 8.51 6.87 10.1v-12.7c0-2.21 1.8-4 4-4 2.21 0 4 1.79 4 4z"/>
<path d="m181.99 241.78c0 3.67-3.95 7.58-10.54 10.18 1.12-2.4 1.74-5.08 1.74-7.9 0-10.41-8.47-18.87-18.88-18.87l0.01-2.82c5.33 0 10.36-1.47 14.76-4.07 8.01 5.05 12.91 13.82 12.91 23.48z" fill="#f13c63"/>
<path d="m154.32 177.46c13.3 0 23.23 5.66 23.23 10.72s-9.93 10.72-23.23 10.72-23.24-5.66-23.24-10.72 9.94-10.72 23.24-10.72z" fill="#808080"/>
<path d="m173.38 203.11c-4.2 6.79-11.17 11.26-19.06 11.26s-14.87-4.47-19.07-11.26c5.24 2.39 11.83 3.79 19.07 3.79s13.82-1.41 19.06-3.79z" fill="#b3b3b3"/>
<path d="m165.19 244.06c0 4.59-2.85 8.51-6.88 10.1v-12.7c0-2.21-1.79-4-4-4-2.2 0-4 1.79-4 4v12.7c-4.02-1.59-6.87-5.51-6.87-10.1 0-5.99 4.88-10.87 10.87-10.87 6 0 10.88 4.88 10.88 10.87z" fill="#e6e6e6"/>
<path d="m154.32 222.37-0.01 2.82c-10.4 0-18.87 8.46-18.87 18.87 0 2.82 0.62 5.49 1.73 7.89-6.58-2.6-10.53-6.54-10.53-10.25 0-9.58 4.9-18.35 12.91-23.4 4.4 2.6 9.43 4.07 14.77 4.07z" fill="#f13c63"/>
<path d="m149.57 338.02c3.05 0 5.55 2.39 5.73 5.4-1.75-0.81-3.69-1.27-5.73-1.27-3.41 0-6.75 1.48-9.18 4.08-3.51 3.76-8.29 5.84-13.44 5.84-5.23 0-10.22-2.24-13.71-6.13-0.99-1.11-1.81-2.31-2.5-3.57 4.61 3.57 10.3 5.57 16.21 5.57 7.28 0 14.31-3.05 19.29-8.38 0.93-0.99 2.11-1.54 3.33-1.54z" fill="#e58406"/>
<path d="m119 317.06c2.47 0 4.48 2.01 4.48 4.48s-2.01 4.48-4.48 4.48-4.48-2.01-4.48-4.48 2.01-4.48 4.48-4.48z"/>
<path d="m117.76 79.06v48.14c0 1.57-1.16 3.24-3.22 4.75-3.35-1.97-7.88-3.15-13.02-3.15-4.18 0-7.96 0.78-11.04 2.13v-25.84c0-6.33-5.82-11.5-14.52-13.67v-12.37c5.23 3.28 12.6 5.3 20.9 5.3s15.67-2.02 20.9-5.29z" fill="#c51162"/>
<path d="m117.76 66.89v0.03c-0.04 4.46-8.96 9.43-20.9 9.43-11.96 0-20.9-4.99-20.9-9.46 0-4.46 8.94-9.46 20.9-9.46s20.9 5 20.9 9.46z" fill="#f13c63"/>
<path d="m112.56 150.93v26.42c0 1.26-4.17 4.13-11.04 4.13s-11.04-2.87-11.04-4.13v-26.42c3.08 1.35 6.86 2.13 11.04 2.13s7.96-0.78 11.04-2.13z" fill="#c51162"/>
<path d="m101.52 136.8c6.87 0 11.04 2.87 11.04 4.13s-4.17 4.13-11.04 4.13-11.04-2.87-11.04-4.13 4.17-4.13 11.04-4.13z" fill="#f13c63"/>
<path d="m105.95 224.83v42.51c0 6.2-5.04 11.25-11.25 11.25h-7.75v44.74c4.23 1.62 7.25 5.71 7.25 10.5v42.51c0 6.2-5.05 11.25-11.25 11.25s-11.25-5.05-11.25-11.25v-42.51c0-4.79 3.02-8.88 7.25-10.5v-44.74h-7.75c-6.2 0-11.25-5.05-11.25-11.25v-42.51c0-6.2 5.05-11.24 11.25-11.24h23.5c6.21 0 11.25 5.04 11.25 11.24zm-8 42.51v-42.51c0-1.79-1.46-3.24-3.25-3.24h-23.5c-1.79 0-3.25 1.45-3.25 3.24v42.51c0 1.79 1.46 3.25 3.25 3.25h23.5c1.79 0 3.25-1.46 3.25-3.25zm-11.75 109v-42.51c0-1.79-1.46-3.24-3.25-3.24s-3.25 1.45-3.25 3.24v42.51c0 1.79 1.46 3.25 3.25 3.25s3.25-1.46 3.25-3.25z"/>
<path d="m97.95 224.83v42.51c0 1.79-1.46 3.25-3.25 3.25h-23.5c-1.79 0-3.25-1.46-3.25-3.25v-42.51c0-1.79 1.46-3.24 3.25-3.24h23.5c1.79 0 3.25 1.45 3.25 3.24zm-4.75 37.51v-32.5c0-2.21-1.79-4-4-4s-4 1.79-4 4v32.5c0 2.21 1.79 4 4 4s4-1.79 4-4zm-12.5 0v-32.5c0-2.21-1.79-4-4-4s-4 1.79-4 4v32.5c0 2.21 1.79 4 4 4s4-1.79 4-4z" fill="#b3b3b3"/>
<path d="m93.2 229.84v32.5c0 2.21-1.79 4-4 4s-4-1.79-4-4v-32.5c0-2.21 1.79-4 4-4s4 1.79 4 4z"/>
<path d="m86.2 333.83v42.51c0 1.79-1.46 3.25-3.25 3.25s-3.25-1.46-3.25-3.25v-42.51c0-1.79 1.46-3.24 3.25-3.24s3.25 1.45 3.25 3.24z" fill="#c51162"/>
<path d="m82.48 116.31v37.15c0 2.77-6.22 6.79-15.97 6.79-0.86 0-1.72-0.04-2.56-0.11v-22.85c0-5.65-5.47-10.16-13.4-11.62v-9.36c4.18 2.25 9.72 3.58 15.96 3.58 6.25 0 11.8-1.33 15.97-3.58z" fill="#e58406"/>
<path d="m80.7 229.84v32.5c0 2.21-1.79 4-4 4s-4-1.79-4-4v-32.5c0-2.21 1.79-4 4-4s4 1.79 4 4z"/>
<path d="m66.51 98.3c9.75 0 15.97 4.03 15.97 6.8s-6.22 6.79-15.97 6.79c-9.73 0-15.94-4.01-15.96-6.78v-0.02c0-1.39 1.56-3.08 4.33-4.43 2.77-1.36 6.76-2.36 11.63-2.36z" fill="#faa639"/>
<path d="m55.95 147.29v26.42c0 1.26-4.16 4.13-11.03 4.13s-11.04-2.87-11.04-4.13v-26.42c3.08 1.35 6.86 2.13 11.04 2.13s7.96-0.78 11.03-2.13z" fill="#c51162"/>
<path d="m44.92 133.17c6.87 0 11.03 2.86 11.03 4.12s-4.16 4.13-11.03 4.13-11.04-2.87-11.04-4.13 4.17-4.12 11.04-4.12z" fill="#f13c63"/>
<path d="m57.52 255.74c0 11.32-8.22 20.75-19 22.65v44.94c4.23 1.62 7.25 5.71 7.25 10.5v42.51c0 6.2-5.05 11.25-11.25 11.25s-11.25-5.05-11.25-11.25v-42.51c0-4.79 3.02-8.88 7.25-10.5v-44.94c-10.78-1.9-19-11.33-19-22.65 0-10.52 8.41-43.65 23-43.65s23 33.13 23 43.65zm-8 0c0-4.4-1.85-13.7-5.28-22.28-4.22-10.56-8.1-13.37-9.72-13.37s-5.5 2.81-9.72 13.37c-3.43 8.58-5.28 17.88-5.28 22.28 0 8.27 6.73 15 15 15s15-6.73 15-15zm-11.75 120.6v-42.51c0-1.79-1.46-3.24-3.25-3.24s-3.25 1.45-3.25 3.24v42.51c0 1.79 1.46 3.25 3.25 3.25s3.25-1.46 3.25-3.25z"/>
<path d="m38.15 74.71c9.75 0 15.97 4.02 15.97 6.79s-6.22 6.79-15.97 6.79c-9.73 0-15.94-4.01-15.96-6.77v-0.02c0-1.38 1.56-3.08 4.33-4.43s6.76-2.36 11.63-2.36z" fill="#f13c63"/>
<path d="m44.24 233.46c3.43 8.58 5.28 17.88 5.28 22.28 0 8.27-6.73 15-15 15s-15-6.73-15-15c0-4.4 1.85-13.7 5.28-22.28 4.22-10.56 8.1-13.37 9.72-13.37s5.5 2.81 9.72 13.37z" fill="#e6e6e6"/>
<path d="m49.02 94.79c-4.05 2.63-6.47 6.22-6.47 10.31v20.16c-8.05 0.58-14.24 4.11-16.08 8.98-2.8-1.38-4.28-3.09-4.28-4.38v-37.15c4.18 2.25 9.72 3.58 15.96 3.58 3.96 0 7.64-0.53 10.87-1.5z" fill="#c51162"/>
<path d="m37.77 333.83v42.51c0 1.79-1.46 3.25-3.25 3.25s-3.25-1.46-3.25-3.25v-42.51c0-1.79 1.46-3.24 3.25-3.24s3.25 1.45 3.25 3.24z" fill="#f13c63"/>
</g>
</svg>
