<?xml version="1.0" encoding="UTF-8" standalone="no"?><!DOCTYPE svg PUBLIC "-//W3C//DTD SVG 1.1//EN" "http://www.w3.org/Graphics/SVG/1.1/DTD/svg11.dtd"><svg width="100%" height="100%" viewBox="0 0 240 190" version="1.1" xmlns="http://www.w3.org/2000/svg" xmlns:xlink="http://www.w3.org/1999/xlink" xml:space="preserve" xmlns:serif="http://www.serif.com/" style="fill-rule:evenodd;clip-rule:evenodd;stroke-linejoin:round;stroke-miterlimit:2;"><g id="XMLID_8_"><path d="M222.202,38.936l0,146.115c0,0.937 -0.759,1.696 -1.697,1.696l-200.135,0c-0.938,0 -1.697,-0.759 -1.697,-1.696l0,-146.115c0,-0.937 0.759,-1.696 1.697,-1.696l7.809,0c1.31,-17.879 16.262,-32.024 34.467,-32.024c10.32,0 19.592,4.551 25.929,11.745l1.976,-1.977c-0.483,-0.547 -0.98,-1.082 -1.501,-1.603c-2.087,-2.087 -4.407,-3.92 -6.893,-5.447c-0.801,-0.487 -1.052,-1.535 -0.56,-2.332c0.488,-0.798 1.536,-1.048 2.333,-0.56c2.715,1.667 5.247,3.664 7.521,5.938c7.295,7.295 11.227,16.691 11.821,26.26l36.719,0c-0.28,-2.588 -0.462,-4.28 -0.462,-4.34c0,-2.146 1.603,-4.029 4.271,-5.395l-2.515,-10.888c-0.212,-0.912 0.356,-1.824 1.273,-2.036c0.911,-0.208 1.823,0.361 2.031,1.272l2.409,10.414c0.883,-0.255 1.829,-0.467 2.825,-0.632l-1.501,-15.173c-0.093,-0.929 0.585,-1.76 1.518,-1.853c0.933,-0.093 1.765,0.589 1.858,1.523l1.497,15.142c0.59,-0.03 1.184,-0.047 1.795,-0.047c0.509,0 1.009,0.013 1.501,0.034l0.59,-9.696c0.059,-0.933 0.861,-1.641 1.798,-1.591c0.933,0.06 1.646,0.861 1.591,1.799l-0.598,9.815c1.226,0.191 2.379,0.454 3.435,0.776l2.274,-14.909c0.14,-0.925 1.005,-1.561 1.934,-1.421c0.925,0.14 1.561,1.005 1.421,1.934l-2.397,15.724c2.452,1.349 3.907,3.16 3.907,5.208c0,0.06 -0.178,1.752 -0.458,4.34l50.517,0c0.938,0 1.697,0.759 1.697,1.696Zm-3.393,144.418l0,-8.118l-196.742,0l0,8.118l196.742,0Zm0,-11.512l0,-131.209l-49.186,0c-1.069,9.874 -2.799,25.691 -2.799,25.691c-0.094,2.995 -4.157,5.994 -11.834,5.994c-7.678,0 -11.741,-2.999 -11.834,-5.994c0,0 -1.731,-15.817 -2.8,-25.691l-37.016,0c-0.208,10.146 -4.166,20.228 -11.889,27.956c-7.512,7.512 -17.251,11.465 -27.109,11.872l0,1.803c8.458,0.39 14.642,3.707 14.642,8.013c0,4.593 -7.024,8.054 -16.338,8.054c-9.315,0 -16.339,-3.461 -16.339,-8.054c0,-4.306 6.184,-7.623 14.642,-8.013l0,-1.803c-9.331,-0.386 -18.548,-3.957 -25.878,-10.705l-1.976,1.981c-0.331,0.33 -0.768,0.496 -1.201,0.496c-0.432,0 -0.869,-0.166 -1.2,-0.496c-0.662,-0.662 -0.662,-1.74 0,-2.401l1.976,-1.977c-2.01,-2.184 -3.779,-4.572 -5.263,-7.121c-0.471,-0.811 -0.195,-1.85 0.615,-2.321c0.81,-0.47 1.849,-0.195 2.32,0.615c1.332,2.299 2.922,4.45 4.729,6.426l1.973,-1.972c-5.391,-5.942 -8.738,-13.764 -8.946,-22.353l-6.031,0l0,131.209l196.742,0Zm-51.756,-138.942c0,-0.492 -0.369,-1.043 -1.069,-1.586l-0.539,3.546c1.044,-0.657 1.608,-1.357 1.608,-1.96Zm-3.61,33.136l3.033,-27.897c-2.787,1.514 -6.833,2.43 -11.486,2.43c-4.653,0 -8.7,-0.916 -11.487,-2.43l3.033,27.897c0.004,0.059 0.009,0.119 0.009,0.182c0,0.785 2.96,2.706 8.445,2.706c5.484,0 8.445,-1.921 8.445,-2.706c0,-0.063 0,-0.123 0.008,-0.182Zm-1.658,-29.683l1.009,-6.608c-0.916,-0.301 -1.964,-0.56 -3.13,-0.755l-0.479,7.893c0.941,-0.14 1.811,-0.318 2.6,-0.53Zm-6.019,0.814l0.522,-8.521c-0.425,-0.017 -0.857,-0.025 -1.298,-0.025c-0.501,0 -0.984,0.012 -1.459,0.034l0.844,8.517c0.203,0.004 0.407,0.004 0.615,0.004c0.263,0 0.521,0 0.776,-0.009Zm-4.827,-0.262l-0.781,-7.89c-0.869,0.153 -1.671,0.339 -2.396,0.552l1.633,7.07c0.488,0.102 1.005,0.191 1.544,0.268Zm-5.302,-1.455l-1.052,-4.543c-1.077,0.666 -1.663,1.378 -1.663,1.993c0,0.789 0.972,1.744 2.715,2.55Zm-45.682,5.183l-2.761,0c-0.454,18.671 -15.771,33.721 -34.548,33.721c-8.92,0 -17.064,-3.398 -23.202,-8.967l-1.972,1.972c7.109,6.494 16.139,9.747 25.174,9.752c9.565,0 19.125,-3.64 26.404,-10.923c7.066,-7.062 10.697,-16.279 10.905,-25.555Zm-2.838,-3.393l2.762,0c-0.471,-6.935 -2.859,-13.764 -7.173,-19.614l-2.002,2.002c3.627,5.035 5.934,11.071 6.413,17.612Zm-3.295,2.545c0,-6.579 -2.053,-12.687 -5.548,-17.722l-1.184,1.184c-0.335,0.33 -0.768,0.496 -1.2,0.496c-0.437,0 -0.87,-0.166 -1.201,-0.496c-0.661,-0.662 -0.661,-1.739 0,-2.401l1.481,-1.48c-5.718,-6.583 -14.142,-10.757 -23.524,-10.757c-17.191,0 -31.176,13.984 -31.176,31.176c0,17.191 13.985,31.175 31.176,31.175c17.191,0 31.176,-13.984 31.176,-31.175Zm-18.231,50.492c0,-1.761 -4.33,-4.255 -11.249,-4.615l0,3.537c0,0.938 -0.759,1.697 -1.696,1.697c-0.938,0 -1.697,-0.759 -1.697,-1.697l0,-3.537c-6.918,0.36 -11.249,2.854 -11.249,4.615c0,1.9 5.044,4.661 12.946,4.661c7.902,0 12.945,-2.761 12.945,-4.661Z" style="fill-rule:nonzero;"/><rect x="22.067" y="175.236" width="196.742" height="8.118" style="fill:#fcd29b;"/><path d="M218.809,40.633l0,131.209l-196.742,0l0,-131.209l6.031,0c0.208,8.589 3.555,16.411 8.946,22.353l-1.973,1.972c-1.807,-1.976 -3.397,-4.127 -4.729,-6.426c-0.471,-0.81 -1.51,-1.085 -2.32,-0.615c-0.81,0.471 -1.086,1.51 -0.615,2.321c1.484,2.549 3.253,4.937 5.263,7.121l-1.976,1.977c-0.662,0.661 -0.662,1.739 0,2.401c0.331,0.33 0.768,0.496 1.2,0.496c0.433,0 0.87,-0.166 1.201,-0.496l1.976,-1.981c7.33,6.748 16.547,10.319 25.878,10.705l0,1.803c-8.458,0.39 -14.642,3.707 -14.642,8.013c0,4.593 7.024,8.054 16.339,8.054c9.314,0 16.338,-3.461 16.338,-8.054c0,-4.306 -6.184,-7.623 -14.642,-8.013l0,-1.803c9.858,-0.407 19.597,-4.36 27.109,-11.872c7.723,-7.728 11.681,-17.81 11.889,-27.956l37.016,0c1.069,9.874 2.8,25.691 2.8,25.691c0.093,2.995 4.156,5.994 11.834,5.994c7.677,0 11.74,-2.999 11.834,-5.994c0,0 1.73,-15.817 2.799,-25.691l49.186,0Zm-2.333,70.754l0,-67.017c0,-0.938 -0.759,-1.697 -1.697,-1.697l-33.827,0c-3.919,0 -7.104,3.19 -7.104,7.105l0,56.201c0,3.919 3.185,7.105 7.104,7.105l33.827,0c0.938,0 1.697,-0.76 1.697,-1.697Zm-8.39,39.82c1.909,-2.884 2.88,-5.548 2.88,-7.923c0,-6.821 -3.868,-12.165 -8.801,-12.165c-1.404,0 -2.745,0.449 -3.945,1.272c-0.225,-1.365 -0.674,-2.668 -1.302,-3.868c4.988,-0.793 8.814,-5.124 8.814,-10.333l0,-1.323c0,-0.937 -0.759,-1.697 -1.697,-1.697l-1.323,0c-5.099,0 -9.353,3.665 -10.278,8.496c-0.788,-0.496 -1.641,-0.92 -2.545,-1.238c-0.882,-0.314 -1.853,0.148 -2.167,1.035c-0.31,0.882 0.153,1.853 1.035,2.163c2.969,1.048 5.154,3.508 5.93,6.46c-1.078,-0.628 -2.248,-0.967 -3.47,-0.967c-4.933,0 -8.801,5.344 -8.801,12.165c0,2.375 0.971,5.039 2.88,7.923c2.532,3.83 6.795,6.112 11.397,6.112c4.598,0 8.861,-2.282 11.393,-6.112Zm-39.328,5.001l0,-33.933c0,-0.937 -0.759,-1.697 -1.697,-1.697c-0.937,0 -1.696,0.76 -1.696,1.697l0,33.933c0,0.937 0.759,1.697 1.696,1.697c0.938,0 1.697,-0.76 1.697,-1.697Zm-8.199,5.09l0,-43.956c0,-0.004 -0.004,-0.008 -0.004,-0.013l0,-5.077c0,-0.674 -0.395,-1.281 -1.014,-1.552c-0.615,-0.272 -1.332,-0.153 -1.828,0.301c-5.391,4.954 -10.681,2.524 -16.81,-0.293c-5.968,-2.74 -12.691,-5.823 -19.371,-0.67c-6.676,-5.153 -13.399,-2.07 -19.371,0.67c-6.125,2.817 -11.415,5.247 -16.806,0.293c-0.496,-0.454 -1.213,-0.573 -1.828,-0.301c-0.619,0.271 -1.018,0.878 -1.018,1.552l0.004,49.046c0,0.475 0.2,0.924 0.548,1.247c3.003,2.761 6.027,3.749 8.996,3.749l58.954,0c2.969,0 5.993,-0.988 8.996,-3.749c0.352,-0.323 0.552,-0.772 0.552,-1.247Zm-1.625,-73.804l0.005,-8.203c0,-0.45 -0.179,-0.882 -0.497,-1.201c-0.318,-0.318 -0.75,-0.496 -1.2,-0.496l-51.9,0.004c-0.933,0 -1.693,0.76 -1.697,1.697l-0.004,8.199c0,0.45 0.178,0.882 0.496,1.2c0.318,0.319 0.751,0.501 1.201,0.501l51.9,-0.009c0.933,0 1.692,-0.759 1.696,-1.692Zm-23.528,-27.978c0.925,-0.135 1.57,-0.996 1.434,-1.925c-0.136,-0.925 -0.997,-1.57 -1.926,-1.434l-14.862,2.163l-4.764,-3.516c-0.441,-2.922 -2.96,-5.166 -6.002,-5.166c-3.35,0 -6.078,2.727 -6.078,6.078c0,1.722 0.721,3.275 1.875,4.382c-1.154,1.107 -1.875,2.663 -1.875,4.385c0,3.351 2.728,6.079 6.078,6.079c3.042,0 5.561,-2.248 6.002,-5.167l4.764,-3.516l14.862,2.159c0.929,0.136 1.79,-0.505 1.926,-1.434c0.136,-0.924 -0.509,-1.785 -1.434,-1.921l-4.012,-0.585l4.012,-0.582Zm-67.882,105.082l0,-46.094c0,-0.937 -0.76,-1.696 -1.697,-1.696l-34.781,0c-0.937,0 -1.697,0.759 -1.697,1.696l0,46.094c0,0.937 0.76,1.696 1.697,1.696l34.781,0c0.937,0 1.697,-0.759 1.697,-1.696Z" style="fill:#fde2bf;fill-rule:nonzero;"/><path d="M216.476,44.37l0,67.017c0,0.937 -0.759,1.697 -1.697,1.697l-33.827,0c-3.919,0 -7.104,-3.186 -7.104,-7.105l0,-56.201c0,-3.915 3.185,-7.105 7.104,-7.105l33.827,0c0.938,0 1.697,0.759 1.697,1.697Zm-3.393,65.32l0,-7.422l-1.345,0l0,3.253c0,0.937 -0.759,1.696 -1.697,1.696l-32.584,0c0.509,1.438 1.884,2.473 3.495,2.473l32.131,0Zm0,-10.816l0,-7.423l-1.345,0l0,3.254c0,0.937 -0.759,1.696 -1.697,1.696l-32.584,0c0.509,1.438 1.884,2.473 3.495,2.473l32.131,0Zm0,-10.816l0,-41.992l-32.131,0c-2.048,0 -3.711,1.667 -3.711,3.712l0,39.341c1.082,-0.666 2.35,-1.061 3.711,-1.061l32.131,0Zm-4.738,15.766l0,-1.556l-27.393,0c-1.242,0 -2.341,0.615 -3.015,1.556l30.408,0Zm0,-10.816l0,-1.557l-27.393,0c-1.242,0 -2.341,0.615 -3.015,1.557l30.408,0Z" style="fill-rule:nonzero;"/><path d="M213.083,102.268l0,7.422l-32.131,0c-1.611,0 -2.986,-1.035 -3.495,-2.473l32.584,0c0.938,0 1.697,-0.759 1.697,-1.696l0,-3.253l1.345,0Z" style="fill:#e58406;fill-rule:nonzero;"/><path d="M213.083,91.451l0,7.423l-32.131,0c-1.611,0 -2.986,-1.035 -3.495,-2.473l32.584,0c0.938,0 1.697,-0.759 1.697,-1.696l0,-3.254l1.345,0Z" style="fill:#e58406;fill-rule:nonzero;"/><path d="M213.083,46.066l0,41.992l-32.131,0c-1.361,0 -2.629,0.395 -3.711,1.061l0,-39.341c0,-2.045 1.663,-3.712 3.711,-3.712l32.131,0Zm-4.454,13.858l0,-6.503c0,-0.937 -0.759,-1.696 -1.697,-1.696l-18.947,0c-0.937,0 -1.697,0.759 -1.697,1.696l0,6.503c0,0.937 0.76,1.696 1.697,1.696l18.947,0c0.938,0 1.697,-0.759 1.697,-1.696Z" style="fill:#faa639;fill-rule:nonzero;"/><path d="M210.966,143.284c0,2.375 -0.971,5.039 -2.88,7.923c-2.532,3.83 -6.795,6.112 -11.393,6.112c-4.602,0 -8.865,-2.282 -11.397,-6.112c-1.909,-2.884 -2.88,-5.548 -2.88,-7.923c0,-6.821 3.868,-12.165 8.801,-12.165c1.222,0 2.392,0.339 3.47,0.967c-0.776,-2.952 -2.961,-5.412 -5.93,-6.46c-0.882,-0.31 -1.345,-1.281 -1.035,-2.163c0.314,-0.887 1.285,-1.349 2.167,-1.035c0.904,0.318 1.757,0.742 2.545,1.238c0.925,-4.831 5.179,-8.496 10.278,-8.496l1.323,0c0.938,0 1.697,0.76 1.697,1.697l0,1.323c0,5.209 -3.826,9.54 -8.814,10.333c0.628,1.2 1.077,2.503 1.302,3.868c1.2,-0.823 2.541,-1.272 3.945,-1.272c4.933,0 8.801,5.344 8.801,12.165Zm-5.709,6.053c1.514,-2.287 2.316,-4.382 2.316,-6.053c0,-4.755 -2.477,-8.772 -5.408,-8.772c-1.493,0 -2.948,1.069 -3.996,2.931c-0.301,0.535 -0.865,0.865 -1.476,0.865c-0.615,0 -1.179,-0.33 -1.48,-0.865c-1.048,-1.862 -2.503,-2.931 -3.996,-2.931c-2.931,0 -5.408,4.017 -5.408,8.772c0,1.671 0.802,3.762 2.316,6.053c1.904,2.875 5.107,4.589 8.568,4.589c3.457,0 6.659,-1.714 8.564,-4.589Zm-9.603,-24.089c3.592,-0.19 6.485,-3.079 6.676,-6.676c-3.597,0.191 -6.485,3.084 -6.676,6.676Z" style="fill-rule:nonzero;"/><path d="M208.629,53.421l0,6.503c0,0.937 -0.759,1.696 -1.697,1.696l-18.947,0c-0.937,0 -1.697,-0.759 -1.697,-1.696l0,-6.503c0,-0.937 0.76,-1.696 1.697,-1.696l18.947,0c0.938,0 1.697,0.759 1.697,1.696Zm-3.393,4.806l0,-3.109l-15.554,0l0,3.109l15.554,0Z" style="fill-rule:nonzero;"/><path d="M208.345,102.268l0,1.556l-30.408,0c0.674,-0.941 1.773,-1.556 3.015,-1.556l27.393,0Z" style="fill:#e6e6e6;fill-rule:nonzero;"/><path d="M208.345,91.451l0,1.557l-30.408,0c0.674,-0.942 1.773,-1.557 3.015,-1.557l27.393,0Z" style="fill:#e6e6e6;fill-rule:nonzero;"/><path d="M207.573,143.284c0,1.671 -0.802,3.766 -2.316,6.053c-1.905,2.875 -5.107,4.589 -8.564,4.589c-3.461,0 -6.664,-1.714 -8.568,-4.589c-1.514,-2.291 -2.316,-4.382 -2.316,-6.053c0,-4.755 2.477,-8.772 5.408,-8.772c1.493,0 2.948,1.069 3.996,2.931c0.301,0.535 0.865,0.865 1.48,0.865c0.611,0 1.175,-0.33 1.476,-0.865c1.048,-1.862 2.503,-2.931 3.996,-2.931c2.931,0 5.408,4.017 5.408,8.772Z" style="fill:#f13c63;fill-rule:nonzero;"/><rect x="189.682" y="55.118" width="15.554" height="3.109" style="fill:#e6e6e6;"/><path d="M202.33,118.572c-0.191,3.597 -3.084,6.486 -6.676,6.676c0.191,-3.592 3.079,-6.485 6.676,-6.676Z" style="fill:#fde2bf;fill-rule:nonzero;"/><path d="M168.758,122.275l0,33.933c0,0.937 -0.759,1.697 -1.697,1.697c-0.937,0 -1.696,-0.76 -1.696,-1.697l0,-33.933c0,-0.937 0.759,-1.697 1.696,-1.697c0.938,0 1.697,0.76 1.697,1.697Z" style="fill-rule:nonzero;"/><path d="M165.984,31.314c0.7,0.543 1.069,1.094 1.069,1.586c0,0.603 -0.564,1.303 -1.608,1.96l0.539,-3.546Z" style="fill:#c51162;fill-rule:nonzero;"/><path d="M166.476,38.139l-3.033,27.897c-0.008,0.059 -0.008,0.119 -0.008,0.182c0,0.785 -2.961,2.706 -8.445,2.706c-5.485,0 -8.445,-1.921 -8.445,-2.706c0,-0.063 -0.005,-0.123 -0.009,-0.182l-3.033,-27.897c2.787,1.514 6.834,2.43 11.487,2.43c4.653,0 8.699,-0.916 11.486,-2.43Z" style="fill:#f13c63;fill-rule:nonzero;"/><path d="M162.794,29.745l-1.009,6.608c-0.789,0.212 -1.659,0.39 -2.6,0.53l0.479,-7.893c1.166,0.195 2.214,0.454 3.13,0.755Z" style="fill:#c51162;fill-rule:nonzero;"/><path d="M160.559,117.342l0,43.956c0,0.475 -0.2,0.924 -0.552,1.247c-3.003,2.761 -6.027,3.749 -8.996,3.749l-58.954,0c-2.969,0 -5.993,-0.988 -8.996,-3.749c-0.348,-0.323 -0.548,-0.772 -0.548,-1.247l-0.004,-49.046c0,-0.674 0.399,-1.281 1.018,-1.552c0.615,-0.272 1.332,-0.153 1.828,0.301c5.391,4.954 10.681,2.524 16.806,-0.293c5.972,-2.74 12.695,-5.823 19.371,-0.67c6.68,-5.153 13.403,-2.07 19.371,0.67c6.129,2.817 11.419,5.247 16.81,0.293c0.496,-0.454 1.213,-0.573 1.828,-0.301c0.619,0.271 1.014,0.878 1.014,1.552l0,5.077c0,0.005 0.004,0.009 0.004,0.013Zm-3.393,43.184l0,-0.963c-2.062,1.179 -4.123,1.641 -6.155,1.641c-4,0 -7.898,-1.789 -11.524,-3.456c-5.917,-2.715 -11.054,-5.073 -16.254,-0.768l0,0.963c6.112,-3.495 12.207,-0.696 17.67,1.811c5.922,2.719 11.058,5.081 16.263,0.772Zm-0.005,-5.09l0,-39.829c-6.112,3.495 -12.207,0.696 -17.674,-1.815c-5.917,-2.715 -11.054,-5.077 -16.258,-0.768l0.004,39.829c2.057,-1.179 4.118,-1.642 6.15,-1.642c4,0 7.898,1.79 11.52,3.453c5.922,2.719 11.058,5.081 16.258,0.772Zm-35.078,7.465l17.535,0c-0.042,-0.021 -0.089,-0.042 -0.131,-0.063c-6.125,-2.813 -11.415,-5.243 -16.806,-0.293c-0.008,0.008 -0.017,0.013 -0.021,0.021c-0.034,0.025 -0.068,0.051 -0.102,0.076c-0.029,0.026 -0.063,0.051 -0.097,0.072c-0.034,0.022 -0.068,0.039 -0.102,0.06c-0.038,0.021 -0.076,0.042 -0.114,0.064c-0.009,0.004 -0.017,0.008 -0.026,0.012c-0.025,0.013 -0.055,0.017 -0.081,0.026c-0.016,0.008 -0.038,0.017 -0.055,0.025Zm-18.637,0l17.543,0c-0.021,-0.008 -0.038,-0.017 -0.059,-0.025c-0.026,-0.009 -0.051,-0.017 -0.077,-0.026c-0.008,-0.004 -0.017,-0.008 -0.025,-0.012c-0.043,-0.022 -0.081,-0.043 -0.119,-0.064c-0.034,-0.021 -0.068,-0.038 -0.102,-0.06c-0.029,-0.021 -0.063,-0.046 -0.097,-0.072c-0.034,-0.025 -0.068,-0.051 -0.098,-0.076c-0.008,-0.008 -0.017,-0.013 -0.025,-0.021c-5.391,-4.95 -10.681,-2.52 -16.81,0.293c-0.042,0.021 -0.085,0.042 -0.131,0.063Zm16.394,-4.958l0,-0.963c-5.205,-4.305 -10.341,-1.947 -16.263,0.768c-3.622,1.667 -7.52,3.456 -11.52,3.456c-2.032,0 -4.093,-0.462 -6.15,-1.641l0,0.963c5.2,4.309 10.337,1.947 16.258,-0.772c5.463,-2.507 11.558,-5.306 17.675,-1.811Zm-0.005,-5.09l0,-39.829c-5.2,-4.309 -10.336,-1.947 -16.258,0.768c-5.463,2.511 -11.558,5.31 -17.674,1.815l0,1.722c0,0.005 0.004,0.009 0.004,0.013l0,38.098c5.2,4.305 10.337,1.943 16.254,-0.776c5.467,-2.507 11.562,-5.306 17.674,-1.811Z" style="fill-rule:nonzero;"/><path d="M158.939,79.291l-0.005,8.203c-0.004,0.933 -0.763,1.692 -1.696,1.692l-51.9,0.009c-0.45,0 -0.883,-0.182 -1.201,-0.501c-0.318,-0.318 -0.496,-0.75 -0.496,-1.2l0.004,-8.199c0.004,-0.937 0.764,-1.697 1.697,-1.697l51.9,-0.004c0.45,0 0.882,0.178 1.2,0.496c0.318,0.319 0.497,0.751 0.497,1.201Zm-3.398,6.502l0.004,-4.806l-2.286,0l0,1.417c-0.004,0.938 -0.763,1.693 -1.697,1.693l-0.004,0c-0.937,0 -1.696,-0.76 -1.692,-1.697l0,-1.413l-2.401,0l0,1.417c0,0.467 -0.191,0.891 -0.496,1.2c-0.31,0.306 -0.734,0.497 -1.201,0.497c-0.937,-0.004 -1.696,-0.764 -1.696,-1.701l0,-1.413l-2.397,0l0,1.417c0,0.938 -0.759,1.697 -1.696,1.697l-0.005,0c-0.933,0 -1.692,-0.764 -1.692,-1.701l0,-1.413l-2.397,0l-0.004,1.417c0,0.467 -0.191,0.891 -0.496,1.2c-0.305,0.306 -0.73,0.497 -1.2,0.497c-0.938,0 -1.697,-0.764 -1.697,-1.697l0.004,-1.412l-2.401,0l0,1.412c0,0.467 -0.19,0.891 -0.496,1.2c-0.309,0.306 -0.734,0.497 -1.2,0.497c-0.938,0 -1.697,-0.759 -1.697,-1.697l0,-1.412l-2.396,0l0,1.412c-0.005,0.938 -0.764,1.697 -1.697,1.697l-0.004,0c-0.938,0 -1.697,-0.759 -1.693,-1.697l0,-1.412l-2.4,0l0,1.416c0,0.467 -0.191,0.891 -0.497,1.196c-0.305,0.306 -0.729,0.497 -1.2,0.497c-0.937,0 -1.697,-0.759 -1.697,-1.697l0,-1.412l-2.396,0l0,1.416c0,0.938 -0.759,1.693 -1.697,1.693l-0.004,0c-0.933,0 -1.692,-0.759 -1.692,-1.697l0,-1.412l-2.287,0l-0.004,4.805l48.507,-0.004Z" style="fill-rule:nonzero;"/><path d="M157.166,159.563l0,0.963c-5.205,4.309 -10.341,1.947 -16.263,-0.772c-5.463,-2.507 -11.558,-5.306 -17.67,-1.811l0,-0.963c5.2,-4.305 10.337,-1.947 16.254,0.768c3.626,1.667 7.524,3.456 11.524,3.456c2.032,0 4.093,-0.462 6.155,-1.641Z" style="fill:#b3b3b3;fill-rule:nonzero;"/><path d="M157.161,115.607l0,39.829c-5.2,4.309 -10.336,1.947 -16.258,-0.772c-3.622,-1.663 -7.52,-3.453 -11.52,-3.453c-2.032,0 -4.093,0.463 -6.15,1.642l-0.004,-39.829c5.204,-4.309 10.341,-1.947 16.258,0.768c5.467,2.511 11.562,5.31 17.674,1.815Zm-2.825,9.022c0.895,-0.28 1.392,-1.234 1.107,-2.129c-0.279,-0.891 -1.234,-1.387 -2.129,-1.107c-4.038,1.277 -8.279,-0.67 -12.771,-2.732c-4.305,-1.981 -8.759,-4.025 -13.412,-3.308c-0.929,0.144 -1.561,1.009 -1.421,1.938c0.144,0.925 1.009,1.557 1.938,1.417c3.648,-0.564 7.449,1.188 11.478,3.037c3.716,1.705 7.525,3.453 11.469,3.453c1.235,0 2.482,-0.17 3.741,-0.569Zm0,6.643c0.895,-0.28 1.392,-1.235 1.107,-2.13c-0.279,-0.89 -1.234,-1.387 -2.129,-1.107c-4.038,1.277 -8.284,-0.67 -12.775,-2.731c-4.306,-1.977 -8.759,-4.021 -13.408,-3.309c-0.925,0.144 -1.561,1.01 -1.421,1.934c0.144,0.929 1.014,1.565 1.934,1.421c3.648,-0.56 7.453,1.188 11.482,3.037c3.716,1.705 7.525,3.453 11.469,3.453c1.235,0 2.482,-0.17 3.741,-0.568Zm0,6.642c0.895,-0.28 1.392,-1.234 1.107,-2.129c-0.279,-0.891 -1.234,-1.387 -2.129,-1.107c-4.042,1.276 -8.284,-0.671 -12.775,-2.732c-4.306,-1.977 -8.759,-4.021 -13.408,-3.308c-0.925,0.144 -1.561,1.009 -1.421,1.934c0.144,0.929 1.014,1.565 1.934,1.421c3.648,-0.56 7.453,1.187 11.482,3.037c3.716,1.705 7.525,3.452 11.469,3.452c1.235,0 2.482,-0.169 3.741,-0.568Zm0,6.642c0.895,-0.28 1.392,-1.234 1.107,-2.129c-0.279,-0.891 -1.234,-1.387 -2.129,-1.107c-4.038,1.277 -8.284,-0.67 -12.775,-2.732c-4.306,-1.976 -8.759,-4.021 -13.408,-3.308c-0.925,0.144 -1.561,1.009 -1.421,1.934c0.144,0.929 1.014,1.561 1.934,1.421c3.648,-0.56 7.453,1.188 11.482,3.037c3.716,1.705 7.525,3.453 11.469,3.453c1.235,0 2.482,-0.17 3.741,-0.569Zm0,6.643c0.895,-0.28 1.392,-1.235 1.107,-2.13c-0.279,-0.89 -1.234,-1.387 -2.129,-1.107c-4.038,1.277 -8.284,-0.67 -12.775,-2.731c-4.306,-1.977 -8.755,-4.021 -13.408,-3.309c-0.925,0.144 -1.561,1.01 -1.421,1.934c0.144,0.929 1.009,1.561 1.934,1.421c3.648,-0.56 7.453,1.188 11.482,3.037c3.716,1.705 7.525,3.453 11.469,3.453c1.235,0 2.482,-0.17 3.741,-0.568Z" style="fill:#e6e6e6;fill-rule:nonzero;"/><path d="M156.288,28.646l-0.522,8.521c-0.255,0.009 -0.513,0.009 -0.776,0.009c-0.208,0 -0.412,0 -0.615,-0.004l-0.844,-8.517c0.475,-0.022 0.958,-0.034 1.459,-0.034c0.441,0 0.873,0.008 1.298,0.025Z" style="fill:#c51162;fill-rule:nonzero;"/><path d="M155.545,80.987l-0.004,4.806l-48.507,0.004l0.004,-4.805l2.287,0l0,1.412c0,0.938 0.759,1.697 1.692,1.697l0.004,0c0.938,0 1.697,-0.755 1.697,-1.693l0,-1.416l2.396,0l0,1.412c0,0.938 0.76,1.697 1.697,1.697c0.471,0 0.895,-0.191 1.2,-0.497c0.306,-0.305 0.497,-0.729 0.497,-1.196l0,-1.416l2.4,0l0,1.412c-0.004,0.938 0.755,1.697 1.693,1.697l0.004,0c0.933,0 1.692,-0.759 1.697,-1.697l0,-1.412l2.396,0l0,1.412c0,0.938 0.759,1.697 1.697,1.697c0.466,0 0.891,-0.191 1.2,-0.497c0.306,-0.309 0.496,-0.733 0.496,-1.2l0,-1.412l2.401,0l-0.004,1.412c0,0.933 0.759,1.697 1.697,1.697c0.47,0 0.895,-0.191 1.2,-0.497c0.305,-0.309 0.496,-0.733 0.496,-1.2l0.004,-1.417l2.397,0l0,1.413c0,0.937 0.759,1.701 1.692,1.701l0.005,0c0.937,0 1.696,-0.759 1.696,-1.697l0,-1.417l2.397,0l0,1.413c0,0.937 0.759,1.697 1.696,1.701c0.467,0 0.891,-0.191 1.201,-0.497c0.305,-0.309 0.496,-0.733 0.496,-1.2l0,-1.417l2.401,0l0,1.413c-0.004,0.937 0.755,1.697 1.692,1.697l0.004,0c0.934,0 1.693,-0.755 1.697,-1.693l0,-1.417l2.286,0Z" style="fill:#f13c63;fill-rule:nonzero;"/><path d="M155.443,122.5c0.285,0.895 -0.212,1.849 -1.107,2.129c-1.259,0.399 -2.506,0.569 -3.741,0.569c-3.944,0 -7.753,-1.748 -11.469,-3.453c-4.029,-1.849 -7.83,-3.601 -11.478,-3.037c-0.929,0.14 -1.794,-0.492 -1.938,-1.417c-0.14,-0.929 0.492,-1.794 1.421,-1.938c4.653,-0.717 9.107,1.327 13.412,3.308c4.492,2.062 8.733,4.009 12.771,2.732c0.895,-0.28 1.85,0.216 2.129,1.107Z" style="fill-rule:nonzero;"/><path d="M155.443,129.142c0.285,0.895 -0.212,1.85 -1.107,2.13c-1.259,0.398 -2.506,0.568 -3.741,0.568c-3.944,0 -7.753,-1.748 -11.469,-3.453c-4.029,-1.849 -7.834,-3.597 -11.482,-3.037c-0.92,0.144 -1.79,-0.492 -1.934,-1.421c-0.14,-0.924 0.496,-1.79 1.421,-1.934c4.649,-0.712 9.102,1.332 13.408,3.309c4.491,2.061 8.737,4.008 12.775,2.731c0.895,-0.28 1.85,0.217 2.129,1.107Z" style="fill-rule:nonzero;"/><path d="M155.443,135.785c0.285,0.895 -0.212,1.849 -1.107,2.129c-1.259,0.399 -2.506,0.568 -3.741,0.568c-3.944,0 -7.753,-1.747 -11.469,-3.452c-4.029,-1.85 -7.834,-3.597 -11.482,-3.037c-0.92,0.144 -1.79,-0.492 -1.934,-1.421c-0.14,-0.925 0.496,-1.79 1.421,-1.934c4.649,-0.713 9.102,1.331 13.408,3.308c4.491,2.061 8.733,4.008 12.775,2.732c0.895,-0.28 1.85,0.216 2.129,1.107Z" style="fill-rule:nonzero;"/><path d="M155.443,142.427c0.285,0.895 -0.212,1.849 -1.107,2.129c-1.259,0.399 -2.506,0.569 -3.741,0.569c-3.944,0 -7.753,-1.748 -11.469,-3.453c-4.029,-1.849 -7.834,-3.597 -11.482,-3.037c-0.92,0.14 -1.79,-0.492 -1.934,-1.421c-0.14,-0.925 0.496,-1.79 1.421,-1.934c4.649,-0.713 9.102,1.332 13.408,3.308c4.491,2.062 8.737,4.009 12.775,2.732c0.895,-0.28 1.85,0.216 2.129,1.107Z" style="fill-rule:nonzero;"/><path d="M155.443,149.069c0.285,0.895 -0.212,1.85 -1.107,2.13c-1.259,0.398 -2.506,0.568 -3.741,0.568c-3.944,0 -7.753,-1.748 -11.469,-3.453c-4.029,-1.849 -7.834,-3.597 -11.482,-3.037c-0.925,0.14 -1.79,-0.492 -1.934,-1.421c-0.14,-0.924 0.496,-1.79 1.421,-1.934c4.653,-0.712 9.102,1.332 13.408,3.309c4.491,2.061 8.737,4.008 12.775,2.731c0.895,-0.28 1.85,0.217 2.129,1.107Z" style="fill-rule:nonzero;"/><path d="M150.158,29.015l0.781,7.89c-0.539,-0.077 -1.056,-0.166 -1.544,-0.268l-1.633,-7.07c0.725,-0.213 1.527,-0.399 2.396,-0.552Z" style="fill:#c51162;fill-rule:nonzero;"/><path d="M144.585,30.907l1.052,4.543c-1.743,-0.806 -2.715,-1.761 -2.715,-2.55c0,-0.615 0.586,-1.327 1.663,-1.993Z" style="fill:#c51162;fill-rule:nonzero;"/><path d="M139.618,162.901l-17.535,0c0.017,-0.008 0.039,-0.017 0.055,-0.025c0.026,-0.009 0.056,-0.013 0.081,-0.026c0.009,-0.004 0.017,-0.008 0.026,-0.012c0.038,-0.022 0.076,-0.043 0.114,-0.064c0.034,-0.021 0.068,-0.038 0.102,-0.06c0.034,-0.021 0.068,-0.046 0.097,-0.072c0.034,-0.025 0.068,-0.051 0.102,-0.076c0.004,-0.008 0.013,-0.013 0.021,-0.021c5.391,-4.95 10.681,-2.52 16.806,0.293c0.042,0.021 0.089,0.042 0.131,0.063Z" style="fill:#e58406;fill-rule:nonzero;"/><path d="M136.84,57.591c0.136,0.929 -0.509,1.79 -1.434,1.925l-4.012,0.582l4.012,0.585c0.925,0.136 1.57,0.997 1.434,1.921c-0.136,0.929 -0.997,1.57 -1.926,1.434l-14.862,-2.159l-4.764,3.516c-0.441,2.919 -2.96,5.167 -6.002,5.167c-3.35,0 -6.078,-2.728 -6.078,-6.079c0,-1.722 0.721,-3.278 1.875,-4.385c-1.154,-1.107 -1.875,-2.66 -1.875,-4.382c0,-3.351 2.728,-6.078 6.078,-6.078c3.042,0 5.561,2.244 6.002,5.166l4.764,3.516l14.862,-2.163c0.929,-0.136 1.79,0.509 1.926,1.434Zm-22.184,4.051l2.096,-1.544l-2.096,-1.544c-0.305,0.576 -0.7,1.098 -1.166,1.544c0.466,0.449 0.861,0.967 1.166,1.544Zm-2.685,-5.926c0,-1.48 -1.204,-2.685 -2.685,-2.685c-1.48,0 -2.684,1.205 -2.684,2.685c0,1.48 1.204,2.685 2.684,2.685c1.481,0 2.685,-1.205 2.685,-2.685Zm0,8.767c0,-1.484 -1.204,-2.689 -2.685,-2.689c-1.48,0 -2.684,1.205 -2.684,2.689c0,1.481 1.204,2.685 2.684,2.685c1.481,0 2.685,-1.204 2.685,-2.685Z" style="fill-rule:nonzero;"/><path d="M120.989,162.901l-17.543,0c0.046,-0.021 0.089,-0.042 0.131,-0.063c6.129,-2.813 11.419,-5.243 16.81,-0.293c0.008,0.008 0.017,0.013 0.025,0.021c0.03,0.025 0.064,0.051 0.098,0.076c0.034,0.026 0.068,0.051 0.097,0.072c0.034,0.022 0.068,0.039 0.102,0.06c0.038,0.021 0.076,0.042 0.119,0.064c0.008,0.004 0.017,0.008 0.025,0.012c0.026,0.009 0.051,0.017 0.077,0.026c0.021,0.008 0.038,0.017 0.059,0.025Z" style="fill:#e58406;fill-rule:nonzero;"/><path d="M119.84,156.98l0,0.963c-6.117,-3.495 -12.212,-0.696 -17.675,1.811c-5.921,2.719 -11.058,5.081 -16.258,0.772l0,-0.963c2.057,1.179 4.118,1.641 6.15,1.641c4,0 7.898,-1.789 11.52,-3.456c5.922,-2.715 11.058,-5.073 16.263,-0.768Z" style="fill:#b3b3b3;fill-rule:nonzero;"/><path d="M119.835,113.024l0,39.829c-6.112,-3.495 -12.207,-0.696 -17.674,1.811c-5.917,2.719 -11.054,5.081 -16.254,0.776l0,-38.098c0,-0.004 -0.004,-0.008 -0.004,-0.013l0,-1.722c6.116,3.495 12.211,0.696 17.674,-1.815c5.922,-2.715 11.058,-5.077 16.258,-0.768Zm-2.481,4.267c0.144,-0.929 -0.492,-1.794 -1.417,-1.938c-4.653,-0.717 -9.106,1.327 -13.412,3.308c-4.492,2.062 -8.733,4.009 -12.775,2.732c-0.891,-0.28 -1.845,0.216 -2.125,1.107c-0.285,0.895 0.212,1.849 1.107,2.129c1.259,0.399 2.506,0.569 3.741,0.569c3.94,0 7.753,-1.748 11.469,-3.453c4.03,-1.849 7.834,-3.597 11.478,-3.037c0.924,0.144 1.794,-0.492 1.934,-1.417Zm0,6.638c0.144,-0.924 -0.492,-1.79 -1.417,-1.934c-4.657,-0.712 -9.106,1.332 -13.412,3.309c-4.492,2.061 -8.733,4.008 -12.775,2.731c-0.891,-0.28 -1.845,0.217 -2.125,1.107c-0.285,0.895 0.212,1.85 1.107,2.13c1.259,0.398 2.506,0.568 3.741,0.568c3.944,0 7.753,-1.748 11.469,-3.453c4.03,-1.849 7.834,-3.597 11.478,-3.037c0.929,0.144 1.794,-0.492 1.934,-1.421Zm0,6.643c0.144,-0.925 -0.492,-1.79 -1.417,-1.934c-4.657,-0.713 -9.106,1.331 -13.412,3.308c-4.492,2.061 -8.733,4.008 -12.775,2.732c-0.891,-0.28 -1.845,0.216 -2.125,1.107c-0.285,0.895 0.212,1.849 1.107,2.129c1.259,0.399 2.506,0.568 3.741,0.568c3.944,0 7.753,-1.747 11.469,-3.452c4.03,-1.85 7.834,-3.597 11.478,-3.037c0.929,0.144 1.794,-0.492 1.934,-1.421Zm0,6.642c0.144,-0.925 -0.492,-1.79 -1.417,-1.934c-4.657,-0.713 -9.106,1.332 -13.412,3.308c-4.492,2.062 -8.733,4.009 -12.775,2.732c-0.891,-0.28 -1.845,0.216 -2.125,1.107c-0.285,0.895 0.212,1.849 1.107,2.129c1.259,0.399 2.506,0.569 3.741,0.569c3.944,0 7.753,-1.748 11.469,-3.453c4.03,-1.849 7.834,-3.597 11.478,-3.037c0.929,0.14 1.794,-0.492 1.934,-1.421Zm0,6.642c0.144,-0.924 -0.492,-1.79 -1.417,-1.934c-4.653,-0.712 -9.102,1.332 -13.412,3.309c-4.492,2.061 -8.733,4.008 -12.775,2.731c-0.891,-0.28 -1.845,0.217 -2.125,1.107c-0.285,0.895 0.212,1.85 1.107,2.13c1.259,0.398 2.506,0.568 3.741,0.568c3.944,0 7.753,-1.748 11.469,-3.453c4.03,-1.849 7.834,-3.597 11.478,-3.037c0.929,0.14 1.794,-0.492 1.934,-1.421Z" style="fill:#e6e6e6;fill-rule:nonzero;"/><path d="M115.937,115.353c0.925,0.144 1.561,1.009 1.417,1.938c-0.14,0.925 -1.01,1.561 -1.934,1.417c-3.644,-0.56 -7.448,1.188 -11.478,3.037c-3.716,1.705 -7.529,3.453 -11.469,3.453c-1.235,0 -2.482,-0.17 -3.741,-0.569c-0.895,-0.28 -1.392,-1.234 -1.107,-2.129c0.28,-0.891 1.234,-1.387 2.125,-1.107c4.042,1.277 8.283,-0.67 12.775,-2.732c4.306,-1.981 8.759,-4.025 13.412,-3.308Z" style="fill-rule:nonzero;"/><path d="M115.937,121.995c0.925,0.144 1.561,1.01 1.417,1.934c-0.14,0.929 -1.005,1.565 -1.934,1.421c-3.644,-0.56 -7.448,1.188 -11.478,3.037c-3.716,1.705 -7.525,3.453 -11.469,3.453c-1.235,0 -2.482,-0.17 -3.741,-0.568c-0.895,-0.28 -1.392,-1.235 -1.107,-2.13c0.28,-0.89 1.234,-1.387 2.125,-1.107c4.042,1.277 8.283,-0.67 12.775,-2.731c4.306,-1.977 8.755,-4.021 13.412,-3.309Z" style="fill-rule:nonzero;"/><path d="M115.937,128.638c0.925,0.144 1.561,1.009 1.417,1.934c-0.14,0.929 -1.005,1.565 -1.934,1.421c-3.644,-0.56 -7.448,1.187 -11.478,3.037c-3.716,1.705 -7.525,3.452 -11.469,3.452c-1.235,0 -2.482,-0.169 -3.741,-0.568c-0.895,-0.28 -1.392,-1.234 -1.107,-2.129c0.28,-0.891 1.234,-1.387 2.125,-1.107c4.042,1.276 8.283,-0.671 12.775,-2.732c4.306,-1.977 8.755,-4.021 13.412,-3.308Z" style="fill-rule:nonzero;"/><path d="M115.937,135.28c0.925,0.144 1.561,1.009 1.417,1.934c-0.14,0.929 -1.005,1.561 -1.934,1.421c-3.644,-0.56 -7.448,1.188 -11.478,3.037c-3.716,1.705 -7.525,3.453 -11.469,3.453c-1.235,0 -2.482,-0.17 -3.741,-0.569c-0.895,-0.28 -1.392,-1.234 -1.107,-2.129c0.28,-0.891 1.234,-1.387 2.125,-1.107c4.042,1.277 8.283,-0.67 12.775,-2.732c4.306,-1.976 8.755,-4.021 13.412,-3.308Z" style="fill-rule:nonzero;"/><path d="M115.937,141.922c0.925,0.144 1.561,1.01 1.417,1.934c-0.14,0.929 -1.005,1.561 -1.934,1.421c-3.644,-0.56 -7.448,1.188 -11.478,3.037c-3.716,1.705 -7.525,3.453 -11.469,3.453c-1.235,0 -2.482,-0.17 -3.741,-0.568c-0.895,-0.28 -1.392,-1.235 -1.107,-2.13c0.28,-0.89 1.234,-1.387 2.125,-1.107c4.042,1.277 8.283,-0.67 12.775,-2.731c4.31,-1.977 8.759,-4.021 13.412,-3.309Z" style="fill-rule:nonzero;"/><path d="M116.752,60.098l-2.096,1.544c-0.305,-0.577 -0.7,-1.095 -1.166,-1.544c0.466,-0.446 0.861,-0.968 1.166,-1.544l2.096,1.544Z" style="fill:#fde2bf;fill-rule:nonzero;"/><path d="M109.286,53.031c1.481,0 2.685,1.205 2.685,2.685c0,1.48 -1.204,2.685 -2.685,2.685c-1.48,0 -2.684,-1.205 -2.684,-2.685c0,-1.48 1.204,-2.685 2.684,-2.685Z" style="fill:#fde2bf;fill-rule:nonzero;"/><path d="M109.286,61.794c1.481,0 2.685,1.205 2.685,2.689c0,1.481 -1.204,2.685 -2.685,2.685c-1.48,0 -2.684,-1.204 -2.684,-2.685c0,-1.484 1.204,-2.689 2.684,-2.689Z" style="fill:#fde2bf;fill-rule:nonzero;"/><path d="M97.194,40.633l2.761,0c-0.208,9.276 -3.839,18.493 -10.905,25.555c-7.279,7.283 -16.839,10.923 -26.404,10.923c-9.035,-0.005 -18.065,-3.258 -25.174,-9.752l1.972,-1.972c6.138,5.569 14.282,8.967 23.202,8.967c18.777,0 34.094,-15.05 34.548,-33.721Z" style="fill:#fde2bf;fill-rule:nonzero;"/><path d="M88.274,22.063c3.495,5.035 5.548,11.143 5.548,17.722c0,17.191 -13.985,31.175 -31.176,31.175c-17.191,0 -31.176,-13.984 -31.176,-31.175c0,-17.192 13.985,-31.176 31.176,-31.176c9.382,0 17.806,4.174 23.524,10.757l-1.481,1.48c-0.661,0.662 -0.661,1.739 0,2.401c0.331,0.33 0.764,0.496 1.201,0.496c0.432,0 0.865,-0.166 1.2,-0.496l1.184,-1.184Zm3.325,17.789c0,-0.937 -0.759,-1.696 -1.697,-1.696c-0.937,0 -1.696,0.759 -1.696,1.696c0,14.155 -11.512,25.666 -25.666,25.666c-0.938,0 -1.697,0.76 -1.697,1.697c0,0.937 0.759,1.697 1.697,1.697c16.025,0 29.059,-13.035 29.059,-29.06Zm-27.363,-27.362c0,-0.938 -0.759,-1.697 -1.696,-1.697c-16.025,0 -29.059,13.035 -29.059,29.059c0,0.938 0.759,1.697 1.696,1.697c0.938,0 1.697,-0.759 1.697,-1.697c0,-14.154 11.512,-25.665 25.666,-25.665c0.937,0 1.696,-0.76 1.696,-1.697Z" style="fill:#faa639;fill-rule:nonzero;"/><path d="M89.902,38.156c0.938,0 1.697,0.759 1.697,1.696c0,16.025 -13.034,29.06 -29.059,29.06c-0.938,0 -1.697,-0.76 -1.697,-1.697c0,-0.937 0.759,-1.697 1.697,-1.697c14.154,0 25.666,-11.511 25.666,-25.666c0,-0.937 0.759,-1.696 1.696,-1.696Z" style="fill-rule:nonzero;"/><path d="M64.342,85.662c6.919,0.36 11.249,2.854 11.249,4.615c0,1.9 -5.043,4.661 -12.945,4.661c-7.902,0 -12.946,-2.761 -12.946,-4.661c0,-1.761 4.331,-4.255 11.249,-4.615l0,3.537c0,0.938 0.759,1.697 1.697,1.697c0.937,0 1.696,-0.759 1.696,-1.697l0,-3.537Z" style="fill:#faa639;fill-rule:nonzero;"/><path d="M67.524,118.504l0,46.094c0,0.937 -0.76,1.696 -1.697,1.696l-34.781,0c-0.937,0 -1.697,-0.759 -1.697,-1.696l0,-46.094c0,-0.937 0.76,-1.696 1.697,-1.696l34.781,0c0.937,0 1.697,0.759 1.697,1.696Zm-3.394,44.397l0,-1.417l-31.387,0l0,1.417l31.387,0Zm0,-4.81l0,-1.412l-31.387,0l0,1.412l31.387,0Zm0,-4.806l0,-33.084l-31.387,0l0,33.084l31.387,0Z" style="fill-rule:nonzero;"/><rect x="32.743" y="161.484" width="31.388" height="1.417" style="fill:#e58406;"/><rect x="32.743" y="156.679" width="31.388" height="1.412" style="fill:#e58406;"/><path d="M64.13,120.201l0,33.084l-31.387,0l0,-33.084l31.387,0Zm-4.241,8.199c0,-0.937 -0.759,-1.697 -1.697,-1.697l-18.947,0c-0.933,0 -1.697,0.76 -1.697,1.697c0,0.937 0.764,1.697 1.697,1.697l18.947,0c0.938,0 1.697,-0.76 1.697,-1.697Zm0,4.526c0,-0.938 -0.759,-1.697 -1.697,-1.697l-18.947,0c-0.933,0 -1.697,0.759 -1.697,1.697c0,0.937 0.764,1.696 1.697,1.696l18.947,0c0.938,0 1.697,-0.759 1.697,-1.696Z" style="fill:#faa639;fill-rule:nonzero;"/><path d="M62.54,10.793c0.937,0 1.696,0.759 1.696,1.697c0,0.937 -0.759,1.697 -1.696,1.697c-14.154,0 -25.666,11.511 -25.666,25.665c0,0.938 -0.759,1.697 -1.697,1.697c-0.937,0 -1.696,-0.759 -1.696,-1.697c0,-16.024 13.034,-29.059 29.059,-29.059Z" style="fill-rule:nonzero;"/><path d="M58.192,126.703c0.938,0 1.697,0.76 1.697,1.697c0,0.937 -0.759,1.697 -1.697,1.697l-18.947,0c-0.933,0 -1.697,-0.76 -1.697,-1.697c0,-0.937 0.764,-1.697 1.697,-1.697l18.947,0Z" style="fill-rule:nonzero;"/><path d="M58.192,131.229c0.938,0 1.697,0.759 1.697,1.697c0,0.937 -0.759,1.696 -1.697,1.696l-18.947,0c-0.933,0 -1.697,-0.759 -1.697,-1.696c0,-0.938 0.764,-1.697 1.697,-1.697l18.947,0Z" style="fill-rule:nonzero;"/></g></svg>