<?xml version="1.0" encoding="UTF-8"?>
<svg clip-rule="evenodd" fill-rule="evenodd" stroke-linejoin="round" stroke-miterlimit="1.414" version="1.1" viewBox="0 0 240 190" xmlns="http://www.w3.org/2000/svg" xmlns:cc="http://creativecommons.org/ns#" xmlns:dc="http://purl.org/dc/elements/1.1/" xmlns:rdf="http://www.w3.org/1999/02/22-rdf-syntax-ns#">
<metadata>
<rdf:RDF>
<cc:Work rdf:about="">
<dc:format>image/svg+xml</dc:format>
<dc:type rdf:resource="http://purl.org/dc/dcmitype/StillImage"/>
<dc:title/>
</cc:Work>
</rdf:RDF>
</metadata>
<clipPath>
<path d="M0 0h240v190H0z"/>
</clipPath>
<g transform="matrix(.48193 0 0 .48193 4.6451 -18.958)">
<path d="m480.08 79.11 0.01 344.48c0 2.21-1.8 4-4 4h-471.84c-2.21 0-4-1.79-4-4v-344.48c0-2.21 1.79-4 4-4h270.96c-0.47-4.41-0.77-7.26-0.77-7.37 0-7.45 10.06-14.99 29.3-14.99s29.31 7.54 29.31 14.99c0 0.11-0.3 2.96-0.78 7.37h143.81c2.21 0 4 1.79 4 4zm-7.99 340.48v-19.14h-463.84v19.14zm-0.01-27.14v-309.34h-140.67c-1.97 18.22-5.02 46.15-5.02 46.15-0.24 7.78-11.51 11.85-22.65 11.85-11.13 0-22.4-4.07-22.64-11.85 0 0-3.05-27.93-5.02-46.15h-267.83v309.34zm-149.43-302.85 1.16-10.64c-4.85 2.29-11.56 3.77-20.07 3.77s-15.22-1.48-20.06-3.77l1.16 10.64c4.79-2.84 11.87-4.3 18.9-4.3 7.04 0 14.12 1.46 18.91 4.3zm-4.24 38.98 2.22-20.41c-4.65 2.14-10.78 3.24-16.89 3.24-6.1 0-12.24-1.1-16.88-3.24l2.21 20.41c0.02 0.14 0.03 0.28 0.03 0.43 0.37 1.06 5.47 4.1 14.64 4.1s14.27-3.04 14.66-4.2c0-0.14 0-0.19 0.01-0.33zm6.64-60.84c0-2.09-7.25-6.99-21.31-6.99-14.05 0-21.3 4.9-21.3 6.99s7.25 6.99 21.3 6.99c14.06 0 21.31-4.9 21.31-6.99zm-4.46 30.62c0-1.26-5.98-5.06-16.85-5.06s-16.84 3.8-16.84 5.06c0 1.25 5.97 5.05 16.84 5.05s16.85-3.8 16.85-5.05z"/>
<rect x="8.25" y="400.45" width="463.84" height="19.14" fill="#fcd29b"/>
<path d="m472.08 83.11v309.34h-463.83v-309.34h267.83c1.97 18.22 5.02 46.15 5.02 46.15 0.24 7.78 11.51 11.85 22.64 11.85 11.14 0 22.41-4.07 22.65-11.85 0 0 3.05-27.93 5.02-46.15zm-8.49 244.35v-102.32c0-20.04-16.29-36.33-36.33-36.33-19.94 0-36.18 16.15-36.32 36.06h-24.88c-8.47 0-15.36 6.9-15.36 15.37 0 0-0.01 43.8-0.01 44.04 0 8.47 6.9 15.37 15.37 15.37h1.08c-2.39 3.86-3.78 8.42-3.78 13.29 0 13.97 11.37 25.33 25.34 25.33 12.6 0 23.09-9.26 25.01-21.33h13.32c13.05 0 23.67-10.62 23.67-23.67v-68c0-13.05-10.62-23.66-23.67-23.66-12.92 0-23.44 10.4-23.66 23.26h-4.43c0.14-15.5 12.79-28.06 28.32-28.06 15.62 0 28.33 12.71 28.33 28.33v102.32c0 15.81-12.86 28.68-28.68 28.68h-13.72c-1.8-7.26-8.35-12.67-16.16-12.67h-16.67c-7.81 0-14.36 5.41-16.16 12.67h-2.5c-2.21 0-4 1.79-4 4s1.79 4 4 4h2.5c1.8 7.26 8.35 12.67 16.16 12.67h16.67c7.81 0 14.36-5.41 16.16-12.67h13.72c20.23 0 36.68-16.46 36.68-36.68zm0-162.14v-61.47c0-8.14-6.62-14.76-14.76-14.76h-72.47c-8.14 0-14.77 6.62-14.77 14.76v61.47c0 8.14 6.63 14.77 14.77 14.77h72.47c8.14 0 14.76-6.63 14.76-14.77zm-123.43 4.36c1.72-4.09-0.19-8.82-4.27-10.54l-25.44-10.8c-1.98-0.85-4.16-0.87-6.16-0.06-2 0.8-3.56 2.34-4.39 4.31l-0.63 1.48-2.81-2.8c-1.74-1.74-4.05-2.7-6.51-2.7s-4.77 0.96-6.51 2.7l-43.54 43.54c-1.74 1.74-2.7 4.05-2.7 6.51s0.96 4.77 2.7 6.51l17.91 17.91c1.74 1.74 4.05 2.7 6.5 2.7 2.46 0 4.78-0.96 6.51-2.7l5.66-5.66c0.75 0.8 1.66 1.44 2.7 1.88l25.45 10.81c1.02 0.43 2.08 0.64 3.13 0.63 3.13 0 6.11-1.83 7.42-4.89zm-6.98 198.28v-88c0-2.21-1.8-4-4-4-2.21 0-4 1.79-4 4v88c0 2.21 1.79 4 4 4 2.2 0 4-1.79 4-4zm-20.87 11.13v-122c0-2.21-1.79-4-4-4h-164.12c-2.21 0-4 1.79-4 4v122c0 2.2 1.79 4 4 4h164.12c2.21 0 4-1.8 4-4zm-53.74-233.61c0-4.8-3.9-8.7-8.7-8.7h-33.46c-3.45 0-6.85-0.91-9.85-2.62-4.2-2.41-8.98-3.68-13.82-3.68h-62.67c-8.27 0-15 6.73-15 15s6.73 15 15 15h62.67c4.84 0 9.62-1.27 13.82-3.68 3-1.71 6.4-2.62 9.85-2.62h33.46c4.8 0 8.7-3.9 8.7-8.7zm-24.49-27.89v-22c0-2.21-1.8-4-4-4-2.21 0-4 1.79-4 4v7h-27.5v-7c0-2.21-1.8-4-4-4h-71.5c-2.21 0-4 1.79-4 4v7h-43.29c-2.21 0-4 1.79-4 4 0 2.2 1.79 4 4 4h43.29v7c0 2.2 1.79 4 4 4h71.5c2.2 0 4-1.8 4-4v-7h27.5v7c0 2.2 1.79 4 4 4 2.2 0 4-1.8 4-4zm-8.01 63c0-6.9-5.6-12.5-12.5-12.5h-86c-6.89 0-12.5 5.6-12.5 12.5 0 6.89 5.61 12.5 12.5 12.5h86c6.9 0 12.5-5.61 12.5-12.5zm-3.13 49.5c0-6.62-5.38-12-12-12h-13c-6.61 0-12 5.38-12 12 0 6.61 5.39 12 12 12h13c6.62 0 12-5.39 12-12zm-35.5-17.5c0-6.62-5.38-12-12-12h-13c-6.61 0-12 5.38-12 12 0 6.61 5.39 12 12 12h13c6.62 0 12-5.39 12-12zm-66.72 47.11c9.83-1.88 17.29-10.53 17.29-20.9 0-11.74-9.55-21.29-21.29-21.29s-21.29 9.55-21.29 21.29c0 10.37 7.46 19.02 17.29 20.9v28.27c0 12.62-10.27 22.9-22.9 22.9-12.62 0-22.9-10.28-22.9-22.9v-53.31c18.36-2.56 32.69-18.86 32.69-38.12v-42.83c0-12.97-10.55-23.51-23.51-23.51h-0.01c-2.21 0-4 1.79-4 4s1.8 4 4.01 4c8.55 0 15.51 6.95 15.51 15.51v42.83c0 16.36-12.98 30.02-28.94 30.46-8.11 0.23-15.79-2.77-21.6-8.42s-9.01-13.23-9.01-21.34v-43.53c0-8.56 6.96-15.51 15.51-15.51 2.21 0 4-1.79 4-4s-1.79-4-4-4c-12.96 0-23.51 10.54-23.51 23.51v43.53c0 10.28 4.06 19.9 11.43 27.07 6.42 6.25 14.63 9.92 23.43 10.58v53.08c0 17.03 13.87 30.9 30.9 30.9 17.04 0 30.9-13.87 30.9-30.9zm-23.63 116.52v-33.77c0-2.21-1.79-4-4-4h-28.06v-12.03c0-2.21-1.79-4-4-4s-4 1.79-4 4v12.03h-26.34c-2.21 0-4 1.79-4 4v33.77c0 2.21 1.79 4 4 4h62.4c2.21 0 4-1.79 4-4z" fill="#fde2bf"/>
<path d="m463.59 225.14v102.32c0 20.22-16.45 36.68-36.68 36.68h-13.72c-1.8 7.26-8.35 12.67-16.16 12.67h-16.67c-7.81 0-14.36-5.41-16.16-12.67h-2.5c-2.21 0-4-1.79-4-4s1.79-4 4-4h2.5c1.8-7.26 8.35-12.67 16.16-12.67h16.67c7.81 0 14.36 5.41 16.16 12.67h13.72c15.82 0 28.68-12.87 28.68-28.68v-102.32c0-15.62-12.71-28.33-28.33-28.33-15.53 0-28.18 12.56-28.32 28.06h4.43c0.22-12.86 10.74-23.26 23.66-23.26 13.05 0 23.67 10.61 23.67 23.66v68c0 13.05-10.62 23.67-23.67 23.67h-13.32c-1.92 12.07-12.41 21.33-25.01 21.33-13.97 0-25.34-11.36-25.34-25.33 0-4.87 1.39-9.43 3.78-13.29h-1.08c-8.47 0-15.37-6.9-15.37-15.37 0-0.24 0.01-44.04 0.01-44.04 0-8.47 6.89-15.37 15.36-15.37h24.88c0.14-19.91 16.38-36.06 36.32-36.06 20.04 0 36.33 16.29 36.33 36.33zm-20.89 68.13v-68c0-8.64-7.03-15.66-15.67-15.66-8.51 0-15.43 6.81-15.65 15.26h10.62c8.47 0 15.36 6.9 15.36 15.37v44.04c0 4.1-1.6 7.96-4.5 10.86-2.9 2.91-6.76 4.51-10.87 4.51h-11.74c1.72 2.78 2.92 5.93 3.46 9.29h13.32c8.64 0 15.67-7.03 15.67-15.67zm-13.34-22.48v-30.55c0-4.06-3.3-7.37-7.36-7.37h-42.64v36.04h42.63c2.67 0 5.18 0.68 7.37 1.88zm-2.16 18.7c1.39-1.39 2.16-3.25 2.16-5.21 0-4.07-3.31-7.37-7.37-7.37h-55.93c-1.97 0-3.82 0.76-5.21 2.15-1.39 1.4-2.16 3.25-2.16 5.22 0 4.06 3.31 7.37 7.37 7.37h8.94c3.95-2.56 8.65-4.04 13.7-4.04 5.04 0 9.74 1.48 13.69 4.04h19.6c1.97 0 3.82-0.77 5.21-2.16zm-21.5 70.65c0-4.78-3.89-8.67-8.67-8.67h-16.67c-4.78 0-8.66 3.89-8.66 8.67s3.88 8.67 8.66 8.67h16.67c4.78 0 8.67-3.89 8.67-8.67zm0.33-47.2c0-9.56-7.78-17.33-17.33-17.33-9.56 0-17.34 7.77-17.34 17.33s7.78 17.33 17.34 17.33c9.55 0 17.33-7.77 17.33-17.33zm-34.67-44.03v-36.04h-5.3c-4.06 0-7.36 3.31-7.36 7.37v30.54c2.23-1.22 4.74-1.87 7.36-1.87z"/>
<path d="m463.59 103.85v61.47c0 8.14-6.62 14.77-14.76 14.77h-72.47c-8.14 0-14.77-6.63-14.77-14.77v-61.47c0-8.14 6.63-14.76 14.77-14.76h72.47c8.14 0 14.76 6.62 14.76 14.76zm-8 61.47v-34.75c0-3.73-3.03-6.77-6.76-6.77h-72.47c-3.73 0-6.77 3.04-6.77 6.77v34.75c0 3.73 3.04 6.77 6.77 6.77h72.47c3.73 0 6.76-3.04 6.76-6.77zm0-47.86v-13.61c0-3.73-3.03-6.76-6.76-6.76h-72.47c-3.73 0-6.77 3.03-6.77 6.76v13.61c2.03-1.05 4.33-1.66 6.77-1.66h72.47c2.44 0 4.74 0.61 6.76 1.66z"/>
<path d="m442.7 225.27v68c0 8.64-7.03 15.67-15.67 15.67h-13.32c-0.54-3.36-1.74-6.51-3.46-9.29h11.74c4.11 0 7.97-1.6 10.87-4.51 2.9-2.9 4.5-6.76 4.5-10.86v-44.04c0-8.47-6.89-15.37-15.36-15.37h-10.62c0.22-8.45 7.14-15.26 15.65-15.26 8.64 0 15.67 7.02 15.67 15.66z" fill="#fde2bf"/>
<path d="m433.84 140.51v14.87c0 2.2-1.79 4-4 4h-5.81v5.81c0 2.21-1.8 4-4 4h-14.87c-2.2 0-4-1.79-4-4v-5.81h-5.82c-2.2 0-4-1.8-4-4v-14.87c0-2.21 1.8-4 4-4h5.82v-5.82c0-2.2 1.8-4 4-4h14.87c2.2 0 4 1.8 4 4v5.82h5.81c2.21 0 4 1.79 4 4zm-8 10.87v-6.87h-5.81c-2.21 0-4-1.79-4-4v-5.82h-6.87v5.82c0 2.21-1.79 4-4 4h-5.82v6.87h5.82c2.21 0 4 1.79 4 4v5.81h6.87v-5.81c0-2.21 1.79-4 4-4z"/>
<path d="m429.36 240.24v30.55c-2.19-1.2-4.7-1.88-7.37-1.88h-42.63v-36.04h42.64c4.06 0 7.36 3.31 7.36 7.37z" fill="#faa639"/>
<path d="m425.09 102.09c2.21 0 4 1.79 4 4 0 2.2-1.79 4-4 4h-25c-2.2 0-4-1.8-4-4 0-2.21 1.8-4 4-4z"/>
<path d="m429.36 284.28c0 1.96-0.77 3.82-2.16 5.21s-3.24 2.16-5.21 2.16h-19.6c-3.95-2.56-8.65-4.04-13.69-4.04-5.05 0-9.75 1.48-13.7 4.04h-8.94c-4.06 0-7.37-3.31-7.37-7.37 0-1.97 0.77-3.82 2.16-5.22 1.39-1.39 3.24-2.15 5.21-2.15h55.93c4.06 0 7.37 3.3 7.37 7.37z" fill="#e58406"/>
<path d="m425.84 144.51v6.87h-5.81c-2.21 0-4 1.79-4 4v5.81h-6.87v-5.81c0-2.21-1.79-4-4-4h-5.82v-6.87h5.82c2.21 0 4-1.79 4-4v-5.82h6.87v5.82c0 2.21 1.79 4 4 4z" fill="#c51162"/>
<path d="m397.03 351.47c4.78 0 8.67 3.89 8.67 8.67s-3.89 8.67-8.67 8.67h-16.67c-4.78 0-8.66-3.89-8.66-8.67s3.88-8.67 8.66-8.67z" fill="#c51162"/>
<path d="m388.7 295.61c9.55 0 17.33 7.77 17.33 17.33s-7.78 17.33-17.33 17.33c-9.56 0-17.34-7.77-17.34-17.33s7.78-17.33 17.34-17.33zm3.15 19.78c1.36-1.74 1.04-4.25-0.7-5.61-1.74-1.35-4.26-1.04-5.61 0.7l-7 9c-1.36 1.75-1.04 4.26 0.7 5.62 0.73 0.56 1.59 0.84 2.45 0.84 1.19 0 2.37-0.53 3.16-1.55z" fill="#ccc"/>
<path d="m391.15 309.78c1.74 1.36 2.06 3.87 0.7 5.61l-7 9c-0.79 1.02-1.97 1.55-3.16 1.55-0.86 0-1.72-0.28-2.45-0.84-1.74-1.36-2.06-3.87-0.7-5.62l7-9c1.35-1.74 3.87-2.05 5.61-0.7z"/>
<path d="m371.36 232.87v36.04h-5.3c-2.62 0-5.13 0.65-7.36 1.87v-30.54c0-4.06 3.3-7.37 7.36-7.37z" fill="#faa639"/>
<path d="m335.89 159.14c4.08 1.72 5.99 6.45 4.27 10.54l-24.98 58.83c-1.31 3.06-4.29 4.89-7.42 4.89-1.05 0.01-2.11-0.2-3.13-0.63l-25.45-10.81c-1.04-0.44-1.95-1.08-2.7-1.88l-5.66 5.66c-1.73 1.74-4.05 2.7-6.51 2.7-2.45 0-4.76-0.96-6.5-2.7l-17.91-17.91c-1.74-1.74-2.7-4.05-2.7-6.51s0.96-4.77 2.7-6.51l43.54-43.54c1.74-1.74 4.05-2.7 6.51-2.7s4.77 0.96 6.51 2.7l2.81 2.8 0.63-1.48c0.83-1.97 2.39-3.51 4.39-4.31 2-0.81 4.18-0.79 6.16 0.06zm-10.54 24.9 7.44-17.48-25.47-10.86-1.94 4.49 1.87 1.87c1.05-2.18 3.62-3.18 5.87-2.23 2.32 0.99 3.4 3.66 2.42 5.98-0.45 1.06-1.27 1.85-2.23 2.31l1.06 1.06c1.74 1.73 2.69 4.05 2.69 6.51 0 0.52-0.05 1.03-0.13 1.54 1.14-0.56 2.5-0.65 3.77-0.11 2.31 0.98 3.39 3.66 2.41 5.97-0.98 2.32-3.66 3.4-5.98 2.42-1.46-0.63-2.43-1.93-2.7-3.39-0.02 0.03-0.04 0.05-0.06 0.07l-14.71 14.71c1.05 1.27 1.38 3.05 0.69 4.67-0.98 2.31-3.65 3.39-5.97 2.41-0.41-0.18-0.78-0.41-1.11-0.69l-4.52 4.52c1.21-0.73 2.73-0.9 4.13-0.3 2.32 0.98 3.4 3.66 2.42 5.97-0.99 2.32-3.66 3.4-5.98 2.42s-3.4-3.66-2.42-5.98c0.09-0.21 0.21-0.39 0.33-0.58l-4.75 4.74-0.19 0.46 25.47 10.86zm-16.29-8.35c0-0.23-0.06-0.56-0.35-0.86l-17.91-17.91c-0.29-0.29-0.62-0.35-0.85-0.35s-0.56 0.06-0.85 0.35l-43.55 43.55c-0.29 0.29-0.35 0.62-0.35 0.85s0.06 0.56 0.35 0.85l17.91 17.91c0.29 0.29 0.63 0.36 0.85 0.36 0.23 0 0.57-0.07 0.86-0.36l43.54-43.54c0.29-0.29 0.35-0.63 0.35-0.85z"/>
<path d="m333.18 279.96v88c0 2.21-1.8 4-4 4-2.21 0-4-1.79-4-4v-88c0-2.21 1.79-4 4-4 2.2 0 4 1.79 4 4z"/>
<path d="m332.79 166.56-7.44 17.48-2.24-0.95c0.98-2.31-0.1-4.99-2.41-5.97-1.27-0.54-2.63-0.45-3.77 0.11 0.08-0.51 0.13-1.02 0.13-1.54 0-2.46-0.95-4.78-2.69-6.51l-1.06-1.06c0.96-0.46 1.78-1.25 2.23-2.31 0.98-2.32-0.1-4.99-2.42-5.98-2.25-0.95-4.82 0.05-5.87 2.23l-1.87-1.87 1.94-4.49zm-4.62 4.61c0.98-2.31-0.1-4.99-2.41-5.97-2.32-0.99-5 0.09-5.98 2.41s0.1 5 2.41 5.98c2.32 0.98 5-0.1 5.98-2.42z" fill="#c51162"/>
<path d="m325.76 165.2c2.31 0.98 3.39 3.66 2.41 5.97-0.98 2.32-3.66 3.4-5.98 2.42-2.31-0.98-3.39-3.66-2.41-5.98s3.66-3.4 5.98-2.41z"/>
<path d="m325.35 184.04-17.59 41.36-25.47-10.86 0.19-0.46 4.75-4.74c-0.12 0.19-0.24 0.37-0.33 0.58-0.98 2.32 0.1 5 2.42 5.98s4.99-0.1 5.98-2.42c0.98-2.31-0.1-4.99-2.42-5.97-1.4-0.6-2.92-0.43-4.13 0.3l4.52-4.52c0.33 0.28 0.7 0.51 1.11 0.69 2.32 0.98 4.99-0.1 5.97-2.41 0.69-1.62 0.36-3.4-0.69-4.67l14.71-14.71c0.02-0.02 0.04-0.04 0.06-0.07 0.27 1.46 1.24 2.76 2.7 3.39 2.32 0.98 5-0.1 5.98-2.42zm-7.3 10.97c0.98-2.32-0.1-4.99-2.41-5.98-2.32-0.98-5 0.1-5.98 2.42-0.99 2.32 0.1 4.99 2.41 5.98 2.32 0.98 5-0.1 5.98-2.42zm-5.06 11.92c0.98-2.32-0.1-4.99-2.41-5.98-2.32-0.98-5 0.1-5.98 2.42-0.99 2.31 0.1 4.99 2.41 5.97 2.32 0.99 5-0.09 5.98-2.41zm-5.06 11.92c0.98-2.32-0.1-4.99-2.41-5.98-2.32-0.98-5 0.1-5.98 2.42-0.99 2.31 0.1 4.99 2.41 5.97 2.32 0.99 5-0.09 5.98-2.41z" fill="#c51162"/>
<path d="m323.81 78.96-1.16 10.64c-4.79-2.84-11.87-4.3-18.91-4.3-7.03 0-14.11 1.46-18.9 4.3l-1.16-10.64c4.84 2.29 11.55 3.77 20.06 3.77s15.22-1.48 20.07-3.77z" fill="#f2f2f2"/>
<path d="m320.63 108.17-2.22 20.41c-0.01 0.14-0.01 0.19-0.01 0.33-0.39 1.16-5.49 4.2-14.66 4.2s-14.27-3.04-14.64-4.1c0-0.15-0.01-0.29-0.03-0.43l-2.21-20.41c4.64 2.14 10.78 3.24 16.88 3.24 6.11 0 12.24-1.1 16.89-3.24z" fill="#e58406"/>
<path d="m303.74 60.75c14.06 0 21.31 4.9 21.31 6.99s-7.25 6.99-21.31 6.99c-14.05 0-21.3-4.9-21.3-6.99s7.25-6.99 21.3-6.99z" fill="#f2f2f2"/>
<path d="m315.64 189.03c2.31 0.99 3.39 3.66 2.41 5.98s-3.66 3.4-5.98 2.42c-2.31-0.99-3.4-3.66-2.41-5.98 0.98-2.32 3.66-3.4 5.98-2.42z"/>
<path d="m303.74 93.3c10.87 0 16.85 3.8 16.85 5.06 0 1.25-5.98 5.05-16.85 5.05s-16.84-3.8-16.84-5.05c0-1.26 5.97-5.06 16.84-5.06z" fill="#faa639"/>
<path d="m310.58 200.95c2.31 0.99 3.39 3.66 2.41 5.98s-3.66 3.4-5.98 2.41c-2.31-0.98-3.4-3.66-2.41-5.97 0.98-2.32 3.66-3.4 5.98-2.42z"/>
<path d="m312.31 257.09v122c0 2.2-1.79 4-4 4h-164.12c-2.21 0-4-1.8-4-4v-122c0-2.21 1.79-4 4-4h164.12c2.21 0 4 1.79 4 4zm-8 118v-3h-74.06v3zm0-11v-103h-74.06v103zm-82.06 11v-3h-74.06v3zm0-11v-103h-74.06v103z"/>
<path d="m308.71 174.83c0.29 0.3 0.35 0.63 0.35 0.86 0 0.22-0.06 0.56-0.35 0.85l-43.54 43.54c-0.29 0.29-0.63 0.36-0.86 0.36-0.22 0-0.56-0.07-0.85-0.36l-17.91-17.91c-0.29-0.29-0.35-0.62-0.35-0.85s0.06-0.56 0.35-0.85l43.55-43.55c0.29-0.29 0.62-0.35 0.85-0.35s0.56 0.06 0.85 0.35zm-5.19 3.44c1.78-1.78 1.78-4.67 0-6.45s-4.67-1.78-6.45 0-1.78 4.67 0 6.45 4.67 1.78 6.45 0zm-9.16 9.15c1.78-1.78 1.78-4.66 0-6.44s-4.66-1.78-6.44 0-1.78 4.66 0 6.44 4.66 1.78 6.44 0zm-0.54-18.86c1.78-1.78 1.78-4.66 0-6.44-1.79-1.78-4.67-1.78-6.45 0s-1.78 4.66 0 6.44 4.66 1.78 6.45 0zm-8.61 28.02c1.78-1.78 1.78-4.67 0-6.45s-4.67-1.78-6.45 0-1.78 4.67 0 6.45 4.67 1.78 6.45 0zm-0.55-18.86c1.78-1.78 1.78-4.67 0-6.45s-4.67-1.78-6.45 0-1.78 4.67 0 6.45 4.67 1.78 6.45 0zm-8.61 28.01c1.78-1.78 1.78-4.66 0-6.44s-4.66-1.78-6.44 0-1.78 4.66 0 6.44 4.66 1.78 6.44 0zm-0.55-18.86c1.78-1.78 1.78-4.66 0-6.44s-4.66-1.78-6.44 0-1.78 4.66 0 6.44 4.66 1.78 6.44 0zm-8.6 28.02c1.78-1.78 1.78-4.67 0-6.45s-4.67-1.78-6.45 0-1.78 4.67 0 6.45 4.67 1.78 6.45 0zm-0.55-18.86c1.78-1.78 1.78-4.67 0-6.45s-4.67-1.78-6.45 0-1.78 4.67 0 6.45 4.67 1.78 6.45 0zm-9.16 9.16c1.78-1.78 1.78-4.67 0-6.45s-4.66-1.78-6.44 0-1.78 4.67 0 6.45 4.66 1.78 6.44 0z" fill="#faa639"/>
<path d="m305.52 212.87c2.31 0.99 3.39 3.66 2.41 5.98s-3.66 3.4-5.98 2.41c-2.31-0.98-3.4-3.66-2.41-5.97 0.98-2.32 3.66-3.4 5.98-2.42z"/>
<rect x="230.25" y="372.09" width="74.06" height="3" fill="#e6e6e6"/>
<path d="m304.31 261.09v103h-74.06v-103zm-7.12 31.66c0-2.21-1.79-4-4-4h-51.8c-2.21 0-4 1.79-4 4s1.79 4 4 4h51.8c2.21 0 4-1.79 4-4zm-7 15.67c0-2.21-1.79-4-4-4h-44.8c-2.21 0-4 1.79-4 4s1.79 4 4 4h44.8c2.21 0 4-1.79 4-4zm-17.8-31.33c0-2.21-1.79-4-4-4h-27c-2.21 0-4 1.79-4 4 0 2.2 1.79 4 4 4h27c2.21 0 4-1.8 4-4z" fill="#f2f2f2"/>
<circle cx="300.3" cy="175.04" r="4.561"/>
<path d="m293.19 288.75c2.21 0 4 1.79 4 4s-1.79 4-4 4h-51.8c-2.21 0-4-1.79-4-4s1.79-4 4-4z"/>
<circle cx="291.14" cy="184.2" r="4.554"/>
<path d="m293.82 162.12c1.78 1.78 1.78 4.66 0 6.44-1.79 1.78-4.67 1.78-6.45 0s-1.78-4.66 0-6.44 4.66-1.78 6.45 0z"/>
<path d="m286.19 304.42c2.21 0 4 1.79 4 4s-1.79 4-4 4h-44.8c-2.21 0-4-1.79-4-4s1.79-4 4-4z"/>
<circle cx="281.98" cy="193.36" r="4.561"/>
<circle cx="281.44" cy="174.5" r="4.561"/>
<circle cx="272.83" cy="202.51" r="4.554"/>
<circle cx="272.28" cy="183.65" r="4.554"/>
<path d="m268.39 273.09c2.21 0 4 1.79 4 4 0 2.2-1.79 4-4 4h-27c-2.21 0-4-1.8-4-4 0-2.21 1.79-4 4-4z"/>
<circle cx="263.67" cy="211.66" r="4.561"/>
<circle cx="263.12" cy="192.8" r="4.561"/>
<path d="m257.19 198.74c1.78 1.78 1.78 4.67 0 6.45s-4.66 1.78-6.44 0-1.78-4.67 0-6.45 4.66-1.78 6.44 0z"/>
<path d="m249.87 136.78c4.8 0 8.7 3.9 8.7 8.7s-3.9 8.7-8.7 8.7h-33.46c-3.45 0-6.85 0.91-9.85 2.62-4.2 2.41-8.98 3.68-13.82 3.68h-62.67c-8.27 0-15-6.73-15-15s6.73-15 15-15h62.67c4.84 0 9.62 1.27 13.82 3.68 3 1.71 6.4 2.62 9.85 2.62zm0.7 8.7c0-0.39-0.31-0.7-0.7-0.7h-11.8v1.4h11.8c0.39 0 0.7-0.32 0.7-0.7zm-20.5 0.7v-1.4h-13.66c-4.84 0-9.62-1.28-13.82-3.68-3-1.72-6.4-2.62-9.85-2.62h-62.67c-3.86 0-7 3.14-7 7s3.14 7 7 7h62.67c3.45 0 6.85-0.91 9.85-2.62 4.2-2.41 8.98-3.68 13.82-3.68z"/>
<path d="m249.87 144.78c0.39 0 0.7 0.31 0.7 0.7 0 0.38-0.31 0.7-0.7 0.7h-11.8v-1.4z" fill="#808080"/>
<path d="m234.08 95.59v22c0 2.2-1.8 4-4 4-2.21 0-4-1.8-4-4v-7h-27.5v7c0 2.2-1.8 4-4 4h-71.5c-2.21 0-4-1.8-4-4v-7h-43.29c-2.21 0-4-1.8-4-4 0-2.21 1.79-4 4-4h43.29v-7c0-2.21 1.79-4 4-4h71.5c2.2 0 4 1.79 4 4v7h27.5v-7c0-2.21 1.79-4 4-4 2.2 0 4 1.79 4 4zm-43.5 18v-3h-39.5v3zm0-11v-3h-39.5v3zm-47.5 11v-14h-16v14z"/>
<path d="m230.07 144.78v1.4h-13.66c-4.84 0-9.62 1.27-13.82 3.68-3 1.71-6.4 2.62-9.85 2.62h-24.17v-3c2.21 0 4-1.79 4-4s-1.79-4-4-4v-3h24.17c3.45 0 6.85 0.9 9.85 2.62 4.2 2.4 8.98 3.68 13.82 3.68z" fill="#c51162"/>
<path d="m213.57 168.09c6.9 0 12.5 5.6 12.5 12.5 0 6.89-5.6 12.5-12.5 12.5h-86c-6.89 0-12.5-5.61-12.5-12.5 0-6.9 5.61-12.5 12.5-12.5zm4.5 12.5c0-2.49-2.01-4.5-4.5-4.5h-39v9h39c2.49 0 4.5-2.02 4.5-4.5zm-51.5 4.5v-9h-39c-2.48 0-4.5 2.01-4.5 4.5 0 2.48 2.02 4.5 4.5 4.5z"/>
<rect x="148.19" y="372.09" width="74.06" height="3" fill="#e6e6e6"/>
<path d="m222.25 261.09v103h-74.06v-103zm-5.86 16c0-2.21-1.79-4-4-4h-54c-2.21 0-4 1.79-4 4 0 2.2 1.79 4 4 4h54c2.21 0 4-1.8 4-4zm-9.2 31.33c0-2.21-1.79-4-4-4h-44.8c-2.21 0-4 1.79-4 4s1.79 4 4 4h44.8c2.21 0 4-1.79 4-4zm-9-15.67c0-2.21-1.79-4-4-4h-35.8c-2.21 0-4 1.79-4 4s1.79 4 4 4h35.8c2.21 0 4-1.79 4-4zm-5 31.34c0-2.21-1.79-4-4-4h-30.8c-2.21 0-4 1.79-4 4 0 2.2 1.79 4 4 4h30.8c2.21 0 4-1.8 4-4z" fill="#f2f2f2"/>
<path d="m210.94 218.09c6.62 0 12 5.38 12 12 0 6.61-5.38 12-12 12h-13c-6.61 0-12-5.39-12-12 0-6.62 5.39-12 12-12zm4 12c0-2.21-1.79-4-4-4h-2.5v8h2.5c2.21 0 4-1.8 4-4zm-14.5 4v-8h-2.5c-2.2 0-4 1.79-4 4 0 2.2 1.8 4 4 4z"/>
<path d="m213.57 176.09c2.49 0 4.5 2.01 4.5 4.5 0 2.48-2.01 4.5-4.5 4.5h-39v-9z" fill="#808080"/>
<path d="m212.39 273.09c2.21 0 4 1.79 4 4 0 2.2-1.79 4-4 4h-54c-2.21 0-4-1.8-4-4 0-2.21 1.79-4 4-4z"/>
<path d="m210.94 226.09c2.21 0 4 1.79 4 4 0 2.2-1.79 4-4 4h-2.5v-8z" fill="#c51162"/>
<path d="m203.19 304.42c2.21 0 4 1.79 4 4s-1.79 4-4 4h-44.8c-2.21 0-4-1.79-4-4s1.79-4 4-4z"/>
<path d="m200.44 226.09v8h-2.5c-2.2 0-4-1.8-4-4 0-2.21 1.8-4 4-4z" fill="#faa639"/>
<path d="m194.19 288.75c2.21 0 4 1.79 4 4s-1.79 4-4 4h-35.8c-2.21 0-4-1.79-4-4s1.79-4 4-4z"/>
<path d="m189.19 320.09c2.21 0 4 1.79 4 4 0 2.2-1.79 4-4 4h-30.8c-2.21 0-4-1.8-4-4 0-2.21 1.79-4 4-4z"/>
<rect x="151.08" y="110.59" width="39.5" height="3" fill="#f2f2f2"/>
<rect x="151.08" y="99.59" width="39.5" height="3" fill="#f2f2f2"/>
<path d="m175.44 200.59c6.62 0 12 5.38 12 12 0 6.61-5.38 12-12 12h-13c-6.61 0-12-5.39-12-12 0-6.62 5.39-12 12-12zm4 12c0-2.21-1.79-4-4-4h-2.5v8h2.5c2.21 0 4-1.8 4-4zm-14.5 4v-8h-2.5c-2.2 0-4 1.79-4 4 0 2.2 1.8 4 4 4z"/>
<path d="m175.44 208.59c2.21 0 4 1.79 4 4 0 2.2-1.79 4-4 4h-2.5v-8z" fill="#c51162"/>
<path d="m168.57 141.48c2.21 0 4 1.79 4 4s-1.79 4-4 4h-22c-2.2 0-4-1.79-4-4s1.8-4 4-4z"/>
<path d="m168.57 149.48v3h-38.5c-3.86 0-7-3.14-7-7s3.14-7 7-7h38.5v3h-22c-2.2 0-4 1.79-4 4s1.8 4 4 4z" fill="#c51162"/>
<path d="m166.57 176.09v9h-39c-2.48 0-4.5-2.02-4.5-4.5 0-2.49 2.02-4.5 4.5-4.5z" fill="#faa639"/>
<path d="m164.94 208.59v8h-2.5c-2.2 0-4-1.8-4-4 0-2.21 1.8-4 4-4z" fill="#faa639"/>
<rect x="127.08" y="99.59" width="16" height="14" fill="#e58406"/>
<path d="m138.01 238.8c0 10.37-7.46 19.02-17.29 20.9v28.27c0 17.03-13.86 30.9-30.9 30.9-17.03 0-30.9-13.87-30.9-30.9v-53.08c-8.8-0.66-17.01-4.33-23.43-10.58-7.37-7.17-11.43-16.79-11.43-27.07v-43.53c0-12.97 10.55-23.51 23.51-23.51 2.21 0 4 1.79 4 4s-1.79 4-4 4c-8.55 0-15.51 6.95-15.51 15.51v43.53c0 8.11 3.2 15.69 9.01 21.34s13.49 8.65 21.6 8.42c15.96-0.44 28.94-14.1 28.94-30.46v-42.83c0-8.56-6.96-15.51-15.51-15.51-2.21 0-4.01-1.79-4.01-4s1.79-4 4-4h0.01c12.96 0 23.51 10.54 23.51 23.51v42.83c0 19.26-14.33 35.56-32.69 38.12v53.31c0 12.62 10.28 22.9 22.9 22.9 12.63 0 22.9-10.28 22.9-22.9v-28.27c-9.83-1.88-17.29-10.53-17.29-20.9 0-11.74 9.55-21.29 21.29-21.29s21.29 9.55 21.29 21.29zm-8 0c0-7.33-5.96-13.29-13.29-13.29-7.32 0-13.29 5.96-13.29 13.29 0 7.32 5.97 13.28 13.29 13.28 7.33 0 13.29-5.96 13.29-13.28z"/>
<path d="m116.72 225.51c7.33 0 13.29 5.96 13.29 13.29 0 7.32-5.96 13.28-13.29 13.28-7.32 0-13.29-5.96-13.29-13.28 0-7.33 5.97-13.29 13.29-13.29zm5.87 13.29c0-3.24-2.63-5.87-5.87-5.87s-5.86 2.63-5.86 5.87 2.62 5.86 5.86 5.86 5.87-2.62 5.87-5.86z" fill="#faa639"/>
<path d="m116.72 232.93c3.24 0 5.87 2.63 5.87 5.87s-2.63 5.86-5.87 5.86-5.86-2.62-5.86-5.86 2.62-5.87 5.86-5.87z"/>
<path d="m97.09 342.45v33.77c0 2.21-1.79 4-4 4h-62.4c-2.21 0-4-1.79-4-4v-33.77c0-2.21 1.79-4 4-4h26.34v-12.03c0-2.21 1.79-4 4-4s4 1.79 4 4v12.03h28.06c2.21 0 4 1.79 4 4zm-8 29.77v-25.77h-54.4v25.77h5.52c-0.03-0.27-0.05-0.56-0.05-0.84 0-2.57 1.26-4.84 3.19-6.24-1.93-1.4-3.19-3.67-3.19-6.24 0-4.26 3.45-7.71 7.71-7.71 4.25 0 7.71 3.45 7.71 7.71 0 2.57-1.27 4.84-3.2 6.24 1.93 1.4 3.2 3.67 3.2 6.24 0 0.28-0.02 0.57-0.05 0.84z"/>
<path d="m89.09 346.45v25.77h-33.56c0.03-0.27 0.05-0.56 0.05-0.84 0-2.57-1.27-4.84-3.2-6.24 1.93-1.4 3.2-3.67 3.2-6.24 0-4.26-3.46-7.71-7.71-7.71-4.26 0-7.71 3.45-7.71 7.71 0 2.57 1.26 4.84 3.19 6.24-1.93 1.4-3.19 3.67-3.19 6.24 0 0.28 0.02 0.57 0.05 0.84h-5.52v-25.77zm-5.16 14.32c0-2.21-1.8-4-4-4h-14.32c-2.21 0-4 1.79-4 4s1.79 4 4 4h14.32c2.2 0 4-1.79 4-4z" fill="#c51162"/>
<path d="m79.93 356.77c2.2 0 4 1.79 4 4s-1.8 4-4 4h-14.32c-2.21 0-4-1.79-4-4s1.79-4 4-4z"/>
</g>
</svg>
