<?xml version="1.0" encoding="UTF-8"?>
<svg clip-rule="evenodd" fill-rule="evenodd" stroke-linejoin="round" stroke-miterlimit="1.414" version="1.1" viewBox="0 0 240 190" xmlns="http://www.w3.org/2000/svg" xmlns:cc="http://creativecommons.org/ns#" xmlns:dc="http://purl.org/dc/elements/1.1/" xmlns:rdf="http://www.w3.org/1999/02/22-rdf-syntax-ns#">
<metadata>
<rdf:RDF>
<cc:Work rdf:about="">
<dc:format>image/svg+xml</dc:format>
<dc:type rdf:resource="http://purl.org/dc/dcmitype/StillImage"/>
<dc:title/>
</cc:Work>
</rdf:RDF>
</metadata>
<clipPath>
<path d="M0 0h240v190H0z"/>
</clipPath>
<g transform="matrix(.41806 0 0 .41806 19.594 -5.4058)">
<path d="m480.09 111.1v317.34s-0.01 0.01-0.01 0.02v27.12c0 2.21-1.79 4-4 4h-471.83c-2.21 0-4-1.79-4-4v-27.14c0-0.03 0.01-0.05 0.01-0.08v-317.26c0-2.21 1.79-4 4-4h16.27v-13.16c0-10.76 8.74-19.5 19.5-19.5h86.5c2.2 0 4 1.79 4 4v28.66h32.73v-74.96c0-6.27 5.11-11.38 11.38-11.38h260.83c6.28 0 11.38 5.11 11.38 11.38v74.96h29.24c2.2 0 4 1.79 4 4zm-8 313.34v-309.34h-25.24v85.31c0 5.88-4.79 10.66-10.67 10.66h-77.54v10.1c0 2.21-1.79 4-4 4h-99.17c-2.21 0-4-1.79-4-4v-10.1h-77.54c-5.88 0-10.67-4.78-10.67-10.66v-85.31h-32.73v111.34c0 2.21-1.8 4-4 4h-86.5c-10.76 0-19.5-8.75-19.5-19.5v-95.84h-12.27v309.34zm-0.01 27.14v-19.14h-463.83v19.14zm-33.23-251.17v-155.39c0-1.47-1.2-2.67-2.67-2.67h-262.25c-1.47 0-2.67 1.2-2.67 2.67v155.39c0 1.47 1.2 2.66 2.67 2.66h262.25c1.47 0 2.67-1.19 2.67-2.66zm0-165.71v-2.56c0-1.86-1.51-3.38-3.38-3.38h-260.83c-1.86 0-3.38 1.52-3.38 3.38v2.56c0.86-0.22 1.75-0.35 2.67-0.35h262.25c0.92 0 1.81 0.13 2.67 0.35zm-88.21 182.47v-6.1h-91.17v6.1zm-228.11 5.27v-23h-4v11c0 2.21-1.8 4-4 4h-85.46c1.49 4.63 5.84 8 10.96 8zm0-31v-23h-4v11c0 2.21-1.8 4-4 4h-85.46c1.49 4.63 5.84 8 10.96 8zm0-31v-78h-82.5c-6.35 0-11.5 5.16-11.5 11.5v70.26c3.22-2.37 7.2-3.76 11.5-3.76zm-12 46v-7h-70.5c-4.75 0-8.83 2.89-10.59 7zm0-31v-7h-70.5c-4.75 0-8.83 2.89-10.59 7z"/>
<path d="m472.09 115.1v309.34h-463.83v-309.34h12.27v95.84c0 10.75 8.74 19.5 19.5 19.5h86.5c2.2 0 4-1.79 4-4v-111.34h32.73v85.31c0 5.88 4.79 10.66 10.67 10.66h77.54v10.1c0 2.21 1.79 4 4 4h99.17c2.21 0 4-1.79 4-4v-10.1h77.54c5.88 0 10.67-4.78 10.67-10.66v-85.31zm-11.95 164.77v-21.72c0-12.99-10.57-23.56-23.57-23.56h-1.71c-13 0-23.57 10.57-23.57 23.56v21.72c0 13 10.57 23.57 23.57 23.57h1.71c13 0 23.57-10.57 23.57-23.57zm-47.19 114.84v-74.54c0-8.12-6.6-14.73-14.73-14.73h-105.39c-8.12 0-14.73 6.61-14.73 14.73v74.54c0 8.12 6.61 14.73 14.73 14.73h105.39c8.13 0 14.73-6.61 14.73-14.73zm-16.42-105.32v-49.06c0-2.21-1.8-4-4-4h-174.94c-2.21 0-4 1.79-4 4v49.06c0 2.21 1.79 4 4 4h174.94c2.2 0 4-1.79 4-4zm-163 96.2c0.46-0.96 0.52-2.06 0.17-3.06l-12.67-36v-13.97c0-2.2-1.79-4-4-4h-2.32l-5.91-16.77c-0.73-2.09-3.01-3.18-5.1-2.45l-54.63 19.22h-33.04c-2.21 0-4 1.8-4 4v9.04l-3.6 1.27c-1 0.35-1.82 1.08-2.28 2.04s-0.52 2.06-0.17 3.06l6.05 17.18v42.41c0 2.21 1.79 4 4 4h12.33l2.52 7.15c0.58 1.65 2.12 2.68 3.77 2.68 0.44 0 0.89-0.07 1.33-0.23l27.27-9.6h53.78c2.21 0 4-1.79 4-4v-16.33l10.22-3.6c1-0.35 1.82-1.08 2.28-2.04zm-36.97-96.2v-62c0-2.21-1.79-4-4-4h-44c-2.21 0-4 1.79-4 4v62c0 2.21 1.79 4 4 4h44c2.21 0 4-1.79 4-4zm-100.18-1.32c0.09-0.52 0.15-1.04 0.15-1.57 0-3.83-2.58-7.69-7.59-10.62l4.61-30.3c0.34-2.18-1.16-4.22-3.35-4.56-2.19-0.33-4.22 1.17-4.55 3.36l-4.33 28.37c-1.69-0.48-3.52-0.88-5.48-1.2l1.13-18.57c0.13-2.21-1.55-4.1-3.75-4.24-2.19-0.12-4.1 1.55-4.24 3.75l-1.11 18.34c-0.76-0.02-1.53-0.04-2.31-0.04-1 0-1.96 0.03-2.91 0.06l-2.87-29.04c-0.22-2.2-2.19-3.8-4.38-3.58-2.2 0.21-3.8 2.17-3.58 4.37l2.87 29.05c-1.52 0.26-2.96 0.57-4.31 0.94l-4.54-19.65c-0.5-2.15-2.66-3.49-4.8-2.99-2.16 0.5-3.5 2.64-3 4.8l4.8 20.76c-5.46 2.97-8.25 6.99-8.25 10.99 0 0.53 0.05 1.05 0.14 1.57l6.96 63.98c0.24 8.12 12.12 12.38 23.87 12.38 11.74 0 23.63-4.26 23.86-12.38z" fill="#fde2bf"/>
<rect x="8.25" y="432.44" width="463.83" height="19.14" fill="#fcd29b"/>
<path d="m460.14 258.15v21.72c0 13-10.57 23.57-23.57 23.57h-1.71c-13 0-23.57-10.57-23.57-23.57v-21.72c0-12.99 10.57-23.56 23.57-23.56h1.71c13 0 23.57 10.57 23.57 23.56zm-8 21.72v-11.66h-32.85v11.66c0 8.59 6.99 15.57 15.57 15.57h1.71c8.59 0 15.57-6.98 15.57-15.57zm0-19.66v-2.06c0-7.5-5.34-13.79-12.42-15.24v17.3zm-20.42 0v-17.3c-7.09 1.45-12.43 7.74-12.43 15.24v2.06z"/>
<path d="m452.14 268.21v11.66c0 8.59-6.98 15.57-15.57 15.57h-1.71c-8.58 0-15.57-6.98-15.57-15.57v-11.66z" fill="#faa639"/>
<path d="m452.14 258.15v2.06h-12.42v-17.3c7.08 1.45 12.42 7.74 12.42 15.24z" fill="#faa639"/>
<path d="m438.85 45.02v155.39c0 1.47-1.2 2.66-2.67 2.66h-262.25c-1.47 0-2.67-1.19-2.67-2.66v-155.39c0-1.47 1.2-2.67 2.67-2.67h262.25c1.47 0 2.67 1.2 2.67 2.67zm-4.15 137.31v-130.76c0-2.21-1.79-4-4-4h-251.29c-2.21 0-4 1.79-4 4v130.76c0 2.21 1.79 4 4 4h251.29c2.21 0 4-1.79 4-4z" fill="#faa639"/>
<path d="m438.85 32.14v2.56c-0.86-0.22-1.75-0.35-2.67-0.35h-262.25c-0.92 0-1.81 0.13-2.67 0.35v-2.56c0-1.86 1.52-3.38 3.38-3.38h260.83c1.87 0 3.38 1.52 3.38 3.38z" fill="#faa639"/>
<path d="m434.7 51.57v130.76c0 2.21-1.79 4-4 4h-251.29c-2.21 0-4-1.79-4-4v-130.76c0-2.21 1.79-4 4-4h251.29c2.21 0 4 1.79 4 4zm-8 126.76v-122.76h-243.29v122.76z"/>
<path d="m431.72 242.91v17.3h-12.43v-2.06c0-7.5 5.34-13.79 12.43-15.24z" fill="#faa639"/>
<path d="m426.7 55.57v122.76h-243.29v-122.76zm-46.17 105.87v-56c0-2.21-1.8-4-4-4h-17.52c-2.21 0-4 1.79-4 4v56c0 2.21 1.79 4 4 4h17.52c2.2 0 4-1.79 4-4zm-31.36 0v-36.82c0-2.21-1.79-4-4-4h-17.51c-2.21 0-4 1.79-4 4v36.82c0 2.21 1.79 4 4 4h17.51c2.21 0 4-1.79 4-4zm-31.36 0v-19.22c0-2.21-1.79-4-4-4h-17.51c-2.21 0-4 1.79-4 4v19.22c0 2.21 1.79 4 4 4h17.51c2.21 0 4-1.79 4-4zm-31.35 0v-84.98c0-2.2-1.8-4-4-4h-17.52c-2.21 0-4 1.8-4 4v84.98c0 2.21 1.79 4 4 4h17.52c2.2 0 4-1.79 4-4zm-31.36 0v-56c0-2.21-1.79-4-4-4h-17.51c-2.21 0-4 1.79-4 4v56c0 2.21 1.79 4 4 4h17.51c2.21 0 4-1.79 4-4z" fill="#f2f2f2"/>
<path d="m412.95 320.17v74.54c0 8.12-6.6 14.73-14.73 14.73h-105.39c-8.12 0-14.73-6.61-14.73-14.73v-74.54c0-8.12 6.61-14.73 14.73-14.73h105.39c8.13 0 14.73 6.61 14.73 14.73zm-8 74.54v-74.54c0-3.71-3.02-6.73-6.73-6.73h-105.39c-3.71 0-6.73 3.02-6.73 6.73v74.54c0 3.71 3.02 6.73 6.73 6.73h105.39c3.71 0 6.73-3.02 6.73-6.73z"/>
<path d="m404.95 320.17v74.54c0 3.71-3.02 6.73-6.73 6.73h-105.39c-3.71 0-6.73-3.02-6.73-6.73v-74.54c0-3.71 3.02-6.73 6.73-6.73h105.39c3.71 0 6.73 3.02 6.73 6.73zm-4.62 72.92v-71.3c0-2.21-1.79-4-4-4h-94c-2.21 0-4 1.79-4 4v71.3c0 2.2 1.79 4 4 4h94c2.21 0 4-1.8 4-4zm-103.09-35.65c0-2.69-2.17-4.86-4.86-4.86-2.68 0-4.85 2.17-4.85 4.86 0 2.68 2.17 4.85 4.85 4.85 2.69 0 4.86-2.17 4.86-4.85z" fill="#ccc"/>
<path d="m400.33 321.79v71.3c0 2.2-1.79 4-4 4h-94c-2.21 0-4-1.8-4-4v-71.3c0-2.21 1.79-4 4-4h94c2.21 0 4 1.79 4 4zm-8 67.3v-63.3h-86v63.3z"/>
<path d="m396.53 240.33v49.06c0 2.21-1.8 4-4 4h-174.94c-2.21 0-4-1.79-4-4v-49.06c0-2.21 1.79-4 4-4h174.94c2.2 0 4 1.79 4 4zm-8 45.06v-8.35h-12.84v8.35zm0-16.35v-8.36h-4.66v8.36zm0-16.36v-8.35h-12.84v8.35zm-12.66 16.36v-8.36h-8.36v8.36zm-8.18 16.35v-8.35h-14.21v8.35zm0-32.71v-8.35h-14.21v8.35zm-8.18 16.36v-8.36h-14.21v8.36zm-14.03 16.35v-8.35h-14.21v8.35zm0-32.71v-8.35h-14.21v8.35zm-8.18 16.36v-8.36h-14.21v8.36zm-14.03 16.35v-8.35h-36.43v8.35zm0-32.71v-8.35h-14.21v8.35zm-8.18 16.36v-8.36h-14.21v8.36zm-14.03-16.36v-8.35h-14.22v8.35zm-8.18 16.36v-8.36h-14.21v8.36zm-14.04 16.35v-8.35h-14.21v8.35zm0-32.71v-8.35h-14.21v8.35zm-8.17 16.36v-8.36h-14.21v8.36zm-14.04 16.35v-8.35h-14.21v8.35zm0-32.71v-8.35h-14.21v8.35zm-8.17 16.36v-8.36h-14.22v8.36zm-14.04 16.35v-8.35h-12.83v8.35zm0-32.71v-8.35h-12.83v8.35zm-8.18 16.36v-8.36h-4.65v8.36z"/>
<path d="m392.33 325.79v63.3h-86v-63.3zm-10 50.65v-39c0-2.21-1.79-4-4-4s-4 1.79-4 4v39c0 2.21 1.79 4 4 4s4-1.79 4-4zm-14.5 0v-13c0-2.21-1.79-4-4-4s-4 1.79-4 4v13c0 2.21 1.79 4 4 4s4-1.79 4-4zm-14.5 0v-22c0-2.21-1.79-4-4-4s-4 1.79-4 4v22c0 2.21 1.79 4 4 4s4-1.79 4-4zm-14.5 0v-29c0-2.21-1.79-4-4-4s-4 1.79-4 4v29c0 2.21 1.79 4 4 4s4-1.79 4-4zm-14.5 0v-13c0-2.21-1.79-4-4-4s-4 1.79-4 4v13c0 2.21 1.79 4 4 4s4-1.79 4-4z" fill="#f2f2f2"/>
<rect x="375.69" y="277.04" width="12.84" height="8.35" fill="#e58406"/>
<rect x="383.87" y="260.68" width="4.66" height="8.36" fill="#e58406"/>
<rect x="375.69" y="244.33" width="12.84" height="8.35" fill="#e58406"/>
<path d="m382.33 337.44v39c0 2.21-1.79 4-4 4s-4-1.79-4-4v-39c0-2.21 1.79-4 4-4s4 1.79 4 4z"/>
<path d="m380.53 105.44v56c0 2.21-1.8 4-4 4h-17.52c-2.21 0-4-1.79-4-4v-56c0-2.21 1.79-4 4-4h17.52c2.2 0 4 1.79 4 4zm-8 52v-48h-9.52v48z"/>
<rect x="367.51" y="260.68" width="8.36" height="8.36" fill="#e58406"/>
<rect x="363.01" y="109.44" width="9.52" height="48" fill="#c51162"/>
<path d="m367.83 363.44v13c0 2.21-1.79 4-4 4s-4-1.79-4-4v-13c0-2.21 1.79-4 4-4s4 1.79 4 4z"/>
<rect x="353.48" y="277.04" width="14.21" height="8.35" fill="#e58406"/>
<rect x="353.48" y="244.33" width="14.21" height="8.35" fill="#e58406"/>
<rect x="345.3" y="260.68" width="14.21" height="8.36" fill="#e58406"/>
<path d="m353.33 354.44v22c0 2.21-1.79 4-4 4s-4-1.79-4-4v-22c0-2.21 1.79-4 4-4s4 1.79 4 4z"/>
<rect x="259.47" y="211.07" width="91.17" height="6.1" fill="#e58406"/>
<path d="m349.17 124.62v36.82c0 2.21-1.79 4-4 4h-17.51c-2.21 0-4-1.79-4-4v-36.82c0-2.21 1.79-4 4-4h17.51c2.21 0 4 1.79 4 4zm-8 32.82v-28.82h-9.51v28.82z"/>
<rect x="331.27" y="277.04" width="14.21" height="8.35" fill="#e58406"/>
<rect x="331.27" y="244.33" width="14.21" height="8.35" fill="#e58406"/>
<rect x="331.66" y="128.62" width="9.51" height="28.82" fill="#c51162"/>
<path d="m338.83 347.44v29c0 2.21-1.79 4-4 4s-4-1.79-4-4v-29c0-2.21 1.79-4 4-4s4 1.79 4 4z"/>
<rect x="323.09" y="260.68" width="14.21" height="8.36" fill="#e58406"/>
<path d="m324.33 363.44v13c0 2.21-1.79 4-4 4s-4-1.79-4-4v-13c0-2.21 1.79-4 4-4s4 1.79 4 4z"/>
<rect x="286.84" y="277.04" width="36.43" height="8.35" fill="#e58406"/>
<rect x="309.06" y="244.33" width="14.21" height="8.35" fill="#e58406"/>
<path d="m317.81 142.22v19.22c0 2.21-1.79 4-4 4h-17.51c-2.21 0-4-1.79-4-4v-19.22c0-2.21 1.79-4 4-4h17.51c2.21 0 4 1.79 4 4zm-8 15.22v-11.22h-9.51v11.22z"/>
<rect x="300.88" y="260.68" width="14.21" height="8.36" fill="#e58406"/>
<rect x="300.3" y="146.22" width="9.51" height="11.22" fill="#c51162"/>
<rect x="286.84" y="244.33" width="14.22" height="8.35" fill="#e58406"/>
<path d="m292.38 352.58c2.69 0 4.86 2.17 4.86 4.86 0 2.68-2.17 4.85-4.86 4.85-2.68 0-4.85-2.17-4.85-4.85 0-2.69 2.17-4.86 4.85-4.86z"/>
<rect x="278.67" y="260.68" width="14.21" height="8.36" fill="#e58406"/>
<path d="m286.46 76.46v84.98c0 2.21-1.8 4-4 4h-17.52c-2.21 0-4-1.79-4-4v-84.98c0-2.2 1.79-4 4-4h17.52c2.2 0 4 1.8 4 4zm-8 80.98v-76.98h-9.52v76.98z"/>
<rect x="264.63" y="277.04" width="14.21" height="8.35" fill="#e58406"/>
<rect x="264.63" y="244.33" width="14.21" height="8.35" fill="#e58406"/>
<rect x="268.94" y="80.46" width="9.52" height="76.98" fill="#c51162"/>
<rect x="256.46" y="260.68" width="14.21" height="8.36" fill="#e58406"/>
<rect x="242.42" y="277.04" width="14.21" height="8.35" fill="#e58406"/>
<rect x="242.42" y="244.33" width="14.21" height="8.35" fill="#e58406"/>
<path d="m255.1 105.44v56c0 2.21-1.79 4-4 4h-17.51c-2.21 0-4-1.79-4-4v-56c0-2.21 1.79-4 4-4h17.51c2.21 0 4 1.79 4 4zm-8 52v-48h-9.51v48z"/>
<rect x="234.24" y="260.68" width="14.22" height="8.36" fill="#e58406"/>
<rect x="237.59" y="109.44" width="9.51" height="48" fill="#c51162"/>
<rect x="221.59" y="277.04" width="12.83" height="8.35" fill="#e58406"/>
<rect x="221.59" y="244.33" width="12.83" height="8.35" fill="#e58406"/>
<path d="m233.7 382.53c0.35 1 0.29 2.1-0.17 3.06s-1.28 1.69-2.28 2.04l-10.22 3.6v16.33c0 2.21-1.79 4-4 4h-53.78l-27.27 9.6c-0.44 0.16-0.89 0.23-1.33 0.23-1.65 0-3.19-1.03-3.77-2.68l-2.52-7.15h-12.33c-2.21 0-4-1.79-4-4v-42.41l-6.05-17.18c-0.35-1-0.29-2.1 0.17-3.06s1.28-1.69 2.28-2.04l3.6-1.27v-9.04c0-2.2 1.79-4 4-4h33.04l54.63-19.22c2.09-0.73 4.37 0.36 5.1 2.45l5.91 16.77h2.32c2.21 0 4 1.8 4 4v13.97zm-8.88-1.11-22.24-63.21-87.72 30.88 22.24 63.2zm-11.79 22.14v-9.51l-27.05 9.51zm-93-64.78 6.31-2.22h-6.31zm5.52 64.78-5.52-15.68v15.68z"/>
<rect x="221.59" y="260.68" width="4.65" height="8.36" fill="#e58406"/>
<polygon points="137.1 412.29 114.86 349.09 202.58 318.21 224.82 381.42" fill="#f2f2f2"/>
<polygon points="213.03 403.56 185.98 403.56 213.03 394.05" fill="#e6e6e6"/>
<path d="m196.56 227.39v62c0 2.21-1.79 4-4 4h-44c-2.21 0-4-1.79-4-4v-62c0-2.21 1.79-4 4-4h44c2.21 0 4 1.79 4 4zm-8 58v-54h-36v54z"/>
<path d="m188.56 276.49v8.9h-36v-8.9h1.13c0 2.21 1.79 4 4 4h2.07c2.21 0 4-1.79 4-4h1.77c0 2.21 1.79 4 4 4h2.07c2.21 0 4-1.79 4-4h1.76c0 2.21 1.79 4 4 4h2.07c2.21 0 4-1.79 4-4z" fill="#999"/>
<path d="m188.56 265.82v10.67h-1.13c0-2.21-1.79-4-4-4h-2.07c-2.21 0-4 1.79-4 4h-1.76c0-2.21-1.79-4-4-4h-2.07c-2.21 0-4 1.79-4 4h-1.77c0-2.21-1.79-4-4-4h-2.07c-2.21 0-4 1.79-4 4h-1.13v-10.67h1.13c0 2.21 1.79 4 4 4h2.07c2.21 0 4-1.79 4-4h1.77c0 2.21 1.79 4 4 4h2.07c2.21 0 4-1.79 4-4h1.76c0 2.21 1.79 4 4 4h2.07c2.21 0 4-1.79 4-4z" fill="#999"/>
<path d="m188.56 255.16v10.66h-1.13c0-2.21-1.79-4-4-4h-2.07c-2.21 0-4 1.79-4 4h-1.76c0-2.21-1.79-4-4-4h-2.07c-2.21 0-4 1.79-4 4h-1.77c0-2.21-1.79-4-4-4h-2.07c-2.21 0-4 1.79-4 4h-1.13v-10.66h1.13c0 2.21 1.79 4 4 4h2.07c2.21 0 4-1.79 4-4h1.77c0 2.21 1.79 4 4 4h2.07c2.21 0 4-1.79 4-4h1.76c0 2.21 1.79 4 4 4h2.07c2.21 0 4-1.79 4-4z" fill="#999"/>
<path d="m188.56 240.06v15.1h-1.13c0-2.21-1.79-4-4-4h-2.07c-2.21 0-4 1.79-4 4h-1.76c0-2.21-1.79-4-4-4h-2.07c-2.21 0-4 1.79-4 4h-1.77c0-2.21-1.79-4-4-4h-2.07c-2.21 0-4 1.79-4 4h-1.13v-15.1h1.64c0 2.21 1.79 4 4 4h24.72c2.21 0 4-1.79 4-4z" fill="#999"/>
<path d="m188.56 231.39v8.67h-1.64c0-2.21-1.79-4-4-4h-24.72c-2.21 0-4 1.79-4 4h-1.64v-8.67z" fill="#999"/>
<path d="m183.43 251.16c2.21 0 4 1.79 4 4s-1.79 4-4 4h-2.07c-2.21 0-4-1.79-4-4s1.79-4 4-4z"/>
<path d="m183.43 261.82c2.21 0 4 1.79 4 4s-1.79 4-4 4h-2.07c-2.21 0-4-1.79-4-4s1.79-4 4-4z"/>
<path d="m183.43 272.49c2.21 0 4 1.79 4 4s-1.79 4-4 4h-2.07c-2.21 0-4-1.79-4-4s1.79-4 4-4z"/>
<path d="m182.92 236.06c2.21 0 4 1.79 4 4s-1.79 4-4 4h-24.72c-2.21 0-4-1.79-4-4s1.79-4 4-4z"/>
<path d="m171.6 251.16c2.21 0 4 1.79 4 4s-1.79 4-4 4h-2.07c-2.21 0-4-1.79-4-4s1.79-4 4-4z"/>
<path d="m171.6 261.82c2.21 0 4 1.79 4 4s-1.79 4-4 4h-2.07c-2.21 0-4-1.79-4-4s1.79-4 4-4z"/>
<path d="m171.6 272.49c2.21 0 4 1.79 4 4s-1.79 4-4 4h-2.07c-2.21 0-4-1.79-4-4s1.79-4 4-4z"/>
<path d="m159.76 251.16c2.21 0 4 1.79 4 4s-1.79 4-4 4h-2.07c-2.21 0-4-1.79-4-4s1.79-4 4-4z"/>
<path d="m159.76 261.82c2.21 0 4 1.79 4 4s-1.79 4-4 4h-2.07c-2.21 0-4-1.79-4-4s1.79-4 4-4z"/>
<path d="m159.76 272.49c2.21 0 4 1.79 4 4s-1.79 4-4 4h-2.07c-2.21 0-4-1.79-4-4s1.79-4 4-4z"/>
<polygon points="120.03 338.78 120.03 336.56 126.34 336.56" fill="#e6e6e6"/>
<polygon points="125.55 403.56 120.03 403.56 120.03 387.88" fill="#e6e6e6"/>
<path d="m122.53 199.44v23h-82.5c-5.12 0-9.47-3.37-10.96-8h85.46c2.2 0 4-1.79 4-4v-11z" fill="#e58406"/>
<path d="m122.53 168.44v23h-82.5c-5.12 0-9.47-3.37-10.96-8h85.46c2.2 0 4-1.79 4-4v-11z" fill="#e58406"/>
<path d="m122.53 82.44v78h-82.5c-4.3 0-8.28 1.39-11.5 3.76v-70.26c0-6.34 5.15-11.5 11.5-11.5zm-10 33v-17c0-2.21-1.8-4-4-4h-57c-2.21 0-4 1.79-4 4v17c0 2.21 1.79 4 4 4h57c2.2 0 4-1.79 4-4z" fill="#faa639"/>
<path d="m112.53 98.44v17c0 2.21-1.8 4-4 4h-57c-2.21 0-4-1.79-4-4v-17c0-2.21 1.79-4 4-4h57c2.2 0 4 1.79 4 4zm-8 13v-9h-49v9z"/>
<path d="m110.53 199.44v7h-81.09c1.76-4.11 5.84-7 10.59-7z" fill="#f2f2f2"/>
<path d="m110.53 168.44v7h-81.09c1.76-4.11 5.84-7 10.59-7z" fill="#f2f2f2"/>
<rect x="55.53" y="102.44" width="49" height="9" fill="#f2f2f2"/>
<path d="m96.53 286.5c0 0.53-0.06 1.05-0.15 1.57l-6.96 63.98c-0.23 8.12-12.12 12.38-23.86 12.38-11.75 0-23.63-4.26-23.87-12.38l-6.96-63.98c-0.09-0.52-0.14-1.04-0.14-1.57 0-4 2.79-8.02 8.25-10.99l-4.8-20.76c-0.5-2.16 0.84-4.3 3-4.8 2.14-0.5 4.3 0.84 4.8 2.99l4.54 19.65c1.35-0.37 2.79-0.68 4.31-0.94l-2.87-29.05c-0.22-2.2 1.38-4.16 3.58-4.37 2.19-0.22 4.16 1.38 4.38 3.58l2.87 29.04c0.95-0.03 1.91-0.06 2.91-0.06 0.78 0 1.55 0.02 2.31 0.04l1.11-18.34c0.14-2.2 2.05-3.87 4.24-3.75 2.2 0.14 3.88 2.03 3.75 4.24l-1.13 18.57c1.96 0.32 3.79 0.72 5.48 1.2l4.33-28.37c0.33-2.19 2.36-3.69 4.55-3.36 2.19 0.34 3.69 2.38 3.35 4.56l-4.61 30.3c5.01 2.93 7.59 6.79 7.59 10.62zm-8 0c0-0.52-0.33-1.12-0.95-1.76l-0.62 4.1c1.03-0.85 1.57-1.66 1.57-2.34zm-7.08 64.86 5.8-53.33c-5.15 2.53-12.41 4.18-21.69 4.18-9.29 0-16.55-1.65-21.7-4.18l5.8 53.33c0.02 0.15 0.02 0.29 0.02 0.44 0.32 1.36 6.1 4.63 15.88 4.63 9.77 0 15.55-3.27 15.87-4.66 0-0.15 0.01-0.26 0.02-0.41zm-3.17-58.66 1.81-11.87c-1.42-0.45-3-0.85-4.75-1.18l-0.84 13.84c1.35-0.22 2.61-0.49 3.78-0.79zm-11.83 1.49 0.93-15.36c-0.6-0.02-1.2-0.04-1.82-0.04-0.73 0-1.42 0.02-2.12 0.05l1.52 15.36c0.2 0 0.39 0.01 0.6 0.01 0.3 0 0.59-0.01 0.89-0.02zm-9.59-0.66-1.37-13.82c-1.17 0.22-2.27 0.48-3.29 0.76l2.94 12.75c0.56 0.12 1.13 0.22 1.72 0.31zm-10.62-3.32-1.5-6.48c-1.4 1-2.15 1.98-2.15 2.77 0 1.04 1.28 2.41 3.65 3.71z"/>
<path d="m87.58 284.74c0.62 0.64 0.95 1.24 0.95 1.76 0 0.68-0.54 1.49-1.57 2.34z" fill="#faa639"/>
<path d="m87.25 298.03-5.8 53.33c-0.01 0.15-0.02 0.26-0.02 0.41-0.32 1.39-6.1 4.66-15.87 4.66-9.78 0-15.56-3.27-15.88-4.63 0-0.15 0-0.29-0.02-0.44l-5.8-53.33c5.15 2.53 12.41 4.18 21.7 4.18 9.28 0 16.54-1.65 21.69-4.18z" fill="#faa639"/>
<path d="m80.09 280.83-1.81 11.87c-1.17 0.3-2.43 0.57-3.78 0.79l0.84-13.84c1.75 0.33 3.33 0.73 4.75 1.18z" fill="#faa639"/>
<path d="m67.38 278.83-0.93 15.36c-0.3 0.01-0.59 0.02-0.89 0.02-0.21 0-0.4-0.01-0.6-0.01l-1.52-15.36c0.7-0.03 1.39-0.05 2.12-0.05 0.62 0 1.22 0.02 1.82 0.04z" fill="#faa639"/>
<path d="m55.49 279.71 1.37 13.82c-0.59-0.09-1.16-0.19-1.72-0.31l-2.94-12.75c1.02-0.28 2.12-0.54 3.29-0.76z" fill="#faa639"/>
<path d="m44.74 283.73 1.5 6.48c-2.37-1.3-3.65-2.67-3.65-3.71 0-0.79 0.75-1.77 2.15-2.77z" fill="#faa639"/>
</g>
</svg>
