<?xml version="1.0" encoding="UTF-8" standalone="no"?><!DOCTYPE svg PUBLIC "-//W3C//DTD SVG 1.1//EN" "http://www.w3.org/Graphics/SVG/1.1/DTD/svg11.dtd"><svg width="100%" height="100%" viewBox="0 0 240 190" version="1.1" xmlns="http://www.w3.org/2000/svg" xmlns:xlink="http://www.w3.org/1999/xlink" xml:space="preserve" xmlns:serif="http://www.serif.com/" style="fill-rule:evenodd;clip-rule:evenodd;stroke-linejoin:round;stroke-miterlimit:2;"><g id="XMLID_20_"><path d="M215.175,47.607l-0.004,136.657c0,0.877 -0.71,1.587 -1.587,1.587l-187.172,0c-0.877,0 -1.587,-0.71 -1.587,-1.587l0,-136.657c0,-0.873 0.71,-1.587 1.587,-1.587l3.003,0l0,-1.36l0,-0.052c0,-2.253 1.797,-4.257 4.76,-5.403l0,-6.303c0,-2.182 2.468,-3.829 5.737,-3.829c3.268,0 5.736,1.647 5.736,3.829l0,6.303c2.963,1.146 4.76,3.15 4.76,5.403l0,1.412l2.281,0l0,-1.4l0,-0.012c0,-2.253 1.797,-4.257 4.76,-5.403l0,-6.303c0,-2.182 2.468,-3.829 5.737,-3.829c3.268,0 5.732,1.647 5.732,3.829l0,6.303c1.483,0.571 2.673,1.361 3.495,2.285c0.821,0.928 1.269,1.991 1.269,3.118l0,1.412l11.667,0c0.642,-10.274 3.836,-19.898 9.167,-27.423c6.605,-9.315 15.654,-14.448 25.484,-14.448c9.826,0 18.875,5.133 25.48,14.448c5.331,7.525 8.529,17.149 9.171,27.423l11.754,0l0,-1.408l0,-0.004c0,-2.253 1.797,-4.257 4.761,-5.403l0,-6.303c0,-2.182 2.467,-3.829 5.736,-3.829c3.268,0 5.736,1.647 5.736,3.829l0,6.303c2.963,1.146 4.76,3.15 4.76,5.403l0,1.412l2.281,0l0,-1.4l0,-0.012c0,-2.253 1.797,-4.257 4.761,-5.403l0,-6.303c0,-2.182 2.467,-3.829 5.736,-3.829c3.268,0 5.736,1.647 5.736,3.829l0,6.303c2.963,1.146 4.76,3.15 4.76,5.403l0,1.412l2.916,0c0.877,0 1.587,0.714 1.587,1.587Zm-3.174,124.3l0,-11.409l-2.622,0c-0.758,4.403 -4.598,7.763 -9.215,7.763l-10.786,0l-19.942,0l-4.336,0c-0.873,0 -1.587,-0.71 -1.587,-1.586c0,-0.873 0.714,-1.587 1.587,-1.587l2.749,0l0,-0.909l-2.749,0c-0.873,0 -1.587,-0.71 -1.587,-1.586c0,-0.877 0.714,-1.587 1.587,-1.587l2.749,0l0,-0.913l-2.749,0c-0.873,0 -1.587,-0.71 -1.587,-1.586c0,-0.877 0.714,-1.587 1.587,-1.587l2.749,0l0,-1.174c0,-3.412 2.777,-6.189 6.189,-6.189l26.126,0c4.617,0 8.457,3.364 9.215,7.768l2.622,0l0,-8.763l-11.837,0l-31.938,0c-1.718,0 -3.332,-0.675 -4.538,-1.893c-1.21,-1.221 -1.865,-2.84 -1.849,-4.558l0.171,-18.073c0.008,-0.865 -0.321,-1.678 -0.928,-2.293c-0.306,-0.305 -0.659,-0.543 -1.048,-0.706c-0.738,1.9 -2.578,3.253 -4.736,3.253l-17.661,0l0,0.595c0,0.877 -0.71,1.587 -1.587,1.587l-6.704,0c-0.877,0 -1.587,-0.71 -1.587,-1.587l0,-0.595l-41.073,0c-0.877,0 -1.587,-0.71 -1.587,-1.587l0,-6.998c0,-0.876 0.71,-1.586 1.587,-1.586l41.073,0l0,-0.599c0,-0.877 0.71,-1.587 1.587,-1.587l6.704,0c0.877,0 1.587,0.71 1.587,1.587l0,0.599l17.661,0c2.305,0 4.256,1.543 4.875,3.649c1.19,0.262 2.285,0.853 3.162,1.742c1.21,1.222 1.864,2.836 1.848,4.554l-0.17,18.077c-0.008,0.865 0.321,1.678 0.928,2.293c0.607,0.615 1.42,0.952 2.285,0.952l43.775,0l0,-1.277l-24.65,0c-0.496,0 -0.964,-0.234 -1.266,-0.631c-0.297,-0.397 -0.397,-0.909 -0.262,-1.389l4.158,-14.721l-8.779,-0.646l-11.365,1.987c-0.092,0.016 -0.183,0.024 -0.274,0.024c-0.373,0 -0.734,-0.131 -1.024,-0.373c-0.357,-0.302 -0.563,-0.746 -0.563,-1.214l0,-18.085c0,-0.472 0.206,-0.917 0.563,-1.218c0.29,-0.242 0.647,-0.369 1.016,-0.369c0.095,0 0.186,0.008 0.282,0.024l11.361,1.987l18.367,-1.349c2.761,-0.202 5.506,0.762 7.533,2.646c2.027,1.885 3.189,4.554 3.189,7.319c0,4.999 -3.752,9.204 -8.584,9.89l-3.654,12.944l13.952,0l0,-91.743l-1.329,0l0,16.994c0,0.484 -0.095,0.964 -0.258,1.428c0.155,0.425 0.238,0.869 0.238,1.333l0,17.919c0,3.185 -3.863,5.585 -8.985,5.585c-5.121,0 -8.985,-2.4 -8.985,-5.585l0,-1.166c-0.813,0.142 -1.662,0.214 -2.527,0.214c-5.121,0 -8.985,-2.4 -8.985,-5.59l0,-8.267c-1.329,0.345 -2.785,0.528 -4.268,0.528c-5.982,0 -10.497,-2.749 -10.497,-6.403l0,-16.99l-11.639,0c0,0.23 0.012,0.46 0.012,0.686l0,13.039c0.008,9.224 7.513,16.721 16.737,16.721c0.876,0 1.586,0.714 1.586,1.587l0,24.226c0,0.877 -0.71,1.587 -1.586,1.587l-1.96,0l-101.074,0c-0.876,0 -1.586,-0.71 -1.586,-1.587l0,-24.226c0,-0.873 0.71,-1.587 1.586,-1.587c9.208,0 16.705,-7.474 16.737,-16.673l0.004,-13.087c0,-0.226 0.008,-0.456 0.012,-0.686l-11.552,0l0,16.99c0,3.654 -4.514,6.403 -10.496,6.403c-1.484,0 -2.94,-0.183 -4.269,-0.528l0,8.267c0,3.19 -3.864,5.59 -8.985,5.59c-0.865,0 -1.714,-0.072 -2.527,-0.214l0,1.166c0,3.185 -3.864,5.585 -8.985,5.585c-5.121,0 -8.985,-2.4 -8.985,-5.585l0,-17.919c0,-0.464 0.083,-0.908 0.238,-1.333c-0.163,-0.464 -0.258,-0.94 -0.258,-1.428l0,-16.994l-1.416,0l0,122.713l184.002,0Zm-0.004,10.77l0,-7.593l-183.998,0l0,7.593l183.998,0Zm-4.498,-118.048l0,-15.348c-1.865,1.083 -4.419,1.73 -7.323,1.73c-2.904,0 -5.459,-0.647 -7.323,-1.734l0,7.783c3.725,0.679 6.287,2.753 6.287,5.348l0,1.162c0.798,-0.135 1.643,-0.21 2.527,-0.21c2.265,0 4.281,0.472 5.832,1.269Zm-0.02,22.239l0,-13.595c-1.543,0.793 -3.555,1.262 -5.812,1.262c-2.257,0 -4.268,-0.469 -5.811,-1.262l0,13.595c0,0.96 2.316,2.412 5.811,2.412c3.495,0 5.812,-1.452 5.812,-2.412Zm0.02,-42.26c0,-0.639 -0.603,-1.329 -1.587,-1.9l0,0.242c0,2.186 -2.468,3.832 -5.736,3.832c-3.269,0 -5.736,-1.646 -5.736,-3.832l0,-0.242c-0.984,0.571 -1.587,1.261 -1.587,1.9c0,1.972 4.336,3.229 7.323,3.229c2.987,0 7.323,-1.257 7.323,-3.229Zm-0.385,73.495c0,-1.916 -0.774,-3.689 -2.174,-4.994c-1.404,-1.305 -3.233,-1.944 -5.141,-1.805l-17.086,1.254l0,11.095l8.148,0.599l0.893,-3.169c0.194,-0.683 0.817,-1.155 1.527,-1.155l8.601,0c0.495,0 0.963,0.234 1.265,0.631c0.301,0.393 0.397,0.908 0.262,1.388l-0.714,2.527c2.574,-0.98 4.419,-3.475 4.419,-6.371Zm0.365,-49.154c0,-0.964 -2.317,-2.416 -5.812,-2.416c-3.495,0 -5.811,1.452 -5.811,2.416c0,0.96 2.316,2.412 5.811,2.412c3.495,0 5.812,-1.452 5.812,-2.412Zm-1.504,87.959l0.028,0c-0.833,-2.428 -3.134,-4.177 -5.839,-4.177l-9.199,0l0,7.755l11.428,0c1.976,0 3.582,-1.602 3.582,-3.578Zm-5.811,8.18c1.674,0 3.193,-0.671 4.308,-1.758c-0.655,0.215 -1.353,0.33 -2.079,0.33l-11.428,0l0,1.428l9.199,0Zm2.574,-122.225l0,-6.51c-0.765,0.242 -1.63,0.381 -2.562,0.381c-0.932,0 -1.797,-0.139 -2.563,-0.381l0,6.51c0.198,0.246 1.107,0.745 2.563,0.745c1.456,0 2.364,-0.499 2.562,-0.745Zm-0.091,-9.961c-0.313,-0.258 -1.174,-0.655 -2.471,-0.655c-1.297,0 -2.162,0.397 -2.472,0.655c0.31,0.261 1.175,0.658 2.472,0.658c1.297,0 2.158,-0.397 2.471,-0.658Zm-6.149,101.843l3.289,-11.643l-5.304,0l-3.284,11.643l5.299,0Zm-1.749,6.192l0.853,-3.019l-5.3,0l-0.853,3.019l5.3,0Zm1.218,-78.529c0,-0.96 -2.317,-2.412 -5.812,-2.412c-3.491,0 -5.811,1.452 -5.811,2.412c0,0.96 2.32,2.412 5.811,2.412c3.495,0 5.812,-1.452 5.812,-2.412Zm-3.285,6.541c0,-0.412 0.064,-0.813 0.191,-1.194c-0.853,0.155 -1.762,0.238 -2.718,0.238c-2.253,0 -4.264,-0.464 -5.811,-1.257l0,13.59c0,0.964 2.316,2.416 5.811,2.416c0.885,0 1.738,-0.099 2.527,-0.281l0,-13.512Zm-3.003,-12.119l0,-7.636l-2.281,0l0,7.874c0.722,-0.135 1.484,-0.214 2.281,-0.238Zm-1.888,108.258l0,-1.428l-7.224,0l0,1.428l7.224,0Zm0,-4.602l0,-7.755l-7.224,0l0,7.755l7.224,0Zm-3.566,-102.343l0,-8.866c-1.861,1.087 -4.419,1.734 -7.323,1.734c-2.904,0 -5.459,-0.647 -7.323,-1.734l0,16.907c0,1.317 2.852,3.229 7.323,3.229c1.539,0 3.015,-0.234 4.268,-0.67l0,-6.335c0,-1.746 1.162,-3.253 3.055,-4.265Zm0,-13.535c0,-0.639 -0.603,-1.329 -1.587,-1.9l0,0.242c0,2.186 -2.468,3.832 -5.736,3.832c-3.269,0 -5.736,-1.646 -5.736,-3.832l0,-0.242c-0.984,0.571 -1.587,1.261 -1.587,1.9c0,1.972 4.34,3.229 7.323,3.229c2.987,0 7.323,-1.257 7.323,-3.229Zm-4.685,79.184l0,-11.377l-8.39,-1.464l0,14.309l8.39,-1.468Zm-0.076,-80.929l0,-6.51c-0.765,0.242 -1.63,0.381 -2.562,0.381c-0.933,0 -1.797,-0.139 -2.563,-0.381l0,6.51c0.198,0.246 1.107,0.745 2.563,0.745c1.456,0 2.364,-0.499 2.562,-0.745Zm-0.091,-9.961c-0.309,-0.258 -1.174,-0.655 -2.471,-0.655c-1.297,0 -2.158,0.397 -2.472,0.655c0.314,0.261 1.175,0.658 2.472,0.658c1.297,0 2.162,-0.397 2.471,-0.658Zm-1.979,132.186l0,-1.428l-3.356,0c-1.079,0 -2.031,0.571 -2.563,1.428l5.919,0Zm0,-4.602l0,-7.755l-3.356,0c-1.663,0 -3.015,1.353 -3.015,3.015l0,5.53c0.892,-0.5 1.92,-0.79 3.015,-0.79l3.356,0Zm-7.466,-56.62l0,-3.967l0,-11.591c-10.239,-0.813 -18.323,-9.406 -18.323,-19.851l0,-13.043c-0.004,-11.052 -3.099,-21.501 -8.716,-29.427c-5.99,-8.453 -14.118,-13.107 -22.889,-13.107c-8.775,0 -16.903,4.654 -22.893,13.107c-5.605,7.91 -8.696,18.331 -8.712,29.36l-0.004,13.11c0,10.445 -8.084,19.038 -18.323,19.851l0,15.558l99.86,0Zm0,-18.748l0,-2.364c-5.272,-0.42 -9.965,-2.9 -13.285,-6.629c2.554,4.935 7.493,8.446 13.285,8.993Zm-12.718,34.088c0,-1.055 -0.857,-1.912 -1.912,-1.912l-17.661,0l0,3.824l17.661,0c1.055,0 1.912,-0.857 1.912,-1.912Zm-12.936,-96.674c-0.445,-0.714 -0.901,-1.42 -1.385,-2.098c-5.99,-8.454 -14.118,-13.111 -22.889,-13.111c-8.771,0 -16.903,4.657 -22.893,13.111c-0.48,0.678 -0.936,1.38 -1.377,2.09c6.474,-8.283 15.027,-12.817 24.27,-12.817c9.243,0 17.796,4.538 24.274,12.825Zm-9.811,100.768l0,-8.192l-3.53,0l0,8.192l3.53,0Zm-6.704,-2.182l0,-3.824l-39.487,0l0,3.824l39.487,0Zm-57.691,-36c5.792,-0.547 10.731,-4.058 13.285,-8.993c-3.32,3.729 -8.017,6.209 -13.285,6.629l0,2.364Zm0.441,-18.934l0,-16.907c-1.865,1.087 -4.42,1.734 -7.323,1.734c-2.908,0 -5.463,-0.647 -7.323,-1.734l0,8.866c1.892,1.012 3.054,2.519 3.054,4.265l0,6.335c1.254,0.436 2.729,0.67 4.269,0.67c2.983,0 7.323,-1.257 7.323,-3.229Zm0,-21.576c0,-0.639 -0.603,-1.329 -1.591,-1.9l0,0.242c0,2.186 -2.464,3.832 -5.732,3.832c-3.269,0 -5.737,-1.646 -5.737,-3.832l0,-0.242c-0.492,0.285 -0.888,0.599 -1.162,0.924c-0.274,0.325 -0.424,0.659 -0.424,0.976l0,0.008c0.008,1.968 4.339,3.221 7.323,3.221c2.983,0 7.323,-1.257 7.323,-3.229Zm-4.765,-1.745l0,-6.51c-0.761,0.242 -1.626,0.381 -2.558,0.381c-0.937,0 -1.801,-0.139 -2.563,-0.381l0,6.51c0.198,0.246 1.107,0.745 2.563,0.745c1.455,0 2.364,-0.499 2.558,-0.745Zm-0.087,-9.961c-0.313,-0.258 -1.174,-0.655 -2.471,-0.655c-1.298,0 -2.162,0.397 -2.476,0.655c0.314,0.261 1.178,0.658 2.476,0.658c1.297,0 2.158,-0.397 2.471,-0.658Zm-9.913,47.424l0,-13.59c-1.548,0.793 -3.559,1.257 -5.812,1.257c-0.956,0 -1.868,-0.083 -2.717,-0.238c0.123,0.381 0.19,0.782 0.19,1.194l0,13.512c0.79,0.182 1.642,0.281 2.527,0.281c3.491,0 5.812,-1.452 5.812,-2.416Zm0,-17.918c0,-0.96 -2.321,-2.412 -5.812,-2.412c-3.495,0 -5.816,1.452 -5.816,2.412c0,0.96 2.321,2.412 5.816,2.412c3.491,0 5.812,-1.452 5.812,-2.412Zm-3.055,-5.34l0,-7.874l-2.281,0l0,7.636c0.797,0.024 1.559,0.103 2.281,0.238Zm-5.454,-0.008l0,-7.783c-1.865,1.087 -4.42,1.734 -7.323,1.734c-2.904,0 -5.459,-0.647 -7.323,-1.73l0,15.348c1.547,-0.797 3.566,-1.269 5.831,-1.269c0.952,0 1.864,0.083 2.713,0.242c-0.123,-0.385 -0.19,-0.782 -0.19,-1.194c0,-2.595 2.567,-4.669 6.292,-5.348Zm0,-12.444l0,-0.008c0,-0.639 -0.603,-1.329 -1.587,-1.9l0,0.242c0,2.186 -2.468,3.832 -5.736,3.832c-3.269,0 -5.737,-1.646 -5.737,-3.832l0,-0.242c-0.492,0.285 -0.888,0.599 -1.162,0.924c-0.274,0.321 -0.424,0.655 -0.424,0.976l0,0.032c0.043,1.951 4.351,3.197 7.323,3.197c2.983,0 7.315,-1.253 7.323,-3.221Zm-3.003,42.252l0,-13.595c-1.544,0.793 -3.555,1.262 -5.812,1.262c-2.257,0 -4.268,-0.469 -5.812,-1.262l0,13.595c0,0.96 2.317,2.412 5.812,2.412c3.495,0 5.812,-1.452 5.812,-2.412Zm0,-17.919c0,-0.964 -2.317,-2.416 -5.812,-2.416c-3.495,0 -5.812,1.452 -5.812,2.416c0,0.96 2.317,2.412 5.812,2.412c3.495,0 5.812,-1.452 5.812,-2.412Zm-1.758,-26.086l0,-6.51c-0.765,0.242 -1.63,0.381 -2.562,0.381c-0.933,0 -1.797,-0.139 -2.563,-0.381l0,6.51c0.198,0.246 1.107,0.745 2.563,0.745c1.455,0 2.364,-0.499 2.562,-0.745Zm-0.091,-9.961c-0.309,-0.258 -1.174,-0.655 -2.471,-0.655c-1.298,0 -2.162,0.397 -2.472,0.655c0.31,0.261 1.174,0.658 2.472,0.658c1.297,0 2.162,-0.397 2.471,-0.658Z" style="fill-rule:nonzero;"/><path d="M212.001,160.498l0,11.409l-184.002,0l0,-122.713l1.416,0l0,16.994c0,0.488 0.095,0.964 0.258,1.428c-0.155,0.425 -0.238,0.869 -0.238,1.333l0,17.919c0,3.185 3.864,5.585 8.985,5.585c5.121,0 8.985,-2.4 8.985,-5.585l0,-1.166c0.813,0.142 1.662,0.214 2.527,0.214c5.121,0 8.985,-2.4 8.985,-5.59l0,-8.267c1.329,0.345 2.785,0.528 4.269,0.528c5.982,0 10.496,-2.749 10.496,-6.403l0,-16.99l11.552,0c-0.004,0.23 -0.012,0.46 -0.012,0.686l-0.004,13.087c-0.032,9.199 -7.529,16.673 -16.737,16.673c-0.876,0 -1.586,0.714 -1.586,1.587l0,24.226c0,0.877 0.71,1.587 1.586,1.587l101.074,0l0,0.436c-0.369,0 -0.726,0.127 -1.016,0.369c-0.357,0.301 -0.563,0.746 -0.563,1.218l0,18.085c0,0.468 0.206,0.912 0.563,1.214c0.29,0.242 0.651,0.373 1.024,0.373c0.091,0 0.182,-0.008 0.274,-0.024l11.365,-1.987l8.779,0.646l-4.158,14.721c-0.135,0.48 -0.035,0.992 0.262,1.389c0.302,0.397 0.77,0.631 1.266,0.631l24.65,0l0,1.277l-43.775,0c-0.865,0 -1.678,-0.337 -2.285,-0.952c-0.607,-0.615 -0.936,-1.428 -0.928,-2.293l0.17,-18.077c0.016,-1.718 -0.638,-3.332 -1.848,-4.554c-0.877,-0.889 -1.972,-1.48 -3.162,-1.742c-0.619,-2.106 -2.57,-3.649 -4.875,-3.649l-17.661,0l0,-0.599c0,-0.877 -0.71,-1.587 -1.587,-1.587l-6.704,0c-0.877,0 -1.587,0.71 -1.587,1.587l0,0.599l-41.073,0c-0.877,0 -1.587,0.71 -1.587,1.586l0,6.998c0,0.877 0.71,1.587 1.587,1.587l41.073,0l0,0.595c0,0.877 0.71,1.587 1.587,1.587l6.704,0c0.877,0 1.587,-0.71 1.587,-1.587l0,-0.595l17.661,0c2.158,0 3.998,-1.353 4.736,-3.253c0.389,0.163 0.742,0.401 1.048,0.706c0.607,0.615 0.936,1.428 0.928,2.293l-0.171,18.073c-0.016,1.718 0.639,3.337 1.849,4.558c1.206,1.218 2.82,1.893 4.538,1.893l31.938,0l0,0.995l-10.786,0l-15.34,0c-3.412,0 -6.189,2.777 -6.189,6.189l0,1.174l-2.749,0c-0.873,0 -1.587,0.71 -1.587,1.587c0,0.876 0.714,1.586 1.587,1.586l2.749,0l0,0.913l-2.749,0c-0.873,0 -1.587,0.71 -1.587,1.587c0,0.876 0.714,1.586 1.587,1.586l2.749,0l0,0.909l-2.749,0c-0.873,0 -1.587,0.714 -1.587,1.587c0,0.876 0.714,1.586 1.587,1.586l35.064,0c4.617,0 8.457,-3.36 9.215,-7.763l2.622,0Zm-50.138,2.579l0,-8.7c0,-0.873 -0.71,-1.587 -1.587,-1.587c-0.876,0 -1.586,0.714 -1.586,1.587l0,8.7c0,0.991 -0.599,1.84 -1.452,2.213l0,-10.381c0,-0.877 -0.71,-1.587 -1.587,-1.587c-0.877,0 -1.587,0.71 -1.587,1.587l0,10.576l-1.722,0l0,-10.576c0,-0.877 -0.71,-1.587 -1.586,-1.587c-0.877,0 -1.587,0.71 -1.587,1.587l0,10.576l-1.718,0l0,-10.576c0,-0.877 -0.71,-1.587 -1.587,-1.587c-0.876,0 -1.586,0.71 -1.586,1.587l0,10.576l-1.718,0l0,-10.576c0,-0.877 -0.71,-1.587 -1.587,-1.587c-0.877,0 -1.587,0.71 -1.587,1.587l0,10.576l-1.721,0l0,-10.576c0,-0.877 -0.71,-1.587 -1.587,-1.587c-0.877,0 -1.587,0.71 -1.587,1.587l0,10.576l-1.717,0l0,-10.576c0,-0.877 -0.711,-1.587 -1.587,-1.587c-0.877,0 -1.587,0.71 -1.587,1.587l0,10.576l-1.718,0l0,-10.576c0,-0.877 -0.71,-1.587 -1.586,-1.587c-0.877,0 -1.587,0.71 -1.587,1.587l0,10.576l-1.722,0l0,-10.576c0,-0.877 -0.71,-1.587 -1.587,-1.587c-0.876,0 -1.586,0.71 -1.586,1.587l0,10.242c-0.711,-0.42 -1.191,-1.19 -1.191,-2.074l0,-8.7c0,-0.873 -0.71,-1.587 -1.586,-1.587c-0.877,0 -1.587,0.714 -1.587,1.587l0,8.7c0,3.078 2.503,5.581 5.581,5.581l35.251,0c3.078,0 5.581,-2.503 5.581,-5.581Zm-12.02,-19.363l0,-10.048c0,-2.182 -2.463,-3.828 -5.732,-3.828c-3.273,0 -5.736,1.646 -5.736,3.828l0,10.048c0,2.182 2.463,3.828 5.736,3.828c3.269,0 5.732,-1.646 5.732,-3.828Zm-14.082,0l0,-10.048c0,-2.182 -2.464,-3.828 -5.733,-3.828c-3.272,0 -5.736,1.646 -5.736,3.828l0,10.048c0,2.182 2.464,3.828 5.736,3.828c3.269,0 5.733,-1.646 5.733,-3.828Zm-14.083,0l0,-10.048c0,-2.182 -2.463,-3.828 -5.732,-3.828c-3.273,0 -5.736,1.646 -5.736,3.828l0,10.048c0,2.182 2.463,3.828 5.736,3.828c3.269,0 5.732,-1.646 5.732,-3.828Zm-14.083,0l0,-10.048c0,-2.182 -2.463,-3.828 -5.732,-3.828c-3.273,0 -5.736,1.646 -5.736,3.828l0,10.048c0,2.182 2.463,3.828 5.736,3.828c3.269,0 5.732,-1.646 5.732,-3.828Zm-2.737,19.244l0,-8.581c0,-0.873 -0.71,-1.587 -1.587,-1.587c-0.872,0 -1.586,0.714 -1.586,1.587l0,8.581c0,1.011 -0.595,1.88 -1.452,2.285l0,-10.334c0,-0.877 -0.71,-1.587 -1.587,-1.587c-0.877,0 -1.587,0.71 -1.587,1.587l0,10.576l-1.721,0l0,-10.576c0,-0.877 -0.711,-1.587 -1.587,-1.587c-0.873,0 -1.587,0.71 -1.587,1.587l0,10.576l-1.718,0l0,-10.576c0,-0.877 -0.71,-1.587 -1.586,-1.587c-0.877,0 -1.587,0.71 -1.587,1.587l0,10.536c-0.976,-0.187 -1.718,-1.043 -1.718,-2.075l0,-8.461c0,-0.877 -0.71,-1.587 -1.587,-1.587c-0.876,0 -1.586,0.71 -1.586,1.587l0,8.461c0,0.754 0.158,1.468 0.444,2.115l-22.794,0c-0.873,0 -1.587,0.714 -1.587,1.586c0,0.877 0.714,1.587 1.587,1.587l39.126,0c3.146,0 5.7,-2.555 5.7,-5.7Zm-11.345,-19.244l0,-10.048c0,-2.182 -2.464,-3.828 -5.732,-3.828c-3.273,0 -5.737,1.646 -5.737,3.828l0,10.048c0,2.182 2.464,3.828 5.737,3.828c3.268,0 5.732,-1.646 5.732,-3.828Zm-13.313,6.541c0,-0.876 -0.71,-1.586 -1.587,-1.586l-19.981,0l11.888,-16.606c0.508,-0.714 0.346,-1.702 -0.369,-2.213c-0.71,-0.512 -1.701,-0.346 -2.213,0.364l-13.21,18.455l-5.454,0c0.388,-0.905 0.515,-1.904 0.353,-2.9c-0.231,-1.373 -0.98,-2.579 -2.115,-3.388c-2.336,-1.678 -5.605,-1.134 -7.279,1.206c-0.433,0.599 -0.714,1.265 -0.857,1.948l-5.625,0c-0.877,0 -1.587,0.71 -1.587,1.587c0,0.876 0.71,1.586 1.587,1.586l5.946,0c0.365,0.837 0.948,1.591 1.742,2.158c0.817,0.583 1.761,0.913 2.737,0.964c0.016,0.004 0.262,0.012 0.262,0.012l8.021,0c0,0 -4.114,5.748 -4.169,5.824c-0.814,1.134 -1.135,2.515 -0.909,3.891c0.23,1.377 0.98,2.579 2.115,3.392c0.916,0.658 1.975,0.972 3.03,0.972c1.627,0 3.233,-0.758 4.249,-2.178c0.658,-0.92 0.972,-1.979 0.972,-3.031c0,-1.626 -0.758,-3.233 -2.178,-4.252c-0.587,-0.421 -1.238,-0.702 -1.904,-0.849l2.697,-3.769l22.251,0c0.877,0 1.587,-0.71 1.587,-1.587Zm-16.721,-38.848c0.504,-0.714 0.333,-1.706 -0.385,-2.209c-2.229,-1.575 -3.693,-3.999 -4.078,-6.665l1.643,0c0.876,0 1.586,-0.71 1.586,-1.587l0,-4.45c0,-0.877 -0.71,-1.587 -1.586,-1.587l-8.549,0c-0.869,-1.345 -2.84,-2.242 -5.252,-2.242c-3.269,0 -5.737,1.647 -5.737,3.829l0,7.426c-6.105,3.475 -10.143,12.178 -10.143,22.103c0,6.76 7.121,12.262 15.88,12.262c8.759,0 15.883,-5.502 15.883,-12.262c0,-6.565 -1.769,-12.599 -4.736,-16.934l0.289,-0.207c0.818,1.107 1.817,2.091 2.972,2.908c0.277,0.194 0.599,0.29 0.912,0.29c0.5,0 0.992,-0.234 1.301,-0.675Z" style="fill:#fde2bf;fill-rule:nonzero;"/><path d="M212.001,148.562l0,8.763l-2.622,0c-0.758,-4.404 -4.598,-7.768 -9.215,-7.768l0,-0.995l11.837,0Z" style="fill:#fde2bf;fill-rule:nonzero;"/><path d="M212.001,49.194l0,91.743l-13.952,0l3.654,-12.944c4.832,-0.686 8.584,-4.891 8.584,-9.89c0,-2.765 -1.162,-5.434 -3.189,-7.319c-2.027,-1.884 -4.772,-2.848 -7.533,-2.646l-18.367,1.349l-11.361,-1.987c-0.096,-0.016 -0.187,-0.024 -0.282,-0.024l0,-0.436l1.96,0c0.876,0 1.586,-0.71 1.586,-1.587l0,-24.226c0,-0.873 -0.71,-1.587 -1.586,-1.587c-9.224,0 -16.729,-7.497 -16.737,-16.721l0,-13.039c0,-0.226 -0.012,-0.456 -0.012,-0.686l11.639,0l0,16.99c0,3.654 4.515,6.403 10.497,6.403c1.483,0 2.939,-0.183 4.268,-0.528l0,8.267c0,3.19 3.864,5.59 8.985,5.59c0.865,0 1.714,-0.072 2.527,-0.214l0,1.166c0,3.185 3.864,5.585 8.985,5.585c5.122,0 8.985,-2.4 8.985,-5.585l0,-17.919c0,-0.464 -0.083,-0.908 -0.238,-1.333c0.163,-0.464 0.258,-0.944 0.258,-1.428l0,-16.994l1.329,0Z" style="fill:#fde2bf;fill-rule:nonzero;"/><rect x="27.999" y="175.084" width="183.998" height="7.593" style="fill:#fcd29b;"/><path d="M207.499,49.281l0,15.348c-1.551,-0.797 -3.567,-1.269 -5.832,-1.269c-0.884,0 -1.729,0.075 -2.527,0.21l0,-1.131l0,-0.031c0,-2.595 -2.562,-4.669 -6.287,-5.348l0,-7.783c1.864,1.087 4.419,1.734 7.323,1.734c2.904,0 5.458,-0.647 7.323,-1.73Z" style="fill:#f2f2f2;fill-rule:nonzero;"/><path d="M207.479,73.273l0,13.595c0,0.96 -2.317,2.412 -5.812,2.412c-3.495,0 -5.811,-1.452 -5.811,-2.412l0,-13.595c1.543,0.793 3.554,1.262 5.811,1.262c2.257,0 4.269,-0.469 5.812,-1.262Z" style="fill:#f13c63;fill-rule:nonzero;"/><path d="M205.912,42.708c0.984,0.571 1.587,1.261 1.587,1.9c0,1.972 -4.336,3.229 -7.323,3.229c-2.987,0 -7.323,-1.257 -7.323,-3.229c0,-0.639 0.603,-1.329 1.587,-1.9l0,0.242c0,2.186 2.467,3.832 5.736,3.832c3.268,0 5.736,-1.646 5.736,-3.832l0,-0.242Z" style="fill:#f2f2f2;fill-rule:nonzero;"/><path d="M204.94,113.109c1.4,1.305 2.174,3.078 2.174,4.994c0,2.896 -1.845,5.391 -4.419,6.371l0.714,-2.527c0.135,-0.48 0.039,-0.995 -0.262,-1.388c-0.302,-0.397 -0.77,-0.631 -1.265,-0.631l-8.601,0c-0.71,0 -1.333,0.472 -1.527,1.155l-0.893,3.169l-8.148,-0.599l0,-11.095l17.086,-1.254c1.908,-0.139 3.737,0.5 5.141,1.805Z" style="fill:#faa639;fill-rule:nonzero;"/><path d="M201.667,66.533c3.495,0 5.812,1.452 5.812,2.416c0,0.96 -2.317,2.412 -5.812,2.412c-3.495,0 -5.811,-1.452 -5.811,-2.412c0,-0.964 2.316,-2.416 5.811,-2.416Z" style="fill:#c51162;fill-rule:nonzero;"/><path d="M206.003,156.908l-0.028,0c0,1.976 -1.606,3.578 -3.582,3.578l-11.428,0l0,-7.755l9.199,0c2.705,0 5.006,1.749 5.839,4.177Z" style="fill:#f13c63;fill-rule:nonzero;"/><path d="M204.472,163.33c-1.115,1.087 -2.634,1.758 -4.308,1.758l-9.199,0l0,-1.428l11.428,0c0.726,0 1.424,-0.115 2.079,-0.33Z" style="fill:#c51162;fill-rule:nonzero;"/><path d="M202.738,36.353l0,6.51c-0.198,0.246 -1.106,0.745 -2.562,0.745c-1.456,0 -2.365,-0.499 -2.563,-0.745l0,-6.51c0.766,0.242 1.631,0.381 2.563,0.381c0.932,0 1.797,-0.139 2.562,-0.381Z" style="fill:#f2f2f2;fill-rule:nonzero;"/><path d="M200.176,32.247c1.297,0 2.158,0.397 2.471,0.655c-0.313,0.261 -1.174,0.658 -2.471,0.658c-1.297,0 -2.162,-0.397 -2.472,-0.658c0.31,-0.258 1.175,-0.655 2.472,-0.655Z" style="fill:#f2f2f2;fill-rule:nonzero;"/><path d="M199.787,123.102l-3.289,11.643l-5.299,0l3.284,-11.643l5.304,0Z" style="fill:#faa639;fill-rule:nonzero;"/><path d="M195.602,137.918l-0.853,3.019l-5.3,0l0.853,-3.019l5.3,0Z" style="fill:#faa639;fill-rule:nonzero;"/><path d="M190.155,59.996c3.495,0 5.812,1.452 5.812,2.412c0,0.96 -2.317,2.412 -5.812,2.412c-3.491,0 -5.811,-1.452 -5.811,-2.412c0,-0.96 2.32,-2.412 5.811,-2.412Z" style="fill:#c51162;fill-rule:nonzero;"/><path d="M192.873,67.755c-0.127,0.381 -0.191,0.782 -0.191,1.194l0,13.512c-0.789,0.182 -1.642,0.281 -2.527,0.281c-3.495,0 -5.811,-1.452 -5.811,-2.416l0,-13.59c1.547,0.793 3.558,1.257 5.811,1.257c0.956,0 1.865,-0.083 2.718,-0.238Z" style="fill:#f13c63;fill-rule:nonzero;"/><path d="M189.679,49.194l0,7.636c-0.797,0.024 -1.559,0.103 -2.281,0.238l0,-7.874l2.281,0Z" style="fill:#fde2bf;fill-rule:nonzero;"/><rect x="180.567" y="163.66" width="7.224" height="1.428" style="fill:#c51162;"/><rect x="180.567" y="152.731" width="7.224" height="7.755" style="fill:#f13c63;"/><path d="M184.225,49.277l0,8.866c-1.893,1.012 -3.055,2.519 -3.055,4.265l0,6.335c-1.253,0.436 -2.729,0.67 -4.268,0.67c-4.471,0 -7.323,-1.912 -7.323,-3.229l0,-16.907c1.864,1.087 4.419,1.734 7.323,1.734c2.904,0 5.462,-0.647 7.323,-1.734Z" style="fill:#faa639;fill-rule:nonzero;"/><path d="M182.638,42.708c0.984,0.571 1.587,1.261 1.587,1.9c0,1.972 -4.336,3.229 -7.323,3.229c-2.983,0 -7.323,-1.257 -7.323,-3.229c0,-0.639 0.603,-1.329 1.587,-1.9l0,0.242c0,2.186 2.467,3.832 5.736,3.832c3.268,0 5.736,-1.646 5.736,-3.832l0,-0.242Z" style="fill:#e58406;fill-rule:nonzero;"/><path d="M179.54,112.415l0,11.377l-8.39,1.468l0,-14.309l8.39,1.464Z" style="fill:#faa639;fill-rule:nonzero;"/><path d="M179.464,36.353l0,6.51c-0.198,0.246 -1.106,0.745 -2.562,0.745c-1.456,0 -2.365,-0.499 -2.563,-0.745l0,-6.51c0.766,0.242 1.63,0.381 2.563,0.381c0.932,0 1.797,-0.139 2.562,-0.381Z" style="fill:#f2f2f2;fill-rule:nonzero;"/><path d="M176.902,32.247c1.297,0 2.162,0.397 2.471,0.655c-0.309,0.261 -1.174,0.658 -2.471,0.658c-1.297,0 -2.158,-0.397 -2.472,-0.658c0.314,-0.258 1.175,-0.655 2.472,-0.655Z" style="fill:#f2f2f2;fill-rule:nonzero;"/><path d="M177.394,163.66l0,1.428l-5.919,0c0.532,-0.857 1.484,-1.428 2.563,-1.428l3.356,0Z" style="fill:#c51162;fill-rule:nonzero;"/><path d="M177.394,152.731l0,7.755l-3.356,0c-1.095,0 -2.123,0.29 -3.015,0.79l0,-5.53c0,-1.662 1.352,-3.015 3.015,-3.015l3.356,0Z" style="fill:#f13c63;fill-rule:nonzero;"/><path d="M169.928,99.899l0,3.967l-99.86,0l0,-15.558c10.239,-0.813 18.323,-9.406 18.323,-19.851l0.004,-13.11c0.016,-11.029 3.107,-21.45 8.712,-29.36c5.99,-8.453 14.118,-13.107 22.893,-13.107c8.771,0 16.899,4.654 22.889,13.107c5.617,7.926 8.712,18.375 8.716,29.427l0,13.043c0,10.445 8.084,19.038 18.323,19.851l0,11.591Zm-21.719,-44.465c0,-21.592 -12.655,-39.158 -28.209,-39.158c-15.558,0 -28.213,17.566 -28.213,39.158c0,21.592 12.655,39.157 28.213,39.157c15.554,0 28.209,-17.565 28.209,-39.157Z" style="fill:#faa639;fill-rule:nonzero;"/><path d="M169.928,82.754l0,2.364c-5.792,-0.547 -10.731,-4.058 -13.285,-8.993c3.32,3.729 8.013,6.209 13.285,6.629Z" style="fill:#e58406;fill-rule:nonzero;"/><path d="M161.863,154.377l0,8.7c0,3.078 -2.503,5.581 -5.581,5.581l-35.251,0c-3.078,0 -5.581,-2.503 -5.581,-5.581l0,-8.7c0,-0.873 0.71,-1.587 1.587,-1.587c0.876,0 1.586,0.714 1.586,1.587l0,8.7c0,0.884 0.48,1.654 1.191,2.074l0,-10.242c0,-0.877 0.71,-1.587 1.586,-1.587c0.877,0 1.587,0.71 1.587,1.587l0,10.576l1.722,0l0,-10.576c0,-0.877 0.71,-1.587 1.587,-1.587c0.876,0 1.586,0.71 1.586,1.587l0,10.576l1.718,0l0,-10.576c0,-0.877 0.71,-1.587 1.587,-1.587c0.876,0 1.587,0.71 1.587,1.587l0,10.576l1.717,0l0,-10.576c0,-0.877 0.71,-1.587 1.587,-1.587c0.877,0 1.587,0.71 1.587,1.587l0,10.576l1.721,0l0,-10.576c0,-0.877 0.71,-1.587 1.587,-1.587c0.877,0 1.587,0.71 1.587,1.587l0,10.576l1.718,0l0,-10.576c0,-0.877 0.71,-1.587 1.586,-1.587c0.877,0 1.587,0.71 1.587,1.587l0,10.576l1.718,0l0,-10.576c0,-0.877 0.71,-1.587 1.587,-1.587c0.876,0 1.586,0.71 1.586,1.587l0,10.576l1.722,0l0,-10.576c0,-0.877 0.71,-1.587 1.587,-1.587c0.877,0 1.587,0.71 1.587,1.587l0,10.381c0.853,-0.373 1.452,-1.222 1.452,-2.213l0,-8.7c0,-0.873 0.71,-1.587 1.586,-1.587c0.877,0 1.587,0.714 1.587,1.587Z" style="fill-rule:nonzero;"/><path d="M155.298,117.294c1.055,0 1.912,0.857 1.912,1.912c0,1.055 -0.857,1.912 -1.912,1.912l-17.661,0l0,-3.824l17.661,0Z" style="fill:#f13c63;fill-rule:nonzero;"/><path d="M149.843,133.666l0,10.048c0,2.182 -2.463,3.828 -5.732,3.828c-3.273,0 -5.736,-1.646 -5.736,-3.828l0,-10.048c0,-2.182 2.463,-3.828 5.736,-3.828c3.269,0 5.732,1.646 5.732,3.828Zm-3.173,9.961l0,-6.514c-0.762,0.242 -1.627,0.381 -2.559,0.381c-0.936,0 -1.801,-0.139 -2.563,-0.381l0,6.514c0.199,0.246 1.107,0.742 2.563,0.742c1.456,0 2.364,-0.496 2.559,-0.742Zm-0.088,-9.961c-0.313,-0.262 -1.174,-0.655 -2.471,-0.655c-1.297,0 -2.162,0.393 -2.475,0.655c0.313,0.262 1.178,0.654 2.475,0.654c1.297,0 2.158,-0.392 2.471,-0.654Z" style="fill-rule:nonzero;"/><path d="M146.67,137.113l0,6.514c-0.195,0.246 -1.103,0.742 -2.559,0.742c-1.456,0 -2.364,-0.496 -2.563,-0.742l0,-6.514c0.762,0.242 1.627,0.381 2.563,0.381c0.932,0 1.797,-0.139 2.559,-0.381Z" style="fill:#f13c63;fill-rule:nonzero;"/><path d="M144.111,133.011c1.297,0 2.158,0.393 2.471,0.655c-0.313,0.262 -1.174,0.654 -2.471,0.654c-1.297,0 -2.162,-0.392 -2.475,-0.654c0.313,-0.262 1.178,-0.655 2.475,-0.655Z" style="fill:#c51162;fill-rule:nonzero;"/><path d="M142.889,20.434c0.484,0.678 0.94,1.384 1.385,2.098c-6.478,-8.287 -15.031,-12.825 -24.274,-12.825c-9.243,0 -17.796,4.534 -24.27,12.817c0.441,-0.71 0.897,-1.412 1.377,-2.09c5.99,-8.454 14.122,-13.111 22.893,-13.111c8.771,0 16.899,4.657 22.889,13.111Z" style="fill:#e58406;fill-rule:nonzero;"/><path d="M142.945,56.862c0.623,0.619 0.623,1.622 0,2.241l-27.372,27.372c-0.31,0.309 -0.714,0.464 -1.119,0.464c-0.408,0 -0.813,-0.155 -1.122,-0.464c-0.619,-0.619 -0.619,-1.622 0,-2.241l27.371,-27.372c0.619,-0.623 1.623,-0.623 2.242,0Z" style="fill-rule:nonzero;"/><path d="M120,16.276c15.554,0 28.209,17.566 28.209,39.158c0,21.592 -12.655,39.157 -28.209,39.157c-15.558,0 -28.213,-17.565 -28.213,-39.157c0,-21.592 12.655,-39.158 28.213,-39.158Zm25.035,39.158c0,-19.843 -11.234,-35.984 -25.035,-35.984c-13.805,0 -25.039,16.141 -25.039,35.984c0,19.842 11.234,35.984 25.039,35.984c13.801,0 25.035,-16.142 25.035,-35.984Z" style="fill-rule:nonzero;"/><path d="M120,19.45c13.801,0 25.035,16.141 25.035,35.984c0,19.842 -11.234,35.984 -25.035,35.984c-13.805,0 -25.039,-16.142 -25.039,-35.984c0,-19.843 11.234,-35.984 25.039,-35.984Zm22.945,39.653c0.623,-0.619 0.623,-1.622 0,-2.241c-0.619,-0.623 -1.623,-0.623 -2.242,0l-27.371,27.372c-0.619,0.619 -0.619,1.622 0,2.241c0.309,0.309 0.714,0.464 1.122,0.464c0.405,0 0.809,-0.155 1.119,-0.464l27.372,-27.372Zm-6.744,-23.405c0.623,-0.619 0.623,-1.622 0,-2.241c-0.619,-0.623 -1.623,-0.623 -2.241,0l-34.909,34.909c-0.619,0.619 -0.619,1.622 0,2.241c0.309,0.31 0.714,0.464 1.122,0.464c0.405,0 0.81,-0.154 1.119,-0.464l34.909,-34.909Zm-6.347,-6.347c0.623,-0.619 0.623,-1.622 0,-2.241c-0.619,-0.623 -1.623,-0.623 -2.241,0l-28.562,28.562c-0.619,0.619 -0.619,1.622 0,2.241c0.309,0.31 0.714,0.464 1.122,0.464c0.405,0 0.81,-0.154 1.119,-0.464l28.562,-28.562Z" style="fill:#e6e6e6;fill-rule:nonzero;"/><path d="M136.201,33.457c0.623,0.619 0.623,1.622 0,2.241l-34.909,34.909c-0.309,0.31 -0.714,0.464 -1.119,0.464c-0.408,0 -0.813,-0.154 -1.122,-0.464c-0.619,-0.619 -0.619,-1.622 0,-2.241l34.909,-34.909c0.618,-0.623 1.622,-0.623 2.241,0Z" style="fill-rule:nonzero;"/><path d="M135.761,133.666l0,10.048c0,2.182 -2.464,3.828 -5.733,3.828c-3.272,0 -5.736,-1.646 -5.736,-3.828l0,-10.048c0,-2.182 2.464,-3.828 5.736,-3.828c3.269,0 5.733,1.646 5.733,3.828Zm-3.174,9.961l0,-6.514c-0.762,0.242 -1.626,0.381 -2.559,0.381c-0.936,0 -1.801,-0.139 -2.562,-0.381l0,6.514c0.198,0.246 1.107,0.742 2.562,0.742c1.456,0 2.365,-0.496 2.559,-0.742Zm-0.087,-9.961c-0.314,-0.262 -1.174,-0.655 -2.472,-0.655c-1.297,0 -2.162,0.393 -2.475,0.655c0.313,0.262 1.178,0.654 2.475,0.654c1.298,0 2.158,-0.392 2.472,-0.654Z" style="fill-rule:nonzero;"/><rect x="130.933" y="115.108" width="3.531" height="8.192" style="fill:#f13c63;"/><path d="M132.587,137.113l0,6.514c-0.194,0.246 -1.103,0.742 -2.559,0.742c-1.455,0 -2.364,-0.496 -2.562,-0.742l0,-6.514c0.761,0.242 1.626,0.381 2.562,0.381c0.933,0 1.797,-0.139 2.559,-0.381Z" style="fill:#f13c63;fill-rule:nonzero;"/><path d="M130.028,133.011c1.298,0 2.158,0.393 2.472,0.655c-0.314,0.262 -1.174,0.654 -2.472,0.654c-1.297,0 -2.162,-0.392 -2.475,-0.654c0.313,-0.262 1.178,-0.655 2.475,-0.655Z" style="fill:#c51162;fill-rule:nonzero;"/><path d="M129.854,27.11c0.623,0.619 0.623,1.622 0,2.241l-28.562,28.562c-0.309,0.31 -0.714,0.464 -1.119,0.464c-0.408,0 -0.813,-0.154 -1.122,-0.464c-0.619,-0.619 -0.619,-1.622 0,-2.241l28.562,-28.562c0.618,-0.623 1.622,-0.623 2.241,0Z" style="fill-rule:nonzero;"/><rect x="88.272" y="117.294" width="39.487" height="3.824" style="fill:#808080;"/><path d="M121.678,133.666l0,10.048c0,2.182 -2.463,3.828 -5.732,3.828c-3.273,0 -5.736,-1.646 -5.736,-3.828l0,-10.048c0,-2.182 2.463,-3.828 5.736,-3.828c3.269,0 5.732,1.646 5.732,3.828Zm-3.174,9.961l0,-6.514c-0.761,0.242 -1.626,0.381 -2.558,0.381c-0.936,0 -1.801,-0.139 -2.563,-0.381l0,6.514c0.198,0.246 1.107,0.742 2.563,0.742c1.456,0 2.364,-0.496 2.558,-0.742Zm-0.087,-9.961c-0.313,-0.262 -1.174,-0.655 -2.471,-0.655c-1.297,0 -2.162,0.393 -2.476,0.655c0.314,0.262 1.179,0.654 2.476,0.654c1.297,0 2.158,-0.392 2.471,-0.654Z" style="fill-rule:nonzero;"/><path d="M118.504,137.113l0,6.514c-0.194,0.246 -1.102,0.742 -2.558,0.742c-1.456,0 -2.365,-0.496 -2.563,-0.742l0,-6.514c0.762,0.242 1.627,0.381 2.563,0.381c0.932,0 1.797,-0.139 2.558,-0.381Z" style="fill:#f13c63;fill-rule:nonzero;"/><path d="M115.946,133.011c1.297,0 2.158,0.393 2.471,0.655c-0.313,0.262 -1.174,0.654 -2.471,0.654c-1.297,0 -2.162,-0.392 -2.476,-0.654c0.314,-0.262 1.179,-0.655 2.476,-0.655Z" style="fill:#c51162;fill-rule:nonzero;"/><path d="M107.595,133.666l0,10.048c0,2.182 -2.463,3.828 -5.732,3.828c-3.273,0 -5.736,-1.646 -5.736,-3.828l0,-10.048c0,-2.182 2.463,-3.828 5.736,-3.828c3.269,0 5.732,1.646 5.732,3.828Zm-3.173,9.961l0,-6.514c-0.762,0.242 -1.627,0.381 -2.559,0.381c-0.936,0 -1.801,-0.139 -2.562,-0.381l0,6.514c0.198,0.246 1.106,0.742 2.562,0.742c1.456,0 2.364,-0.496 2.559,-0.742Zm-0.087,-9.961c-0.314,-0.262 -1.175,-0.655 -2.472,-0.655c-1.297,0 -2.162,0.393 -2.475,0.655c0.313,0.262 1.178,0.654 2.475,0.654c1.297,0 2.158,-0.392 2.472,-0.654Z" style="fill-rule:nonzero;"/><path d="M104.858,154.377l0,8.581c0,3.145 -2.554,5.7 -5.7,5.7l-39.126,0c-0.873,0 -1.587,-0.71 -1.587,-1.587c0,-0.872 0.714,-1.586 1.587,-1.586l22.794,0c-0.286,-0.647 -0.444,-1.361 -0.444,-2.115l0,-8.461c0,-0.877 0.71,-1.587 1.586,-1.587c0.877,0 1.587,0.71 1.587,1.587l0,8.461c0,1.032 0.742,1.888 1.718,2.075l0,-10.536c0,-0.877 0.71,-1.587 1.587,-1.587c0.876,0 1.586,0.71 1.586,1.587l0,10.576l1.718,0l0,-10.576c0,-0.877 0.714,-1.587 1.587,-1.587c0.876,0 1.587,0.71 1.587,1.587l0,10.576l1.721,0l0,-10.576c0,-0.877 0.71,-1.587 1.587,-1.587c0.877,0 1.587,0.71 1.587,1.587l0,10.334c0.857,-0.405 1.452,-1.274 1.452,-2.285l0,-8.581c0,-0.873 0.714,-1.587 1.586,-1.587c0.877,0 1.587,0.714 1.587,1.587Z" style="fill-rule:nonzero;"/><path d="M104.422,137.113l0,6.514c-0.195,0.246 -1.103,0.742 -2.559,0.742c-1.456,0 -2.364,-0.496 -2.562,-0.742l0,-6.514c0.761,0.242 1.626,0.381 2.562,0.381c0.932,0 1.797,-0.139 2.559,-0.381Z" style="fill:#f13c63;fill-rule:nonzero;"/><path d="M101.863,133.011c1.297,0 2.158,0.393 2.472,0.655c-0.314,0.262 -1.175,0.654 -2.472,0.654c-1.297,0 -2.162,-0.392 -2.475,-0.654c0.313,-0.262 1.178,-0.655 2.475,-0.655Z" style="fill:#c51162;fill-rule:nonzero;"/><path d="M93.513,133.666l0,10.048c0,2.182 -2.464,3.828 -5.732,3.828c-3.273,0 -5.737,-1.646 -5.737,-3.828l0,-10.048c0,-2.182 2.464,-3.828 5.737,-3.828c3.268,0 5.732,1.646 5.732,3.828Zm-3.174,9.961l0,-6.514c-0.761,0.242 -1.626,0.381 -2.558,0.381c-0.937,0 -1.801,-0.139 -2.563,-0.381l0,6.514c0.198,0.246 1.107,0.742 2.563,0.742c1.455,0 2.364,-0.496 2.558,-0.742Zm-0.087,-9.961c-0.313,-0.262 -1.174,-0.655 -2.471,-0.655c-1.298,0 -2.162,0.393 -2.476,0.655c0.314,0.262 1.178,0.654 2.476,0.654c1.297,0 2.158,-0.392 2.471,-0.654Z" style="fill-rule:nonzero;"/><path d="M90.339,137.113l0,6.514c-0.194,0.246 -1.103,0.742 -2.558,0.742c-1.456,0 -2.365,-0.496 -2.563,-0.742l0,-6.514c0.762,0.242 1.626,0.381 2.563,0.381c0.932,0 1.797,-0.139 2.558,-0.381Z" style="fill:#f13c63;fill-rule:nonzero;"/><path d="M87.781,133.011c1.297,0 2.158,0.393 2.471,0.655c-0.313,0.262 -1.174,0.654 -2.471,0.654c-1.298,0 -2.162,-0.392 -2.476,-0.654c0.314,-0.262 1.178,-0.655 2.476,-0.655Z" style="fill:#c51162;fill-rule:nonzero;"/><path d="M78.613,148.669c0.877,0 1.587,0.71 1.587,1.586c0,0.877 -0.71,1.587 -1.587,1.587l-22.251,0l-2.697,3.769c0.666,0.147 1.317,0.428 1.904,0.849c1.42,1.019 2.178,2.626 2.178,4.252c0,1.052 -0.314,2.111 -0.972,3.031c-1.016,1.42 -2.622,2.178 -4.249,2.178c-1.055,0 -2.114,-0.314 -3.03,-0.972c-1.135,-0.813 -1.885,-2.015 -2.115,-3.392c-0.226,-1.376 0.095,-2.757 0.909,-3.891c0.055,-0.076 4.169,-5.824 4.169,-5.824l-8.021,0c0,0 -0.246,-0.008 -0.262,-0.012c-0.976,-0.051 -1.92,-0.381 -2.737,-0.964c-0.794,-0.567 -1.377,-1.321 -1.742,-2.158l-5.946,0c-0.877,0 -1.587,-0.71 -1.587,-1.586c0,-0.877 0.71,-1.587 1.587,-1.587l5.625,0c0.143,-0.683 0.424,-1.349 0.857,-1.948c1.674,-2.34 4.943,-2.884 7.279,-1.206c1.135,0.809 1.884,2.015 2.115,3.388c0.162,0.996 0.035,1.995 -0.353,2.9l5.454,0l13.21,-18.455c0.512,-0.71 1.503,-0.876 2.213,-0.364c0.715,0.511 0.877,1.499 0.369,2.213l-11.888,16.606l19.981,0Zm-24.417,13.225c0.655,-0.916 0.445,-2.197 -0.472,-2.852c-0.361,-0.258 -0.777,-0.381 -1.19,-0.381c-0.638,0 -1.265,0.294 -1.666,0.853c-0.317,0.445 -0.444,0.984 -0.353,1.524c0.087,0.539 0.381,1.011 0.825,1.328c0.917,0.659 2.198,0.445 2.856,-0.472Zm-8.056,-14.082c0.317,-0.444 0.444,-0.984 0.353,-1.523c-0.088,-0.54 -0.381,-1.012 -0.825,-1.329c-0.361,-0.258 -0.778,-0.381 -1.191,-0.381c-0.634,0 -1.265,0.297 -1.666,0.853c-0.654,0.916 -0.444,2.197 0.476,2.856c0.441,0.317 0.984,0.444 1.524,0.353c0.539,-0.087 1.011,-0.385 1.329,-0.829Z" style="fill-rule:nonzero;"/><path d="M83.353,76.125c-2.554,4.935 -7.493,8.446 -13.285,8.993l0,-2.364c5.268,-0.42 9.965,-2.9 13.285,-6.629Z" style="fill:#e58406;fill-rule:nonzero;"/><path d="M70.509,49.277l0,16.907c0,1.972 -4.34,3.229 -7.323,3.229c-1.54,0 -3.015,-0.234 -4.269,-0.67l0,-6.335c0,-1.746 -1.162,-3.253 -3.054,-4.265l0,-8.866c1.86,1.087 4.415,1.734 7.323,1.734c2.903,0 5.458,-0.647 7.323,-1.734Z" style="fill:#faa639;fill-rule:nonzero;"/><path d="M68.918,42.708c0.988,0.571 1.591,1.261 1.591,1.9c0,1.972 -4.34,3.229 -7.323,3.229c-2.984,0 -7.315,-1.253 -7.323,-3.221l0,-0.008c0,-0.317 0.15,-0.651 0.424,-0.976c0.274,-0.325 0.67,-0.639 1.162,-0.924l0,0.242c0,2.186 2.468,3.832 5.737,3.832c3.268,0 5.732,-1.646 5.732,-3.832l0,-0.242Z" style="fill:#e58406;fill-rule:nonzero;"/><path d="M65.744,36.353l0,6.51c-0.194,0.246 -1.103,0.745 -2.558,0.745c-1.456,0 -2.365,-0.499 -2.563,-0.745l0,-6.51c0.762,0.242 1.626,0.381 2.563,0.381c0.932,0 1.797,-0.139 2.558,-0.381Z" style="fill:#f2f2f2;fill-rule:nonzero;"/><path d="M63.186,32.247c1.297,0 2.158,0.397 2.471,0.655c-0.313,0.261 -1.174,0.658 -2.471,0.658c-1.298,0 -2.162,-0.397 -2.476,-0.658c0.314,-0.258 1.178,-0.655 2.476,-0.655Z" style="fill:#f2f2f2;fill-rule:nonzero;"/><path d="M63.094,109.198c0.718,0.503 0.889,1.495 0.385,2.209c-0.309,0.441 -0.801,0.675 -1.301,0.675c-0.313,0 -0.635,-0.096 -0.912,-0.29c-1.155,-0.817 -2.154,-1.801 -2.972,-2.908c-1.36,-1.848 -2.225,-4.042 -2.479,-6.351l-3.221,0l0,1.389c2.067,1.174 3.895,2.951 5.411,5.169c2.967,4.335 4.736,10.369 4.736,16.934c0,6.76 -7.124,12.262 -15.883,12.262c-8.759,0 -15.88,-5.502 -15.88,-12.262c0,-9.925 4.038,-18.628 10.143,-22.103l0,-7.426c0,-2.182 2.468,-3.829 5.737,-3.829c2.412,0 4.383,0.897 5.252,2.242l8.549,0c0.876,0 1.586,0.71 1.586,1.587l0,4.45c0,0.877 -0.71,1.587 -1.586,1.587l-1.643,0c0.385,2.666 1.849,5.09 4.078,6.665Zm-4.022,-9.838l0,-1.278l-6.478,0l0,1.278l6.478,0Zm0.496,26.665c0,-7.87 -2.868,-15.014 -7.184,-18.426c-0.655,1.634 -2.809,2.773 -5.526,2.773c-2.714,0 -4.872,-1.139 -5.526,-2.773c-4.316,3.408 -7.18,10.556 -7.18,18.426c0,5.011 5.7,9.089 12.706,9.089c7.009,0 12.71,-4.078 12.71,-9.089Zm-10.148,-19.568l0,-6.514c-0.765,0.242 -1.63,0.381 -2.562,0.381c-0.933,0 -1.797,-0.139 -2.563,-0.381l0,6.514c0.198,0.245 1.107,0.741 2.563,0.741c1.456,0 2.364,-0.496 2.562,-0.741Zm-0.091,-9.961c-0.309,-0.262 -1.174,-0.655 -2.471,-0.655c-1.298,0 -2.162,0.393 -2.472,0.655c0.31,0.261 1.174,0.654 2.472,0.654c1.297,0 2.162,-0.393 2.471,-0.654Z" style="fill-rule:nonzero;"/><rect x="52.594" y="98.082" width="6.478" height="1.277" style="fill:#f2f2f2;"/><path d="M58.294,108.884l-0.289,0.207c-1.516,-2.218 -3.344,-3.995 -5.411,-5.169l0,-1.389l3.221,0c0.254,2.309 1.119,4.503 2.479,6.351Z" style="fill:#fde2bf;fill-rule:nonzero;"/><path d="M52.384,107.599c4.316,3.412 7.184,10.556 7.184,18.426c0,5.011 -5.701,9.089 -12.71,9.089c-7.006,0 -12.706,-4.078 -12.706,-9.089c0,-7.87 2.864,-15.018 7.18,-18.426c0.654,1.634 2.812,2.773 5.526,2.773c2.717,0 4.871,-1.139 5.526,-2.773Z" style="fill:#faa639;fill-rule:nonzero;"/><path d="M55.744,66.736l0,13.59c0,0.964 -2.321,2.416 -5.812,2.416c-0.885,0 -1.737,-0.099 -2.527,-0.281l0,-13.512c0,-0.412 -0.067,-0.813 -0.19,-1.194c0.849,0.155 1.761,0.238 2.717,0.238c2.253,0 4.264,-0.464 5.812,-1.257Z" style="fill:#f13c63;fill-rule:nonzero;"/><path d="M49.932,59.996c3.491,0 5.812,1.452 5.812,2.412c0,0.96 -2.321,2.412 -5.812,2.412c-3.495,0 -5.816,-1.452 -5.816,-2.412c0,-0.96 2.321,-2.412 5.816,-2.412Z" style="fill:#c51162;fill-rule:nonzero;"/><path d="M53.724,159.042c0.917,0.655 1.127,1.936 0.472,2.852c-0.658,0.917 -1.939,1.131 -2.856,0.472c-0.444,-0.317 -0.738,-0.789 -0.825,-1.328c-0.091,-0.54 0.036,-1.079 0.353,-1.524c0.401,-0.559 1.028,-0.853 1.666,-0.853c0.413,0 0.829,0.123 1.19,0.381Z" style="fill:#fde2bf;fill-rule:nonzero;"/><path d="M52.689,49.194l0,7.874c-0.722,-0.135 -1.484,-0.214 -2.281,-0.238l0,-7.636l2.281,0Z" style="fill:#fde2bf;fill-rule:nonzero;"/><path d="M49.42,99.943l0,6.514c-0.198,0.245 -1.106,0.741 -2.562,0.741c-1.456,0 -2.365,-0.496 -2.563,-0.741l0,-6.514c0.766,0.242 1.63,0.381 2.563,0.381c0.932,0 1.797,-0.139 2.562,-0.381Z" style="fill:#f2f2f2;fill-rule:nonzero;"/><path d="M46.858,95.841c1.297,0 2.162,0.393 2.471,0.655c-0.309,0.261 -1.174,0.654 -2.471,0.654c-1.298,0 -2.162,-0.393 -2.472,-0.654c0.31,-0.262 1.174,-0.655 2.472,-0.655Z" style="fill:#f2f2f2;fill-rule:nonzero;"/><path d="M47.235,49.277l0,7.783c-3.725,0.679 -6.292,2.753 -6.292,5.348c0,0.412 0.067,0.809 0.19,1.194c-0.849,-0.159 -1.761,-0.242 -2.713,-0.242c-2.265,0 -4.284,0.472 -5.831,1.269l0,-15.348c1.864,1.083 4.419,1.73 7.323,1.73c2.903,0 5.458,-0.647 7.323,-1.734Z" style="fill:#f13c63;fill-rule:nonzero;"/><path d="M47.235,44.608l0,0.008c-0.008,1.968 -4.34,3.221 -7.323,3.221c-2.972,0 -7.28,-1.246 -7.323,-3.197l0,-0.032c0,-0.321 0.15,-0.655 0.424,-0.976c0.274,-0.325 0.67,-0.639 1.162,-0.924l0,0.242c0,2.186 2.468,3.832 5.737,3.832c3.268,0 5.736,-1.646 5.736,-3.832l0,-0.242c0.984,0.571 1.587,1.261 1.587,1.9Z" style="fill:#c51162;fill-rule:nonzero;"/><path d="M46.493,146.289c0.091,0.539 -0.036,1.079 -0.353,1.523c-0.318,0.444 -0.79,0.742 -1.329,0.829c-0.54,0.091 -1.083,-0.036 -1.524,-0.353c-0.92,-0.659 -1.13,-1.94 -0.476,-2.856c0.401,-0.556 1.032,-0.853 1.666,-0.853c0.413,0 0.83,0.123 1.191,0.381c0.444,0.317 0.737,0.789 0.825,1.329Z" style="fill:#fde2bf;fill-rule:nonzero;"/><path d="M44.232,73.273l0,13.595c0,0.96 -2.317,2.412 -5.812,2.412c-3.495,0 -5.812,-1.452 -5.812,-2.412l0,-13.595c1.544,0.793 3.555,1.262 5.812,1.262c2.257,0 4.268,-0.469 5.812,-1.262Z" style="fill:#f2f2f2;fill-rule:nonzero;"/><path d="M38.42,66.533c3.495,0 5.812,1.452 5.812,2.416c0,0.96 -2.317,2.412 -5.812,2.412c-3.495,0 -5.812,-1.452 -5.812,-2.412c0,-0.964 2.317,-2.416 5.812,-2.416Z" style="fill:#f2f2f2;fill-rule:nonzero;"/><path d="M42.474,36.353l0,6.51c-0.198,0.246 -1.107,0.745 -2.562,0.745c-1.456,0 -2.365,-0.499 -2.563,-0.745l0,-6.51c0.766,0.242 1.63,0.381 2.563,0.381c0.932,0 1.797,-0.139 2.562,-0.381Z" style="fill:#f2f2f2;fill-rule:nonzero;"/><path d="M39.912,32.247c1.297,0 2.162,0.397 2.471,0.655c-0.309,0.261 -1.174,0.658 -2.471,0.658c-1.298,0 -2.162,-0.397 -2.472,-0.658c0.31,-0.258 1.174,-0.655 2.472,-0.655Z" style="fill:#f2f2f2;fill-rule:nonzero;"/></g></svg>