<?xml version="1.0" encoding="UTF-8"?>
<svg clip-rule="evenodd" fill-rule="evenodd" stroke-linejoin="round" stroke-miterlimit="1.414" version="1.1" viewBox="0 0 240 190" xmlns="http://www.w3.org/2000/svg" xmlns:cc="http://creativecommons.org/ns#" xmlns:dc="http://purl.org/dc/elements/1.1/" xmlns:rdf="http://www.w3.org/1999/02/22-rdf-syntax-ns#">
<metadata>
<rdf:RDF>
<cc:Work rdf:about="">
<dc:format>image/svg+xml</dc:format>
<dc:type rdf:resource="http://purl.org/dc/dcmitype/StillImage"/>
</cc:Work>
</rdf:RDF>
</metadata>
<path d="M0 0h240v190H0z" fill="none"/>
<clipPath>
<path d="M0 0h240v190H0z"/>
</clipPath>
<g transform="matrix(.41674 0 0 .41674 19.91 -5.0895)">
<path d="m480.09 71.2v344.48c0 2.21-1.79 4-4 4h-15.95c-0.98 6.21-2.21 12.42-3.72 18.63-0.43 1.79-2.04 3.05-3.88 3.05h-11.37c-0.99 6.31-2.23 12.61-3.76 18.91-0.43 1.79-2.04 3.06-3.88 3.06h-48c-1.23 0-2.39-0.57-3.15-1.53-0.76-0.97-1.03-2.22-0.74-3.42 3.12-12.83 4.98-25.75 5.95-38.7h-383.34c-2.21 0-4-1.79-4-4v-344.48c0-2.21 1.79-4 4-4h120.57c1.05-2.35 2.58-4.49 4.55-6.23 3.35-2.98 7.67-4.63 12.17-4.63h59.96v-18.83c0-2.2 1.79-4 4-4s4 1.8 4 4v18.83h13.33v-5.99c0-2.21 1.8-4 4-4 2.21 0 4 1.79 4 4v5.99h27.34v-22.26c0-5.78 5.89-10.32 14.23-11.42v-1.65c0-2.2 1.79-4 4-4 2.2 0 4 1.8 4 4v1.65c8.33 1.1 14.22 5.64 14.22 11.42v22.26h6.71v-22.26c0-5.78 5.89-10.32 14.23-11.42v-1.65c0-2.2 1.79-4 4-4s4 1.8 4 4v1.65c8.33 1.1 14.23 5.64 14.23 11.42v22.26h16.19c7.06 0 13.06 4.55 15.27 10.86h106.84c2.21 0 4 1.79 4 4zm-8 340.48v-19.14h-9.13c-0.35 6.38-0.91 12.76-1.7 19.14zm0-27.14v-309.34h-101.92v15.31h12.45c2.21 0 4 1.8 4 4v48.47c0 2.21-1.79 4-4 4h-12.45v103.54c0 10.94-8.9 19.83-19.83 19.83h-210.98c-10.94 0-19.83-8.89-19.83-19.83v-58.84c0-2.2 1.79-4 4-4h29.33v-14h-29.33c-2.21 0-4-1.79-4-4v-33.72c0-20.26 1.19-40.69 3.51-60.76h-114.79v309.34h379.97c-0.78-24.47-3.75-48.88-6.66-72.89-5.95-48.91-12.09-99.49 0.08-149.58 0.44-1.79 2.04-3.06 3.89-3.06h11.38c1.01-6.43 2.25-12.78 3.74-18.9 0.44-1.8 2.04-3.06 3.89-3.06h48c1.22 0 2.38 0.56 3.14 1.53 0.76 0.96 1.03 2.22 0.74 3.42-11.82 48.68-5.77 98.52 0.09 146.72 3.82 31.45 7.71 63.58 6.78 95.82zm-22.72 48.82c10.85-47.71 4.93-96.48-0.8-143.67-5.75-47.3-11.69-96.17-1.06-144.64h-39.8c-1.04 4.56-1.95 9.23-2.72 13.96h28.54c1.22 0 2.38 0.57 3.14 1.53 0.76 0.97 1.03 2.23 0.74 3.42-11.82 48.68-5.77 98.52 0.09 146.73 4.88 40.16 9.88 81.45 4.78 122.67zm-19.01 21.97c10.85-47.71 4.93-96.48-0.8-143.68-5.75-47.3-11.69-96.16-1.06-144.64h-39.81c-10.85 47.71-4.93 96.48 0.81 143.68 5.74 47.3 11.68 96.17 1.06 144.64zm-42.29-43.65c0.3-6.38 0.39-12.76 0.32-19.14h-380.14v19.14zm-9.45-272.7v-40.47h-8.45v40.47zm-16.45 111.54v-153.99c0-4.51-3.67-8.18-8.18-8.18h-171.46v41.66c0 2.21-1.79 4-4 4h-16.5c-2.21 0-4-1.79-4-4v-41.66h-16.49c-2.54 0-4.97 0.92-6.85 2.6-1.9 1.68-3.1 3.98-3.4 6.49-2.5 20.62-3.76 41.66-3.76 62.52v5.72h63.15l5.63-15.68c2.22-6.17 8.11-10.32 14.68-10.32h54.52c4.04 0 7.7 1.64 10.36 4.3s4.3 6.32 4.3 10.36v61.34c0 2.21-1.79 4-4 4h-148.64v30.84c0 6.52 5.3 11.83 11.83 11.83h210.98c6.52 0 11.83-5.31 11.83-11.83zm0-167.92v-10.07c0-4.51-3.67-8.19-8.19-8.19h-16.19v2.45c0 6.66-7.84 11.69-18.23 11.69s-18.23-5.03-18.23-11.69v-2.45h-6.71v2.45c0 6.66-7.83 11.69-18.22 11.69-10.4 0-18.23-5.03-18.23-11.69v-2.45h-27.34v6.67c0 2.21-1.79 4-4 4-2.2 0-4-1.79-4-4v-6.67h-13.33v6.67c0 2.21-1.79 4-4 4s-4-1.79-4-4v-6.67h-18.97v16.01h171.46c2.98 0 5.77 0.83 8.18 2.25zm-32.38-15.81v-22.92c-2.88 1.21-6.38 1.9-10.23 1.9s-7.35-0.69-10.23-1.9v22.92c0 0.91 3.63 3.69 10.23 3.69s10.23-2.78 10.23-3.69zm0-32.71c0-0.71-2.19-2.53-6.23-3.31v1.58c0 2.21-1.79 4-4 4s-4-1.79-4-4v-1.58c-4.05 0.78-6.23 2.6-6.23 3.31 0 0.92 3.63 3.69 10.23 3.69s10.23-2.77 10.23-3.69zm-43.17 32.71v-22.92c-2.88 1.21-6.37 1.9-10.22 1.9-3.86 0-7.35-0.69-10.23-1.9v22.92c0 0.91 3.62 3.69 10.23 3.69 6.6 0 10.22-2.78 10.22-3.69zm0-32.71c0-0.71-2.18-2.53-6.22-3.31v1.58c0 2.21-1.8 4-4 4-2.21 0-4-1.79-4-4v-1.58c-4.05 0.78-6.23 2.6-6.23 3.31 0 0.92 3.62 3.69 10.23 3.69 6.6 0 10.22-2.77 10.22-3.69zm-14.45 177.6v-16h-94.31v16zm0-24v-33.34c0-3.67-2.99-6.66-6.66-6.66h-54.52c-3.2 0-6.07 2.02-7.15 5.02l-6.58 18.33c-0.57 1.59-2.07 2.65-3.76 2.65h-32.64v14zm-97.64-61.67v-32.33h-8.5v32.33zm0-40.33v-21.34h-8.5v21.34zm-4.67 126v-16h-9v3.33c0 2.21-1.79 4-4 4s-4-1.79-4-4v-3.33h-9v16zm-11.83-131.33v-16.01h-16.49c-2.54 0-4.97 0.93-6.85 2.6-1.9 1.69-3.1 3.99-3.4 6.5-0.44 3.63-0.83 7.28-1.19 10.94 3.23-2.59 7.25-4.03 11.44-4.03zm-22.17 131.33v-16h-8.33v16z"/>
<path d="m472.09 392.54v19.14h-10.83c0.79-6.38 1.35-12.76 1.7-19.14z" fill="#fcd29b"/>
<path d="m472.09 75.2v309.34h-8.8c0.93-32.24-2.96-64.37-6.78-95.82-5.86-48.2-11.91-98.04-0.09-146.72 0.29-1.2 0.02-2.46-0.74-3.42-0.76-0.97-1.92-1.53-3.14-1.53h-3.33v-2.34c10.39 0 18.22-5.03 18.22-11.69v-32.7c0-5.82-5.97-10.39-14.39-11.46-0.48-1.67-2.01-2.9-3.83-2.9v-0.76z" fill="#fde2bf"/>
<path d="m467.43 90.32v32.7c0 6.66-7.83 11.69-18.22 11.69-10.4 0-18.23-5.03-18.23-11.69v-32.7c0-5.82 5.97-10.39 14.4-11.46 0.48-1.67 2-2.9 3.83-2.9 1.82 0 3.35 1.23 3.83 2.9 8.42 1.07 14.39 5.64 14.39 11.46zm-8 32.7v-22.92c-2.88 1.21-6.37 1.91-10.22 1.91s-7.35-0.7-10.23-1.91v22.92c0 0.92 3.63 3.69 10.23 3.69s10.22-2.77 10.22-3.69zm0-32.7c0-0.72-2.18-2.53-6.22-3.32v0.65c0 2.21-1.79 4-4 4s-4-1.79-4-4v-0.65c-4.05 0.79-6.23 2.6-6.23 3.32 0 0.91 3.63 3.69 10.23 3.69s10.22-2.78 10.22-3.69z"/>
<path d="m459.43 100.1v22.92c0 0.92-3.62 3.69-10.22 3.69s-10.23-2.77-10.23-3.69v-22.92c2.88 1.21 6.38 1.91 10.23 1.91s7.34-0.7 10.22-1.91z" fill="#c51162"/>
<path d="m453.21 87c4.04 0.79 6.22 2.6 6.22 3.32 0 0.91-3.62 3.69-10.22 3.69s-10.23-2.78-10.23-3.69c0-0.72 2.18-2.53 6.23-3.32v0.65c0 2.21 1.79 4 4 4s4-1.79 4-4z" fill="#c51162"/>
<path d="m448.57 289.69c5.73 47.19 11.65 95.96 0.8 143.67h-7.09c5.1-41.22 0.1-82.51-4.78-122.67-5.86-48.21-11.91-98.05-0.09-146.73 0.29-1.19 0.02-2.45-0.74-3.42-0.76-0.96-1.92-1.53-3.14-1.53h-28.54c0.77-4.73 1.68-9.4 2.72-13.96h39.8c-10.63 48.47-4.69 97.34 1.06 144.64z" fill="#faa639"/>
<path d="m449.21 134.71v2.34h-40.51v-2.34c10.39 0 18.23-5.03 18.23-11.69v-32.7c0-5.82-5.97-10.39-14.4-11.46-0.48-1.67-2-2.9-3.83-2.9v-0.76h40.51v0.76c-1.83 0-3.35 1.23-3.83 2.9-8.43 1.07-14.4 5.64-14.4 11.46v32.7c0 6.66 7.83 11.69 18.23 11.69z" fill="#fde2bf"/>
<path d="m429.56 311.65c5.73 47.2 11.65 95.97 0.8 143.68h-39.8c10.62-48.47 4.68-97.34-1.06-144.64-5.74-47.2-11.66-95.97-0.81-143.68h39.81c-10.63 48.48-4.69 97.34 1.06 144.64z" fill="#c51162"/>
<path d="m426.93 90.32v32.7c0 6.66-7.84 11.69-18.23 11.69s-18.23-5.03-18.23-11.69v-32.7c0-5.82 5.97-10.39 14.4-11.46 0.48-1.67 2-2.9 3.83-2.9s3.35 1.23 3.83 2.9c8.43 1.07 14.4 5.64 14.4 11.46zm-8 32.7v-22.92c-2.88 1.21-6.38 1.91-10.23 1.91s-7.35-0.7-10.23-1.91v22.92c0 0.92 3.63 3.69 10.23 3.69s10.23-2.77 10.23-3.69zm0-32.7c0-0.72-2.18-2.53-6.23-3.32v0.65c0 2.21-1.79 4-4 4s-4-1.79-4-4v-0.65c-4.04 0.79-6.23 2.6-6.23 3.32 0 0.91 3.63 3.69 10.23 3.69s10.23-2.78 10.23-3.69z"/>
<path d="m418.93 100.1v22.92c0 0.92-3.63 3.69-10.23 3.69s-10.23-2.77-10.23-3.69v-22.92c2.88 1.21 6.38 1.91 10.23 1.91s7.35-0.7 10.23-1.91z" fill="#faa639"/>
<path d="m412.7 87c4.05 0.79 6.23 2.6 6.23 3.32 0 0.91-3.63 3.69-10.23 3.69s-10.23-2.78-10.23-3.69c0-0.72 2.19-2.53 6.23-3.32v0.65c0 2.21 1.79 4 4 4s4-1.79 4-4z" fill="#faa639"/>
<path d="m408.7 134.71v2.34h-4.16c-1.85 0-3.45 1.26-3.89 3.06-1.49 6.12-2.73 12.47-3.74 18.9h-11.38c-1.85 0-3.45 1.27-3.89 3.06-12.17 50.09-6.03 100.67-0.08 149.58 2.91 24.01 5.88 48.42 6.66 72.89h-379.97v-309.34h114.79c-2.32 20.07-3.51 40.5-3.51 60.76v33.72c0 2.21 1.79 4 4 4h29.33v14h-29.33c-2.21 0-4 1.8-4 4v58.84c0 10.94 8.89 19.83 19.83 19.83h210.98c10.93 0 19.83-8.89 19.83-19.83v-103.54h12.45c2.21 0 4-1.79 4-4v-48.47c0-2.2-1.79-4-4-4h-12.45v-15.31h38.53v0.76c-1.83 0-3.35 1.23-3.83 2.9-8.43 1.07-14.4 5.64-14.4 11.46v32.7c0 6.66 7.84 11.69 18.23 11.69zm-50.17 237.97v-91c0-2.21-1.79-4-4-4h-77c-2.21 0-4 1.79-4 4v91c0 2.21 1.79 4 4 4h77c2.21 0 4-1.79 4-4zm-100.67-37.04c1.55-1.58 1.53-4.11-0.04-5.66l-3.45-3.41v-0.01l-43.96-43.72h-0.01v-0.01l-3.45-3.41c-1.57-1.55-4.1-1.54-5.66 0.04-1.55 1.57-1.53 4.1 0.04 5.65l0.59 0.59-1.97 1.99-0.62-0.61c-1.57-1.56-4.1-1.54-5.66 0.03-1.55 1.57-1.53 4.1 0.04 5.66l0.6 0.59-1.98 1.98-0.62-0.61c-1.57-1.55-4.1-1.54-5.65 0.03-1.56 1.58-1.54 4.11 0.03 5.66l0.6 0.6-1.97 1.98-0.63-0.61c-1.57-1.56-4.1-1.54-5.65 0.03-1.56 1.57-1.54 4.1 0.03 5.65l0.6 0.6-1.97 1.99-0.63-0.62c-1.57-1.55-4.1-1.54-5.65 0.03-1.56 1.57-1.54 4.11 0.03 5.66l0.61 0.6-1.98 1.98-0.62-0.62c-1.58-1.55-4.11-1.53-5.66 0.04s-1.54 4.1 0.03 5.65l3.46 3.43 43.95 43.71c0.01 0 0.01 0.01 0.01 0.01l3.45 3.41c0.78 0.77 1.8 1.16 2.82 1.16 1.03 0 2.06-0.4 2.84-1.19 1.55-1.57 1.54-4.11-0.03-5.66l-0.6-0.59 1.98-1.98 0.61 0.61c0.78 0.77 1.8 1.15 2.81 1.15 1.04 0 2.07-0.4 2.85-1.19 1.55-1.57 1.54-4.1-0.03-5.65l-0.6-0.6 1.97-1.98 0.62 0.61c0.78 0.77 1.8 1.16 2.81 1.16 1.03 0 2.07-0.4 2.85-1.19 1.55-1.57 1.54-4.11-0.04-5.66l-0.6-0.59 1.98-1.99 0.62 0.62c0.78 0.77 1.8 1.15 2.81 1.15 1.03 0 2.07-0.39 2.85-1.19 1.55-1.57 1.54-4.1-0.04-5.65l-0.6-0.6 1.97-1.99 0.63 0.62c0.78 0.77 1.8 1.16 2.81 1.16 1.03 0 2.06-0.4 2.85-1.19 1.55-1.57 1.53-4.1-0.04-5.66l-0.6-0.6 1.97-1.98 0.63 0.62c0.78 0.77 1.8 1.15 2.81 1.15 1.03 0 2.06-0.39 2.85-1.18zm-96.35 1.04c0-2.21-1.79-4-4-4h-46.2l27.49-38.4c1.29-1.8 0.87-4.3-0.92-5.58-1.8-1.29-4.3-0.88-5.58 0.92l-30.83 43.06h-11.08c0.4-1.18 0.62-2.44 0.62-3.75 0-6.48-5.27-11.75-11.75-11.75h-17.5c-6.48 0-11.75 5.27-11.75 11.75s5.27 11.75 11.75 11.75h33.98s-9.3 12.99-9.43 13.18c-4.01 5.6-2.71 13.42 2.89 17.44 2.15 1.53 4.66 2.34 7.25 2.34 0.69 0 1.38-0.06 2.07-0.18 3.29-0.54 6.18-2.34 8.12-5.05 1.54-2.15 2.34-4.68 2.34-7.27 0-0.68-0.06-1.36-0.17-2.05-0.55-3.29-2.34-6.18-5.06-8.12-1.27-0.91-2.68-1.55-4.15-1.94l5.98-8.35h51.93c2.21 0 4-1.79 4-4zm-46.98-41.08v-91.25c0-2.21-1.79-4-4-4h-90c-2.21 0-4 1.79-4 4v91.25c0 2.21 1.79 4 4 4h90c2.21 0 4-1.79 4-4zm-0.25-153.71c0-2.21-1.79-4-4-4h-5.48c-0.23-2.17-0.66-4.28-1.26-6.32l5.05-2.09c2.04-0.85 3.01-3.19 2.16-5.23s-3.19-3.01-5.23-2.16l-5.05 2.1c-1.03-1.87-2.22-3.63-3.55-5.28l3.88-3.88c1.57-1.56 1.57-4.1 0-5.66-1.56-1.56-4.09-1.56-5.65 0l-3.88 3.88c-1.68-1.34-3.46-2.55-5.36-3.59l2.09-5.06c0.85-2.04-0.12-4.38-2.17-5.23-2.04-0.84-4.38 0.13-5.22 2.17l-2.09 5.07c-2.02-0.59-4.1-1.01-6.24-1.24v-5.48c0-2.21-1.79-4-4-4s-4 1.79-4 4v5.48c-2.17 0.23-4.29 0.66-6.33 1.26l-2.1-5.05c-0.85-2.04-3.19-3.01-5.23-2.16s-3 3.19-2.16 5.23l2.11 5.06c-1.87 1.03-3.63 2.22-5.28 3.54l-3.88-3.88c-1.57-1.56-4.1-1.56-5.66 0s-1.56 4.1 0 5.66l3.88 3.88c-1.34 1.67-2.55 3.46-3.59 5.35l-5.06-2.09c-2.04-0.84-4.38 0.14-5.22 2.18s0.13 4.38 2.17 5.22l5.06 2.08c-0.59 2.02-1.01 4.1-1.24 6.24h-5.47c-2.21 0-4 1.79-4 4s1.79 4 4 4h5.47c0.23 2.17 0.66 4.28 1.26 6.33l-5.05 2.1c-2.04 0.85-3 3.19-2.16 5.23 0.64 1.54 2.13 2.46 3.7 2.46 0.51 0 1.03-0.1 1.53-0.31l5.06-2.1c1.03 1.87 2.22 3.63 3.54 5.28l-3.88 3.88c-1.56 1.57-1.56 4.1 0 5.66 0.78 0.78 1.8 1.17 2.83 1.17 1.02 0 2.05-0.39 2.83-1.17l3.88-3.88c1.67 1.34 3.46 2.55 5.35 3.59l-2.09 5.06c-0.84 2.05 0.13 4.39 2.17 5.23 0.5 0.2 1.02 0.3 1.53 0.3 1.57 0 3.06-0.93 3.69-2.47l2.1-5.07c2.01 0.59 4.1 1.01 6.24 1.24v5.47c0 2.21 1.79 4 4 4s4-1.79 4-4v-5.47c2.17-0.23 4.28-0.66 6.32-1.26l2.1 5.06c0.64 1.53 2.13 2.46 3.7 2.46 0.51 0 1.03-0.1 1.53-0.31 2.04-0.84 3.01-3.18 2.16-5.22l-2.1-5.07c1.86-1.03 3.63-2.22 5.28-3.54l3.88 3.88c0.78 0.78 1.8 1.17 2.83 1.17 1.02 0 2.04-0.39 2.82-1.17 1.57-1.56 1.57-4.09 0-5.66l-3.88-3.88c1.35-1.67 2.55-3.46 3.59-5.35l5.06 2.09c0.5 0.2 1.02 0.3 1.52 0.3 1.58 0 3.07-0.93 3.7-2.47 0.85-2.04-0.12-4.38-2.16-5.23l-5.07-2.09c0.59-2.01 1.01-4.1 1.25-6.24h5.47c2.21 0 4-1.79 4-4zm-61.7 221.1c0-0.2-0.02-0.4-0.05-0.6l-3.44-22.75c-0.41-5.05-6.23-8.8-13.88-8.8s-13.46 3.75-13.87 8.8l-3.45 22.75c-0.03 0.2-0.04 0.4-0.04 0.6 0 6.43 9 9.36 17.36 9.36 8.37 0 17.37-2.93 17.37-9.36z" fill="#fde2bf"/>
<path d="m388.39 392.54c0.07 6.38-0.02 12.76-0.32 19.14h-379.82v-19.14z" fill="#fcd29b"/>
<rect x="370.17" y="98.51" width="8.45" height="40.47" fill="#f2f2f2"/>
<path d="m362.17 96.53v153.99c0 6.52-5.31 11.83-11.83 11.83h-210.98c-6.53 0-11.83-5.31-11.83-11.83v-30.84h148.64c2.21 0 4-1.79 4-4v-61.34c0-4.04-1.64-7.7-4.3-10.36s-6.32-4.3-10.36-4.3h-54.52c-6.57 0-12.46 4.15-14.68 10.32l-5.63 15.68h-63.15v-5.72c0-20.86 1.26-41.9 3.76-62.52 0.3-2.51 1.5-4.81 3.4-6.49 1.88-1.68 4.31-2.6 6.85-2.6h16.49v41.66c0 2.21 1.79 4 4 4h16.5c2.21 0 4-1.79 4-4v-41.66h171.46c4.51 0 8.18 3.67 8.18 8.18zm-8.33 39.17v-12.04c0-17.82-14.5-32.32-32.31-32.32-17.82 0-32.31 14.5-32.31 32.32l-0.01 12.04c0 8.91 3.62 16.99 9.48 22.84 5.85 5.85 13.93 9.47 22.84 9.47 17.81 0 32.31-14.49 32.31-32.31zm-15.31 88.81v-39c0-2.2-1.79-4-4-4h-26c-2.21 0-4 1.8-4 4v39c0 2.21 1.79 4 4 4h26c2.21 0 4-1.79 4-4zm-68.47-108.81c0-8.28-6.73-15-15-15s-15 6.72-15 15c0 8.27 6.73 15 15 15s15-6.73 15-15zm-35 0c0-8.28-6.73-15-15-15s-15 6.72-15 15c0 8.27 6.73 15 15 15s15-6.73 15-15zm-53.27 33.81c0-6.35-5.16-11.51-11.51-11.51s-11.52 5.16-11.52 11.51c0 6.36 5.17 11.52 11.52 11.52s11.51-5.16 11.51-11.52z" fill="#e6e6e6"/>
<path d="m362.17 72.53v10.07c-2.41-1.42-5.2-2.25-8.18-2.25h-34.43v-1.87c10.39 0 18.23-5.03 18.23-11.69v-2.45h16.19c4.52 0 8.19 3.68 8.19 8.19z" fill="#f2f2f2"/>
<path d="m358.53 281.68v91c0 2.21-1.79 4-4 4h-77c-2.21 0-4-1.79-4-4v-91c0-2.21 1.79-4 4-4h77c2.21 0 4 1.79 4 4zm-8 87v-83h-69v83z"/>
<path d="m353.84 123.66v12.04c0 17.82-14.5 32.31-32.31 32.31-8.91 0-16.99-3.62-22.84-9.47-5.86-5.85-9.48-13.93-9.48-22.84l0.01-12.04c0-17.82 14.49-32.32 32.31-32.32 17.81 0 32.31 14.5 32.31 32.32zm-8 12.04c0-13.41-10.91-24.31-24.31-24.31-13.41 0-24.32 10.9-24.32 24.31s10.91 24.31 24.32 24.31c13.4 0 24.31-10.9 24.31-24.31zm-3.64-24.81c-4.29-6.92-11.95-11.55-20.67-11.55s-16.38 4.63-20.67 11.54c5.6-4.67 12.81-7.49 20.67-7.49 7.85 0 15.06 2.82 20.67 7.5z"/>
<path d="m350.53 285.68v83h-69v-83zm-9.82 70.5v-12.54c0-9.37-5.24-17.53-12.95-21.72 2.8-2.92 4.53-6.87 4.53-11.23v-12.27c0-1.5-0.83-2.87-2.16-3.55-1.33-0.69-2.93-0.58-4.15 0.28-5.95 4.22-13.95 4.22-19.91 0-1.22-0.86-2.82-0.97-4.15-0.28-1.33 0.68-2.16 2.05-2.16 3.55v12.27c0 4.36 1.73 8.31 4.53 11.23-7.7 4.19-12.95 12.35-12.95 21.72v12.54c0 2.21 1.79 4 4 4h41.37c2.21 0 4-1.79 4-4z" fill="#faa639"/>
<path d="m340.71 343.64v12.54c0 2.21-1.79 4-4 4h-41.37c-2.21 0-4-1.79-4-4v-12.54c0-9.37 5.25-17.53 12.95-21.72-2.8-2.92-4.53-6.87-4.53-11.23v-12.27c0-1.5 0.83-2.87 2.16-3.55 1.33-0.69 2.93-0.58 4.15 0.28 5.96 4.22 13.96 4.22 19.91 0 1.22-0.86 2.82-0.97 4.15-0.28 1.33 0.68 2.16 2.05 2.16 3.55v12.27c0 4.36-1.73 8.31-4.53 11.23 7.71 4.19 12.95 12.35 12.95 21.72zm-8 8.54v-8.54c0-9.2-7.48-16.69-16.68-16.69s-16.69 7.49-16.69 16.69v8.54zm-8.42-41.49v-5.76c-5.34 1.85-11.18 1.85-16.53 0v5.76c0 4.55 3.71 8.26 8.27 8.26s8.26-3.71 8.26-8.26z"/>
<path d="m321.53 111.39c13.4 0 24.31 10.9 24.31 24.31s-10.91 24.31-24.31 24.31c-13.41 0-24.32-10.9-24.32-24.31s10.91-24.31 24.32-24.31zm18.31 24.31c0-10.1-8.22-18.31-18.31-18.31-10.1 0-18.31 8.21-18.31 18.31s8.21 18.31 18.31 18.31c10.09 0 18.31-8.21 18.31-18.31z" fill="#f2f2f2"/>
<path d="m338.53 185.51v39c0 2.21-1.79 4-4 4h-26c-2.21 0-4-1.79-4-4v-39c0-2.2 1.79-4 4-4h26c2.21 0 4 1.8 4 4zm-8 35v-18h-18v18zm0-26v-5h-18v5z"/>
<path d="m321.53 117.39c10.09 0 18.31 8.21 18.31 18.31s-8.22 18.31-18.31 18.31c-10.1 0-18.31-8.21-18.31-18.31s8.21-18.31 18.31-18.31zm10.31 18.31c0-5.68-4.63-10.31-10.31-10.31-5.69 0-10.31 4.63-10.31 10.31 0 5.69 4.62 10.31 10.31 10.31 5.68 0 10.31-4.62 10.31-10.31z"/>
<path d="m321.53 99.34c8.72 0 16.38 4.63 20.67 11.55-5.61-4.68-12.82-7.5-20.67-7.5-7.86 0-15.07 2.82-20.67 7.49 4.29-6.91 11.95-11.54 20.67-11.54z" fill="#ccc"/>
<path d="m332.71 343.64v8.54h-33.37v-8.54c0-9.2 7.49-16.69 16.69-16.69s16.68 7.49 16.68 16.69z" fill="#c51162"/>
<rect x="312.53" y="202.51" width="18" height="18" fill="#999"/>
<rect x="312.53" y="189.51" width="18" height="5" fill="#ccc"/>
<path d="m329.79 43.87v22.92c0 0.91-3.63 3.69-10.23 3.69s-10.23-2.78-10.23-3.69v-22.92c2.88 1.21 6.38 1.9 10.23 1.9s7.35-0.69 10.23-1.9z" fill="#c51162"/>
<path d="m321.53 125.39c5.68 0 10.31 4.63 10.31 10.31 0 5.69-4.63 10.31-10.31 10.31-5.69 0-10.31-4.62-10.31-10.31 0-5.68 4.62-10.31 10.31-10.31z" fill="#ccc"/>
<path d="m323.56 30.77c4.04 0.78 6.23 2.6 6.23 3.31 0 0.92-3.63 3.69-10.23 3.69s-10.23-2.77-10.23-3.69c0-0.71 2.18-2.53 6.23-3.31v1.58c0 2.21 1.79 4 4 4s4-1.79 4-4z" fill="#c51162"/>
<path d="m324.29 304.93v5.76c0 4.55-3.7 8.26-8.26 8.26s-8.27-3.71-8.27-8.26v-5.76c5.35 1.85 11.19 1.85 16.53 0z" fill="#c51162"/>
<path d="m319.56 78.48v1.87h-43.16v-1.87c10.39 0 18.22-5.03 18.22-11.69v-2.45h6.71v2.45c0 6.66 7.84 11.69 18.23 11.69z" fill="#f2f2f2"/>
<path d="m286.62 43.87v22.92c0 0.91-3.62 3.69-10.22 3.69-6.61 0-10.23-2.78-10.23-3.69v-22.92c2.88 1.21 6.37 1.9 10.23 1.9 3.85 0 7.34-0.69 10.22-1.9z" fill="#fde2bf"/>
<path d="m280.4 30.77c4.04 0.78 6.22 2.6 6.22 3.31 0 0.92-3.62 3.69-10.22 3.69-6.61 0-10.23-2.77-10.23-3.69 0-0.71 2.18-2.53 6.23-3.31v1.58c0 2.21 1.79 4 4 4 2.2 0 4-1.79 4-4z" fill="#fde2bf"/>
<path d="m276.4 78.48v1.87h-93.87v-16.01h18.97v6.67c0 2.21 1.79 4 4 4s4-1.79 4-4v-6.67h13.33v6.67c0 2.21 1.8 4 4 4 2.21 0 4-1.79 4-4v-6.67h27.34v2.45c0 6.66 7.83 11.69 18.23 11.69z" fill="#f2f2f2"/>
<rect x="177.86" y="195.68" width="94.31" height="16" fill="#ccc"/>
<path d="m272.17 154.34v33.34h-111.31v-14h32.64c1.69 0 3.19-1.06 3.76-2.65l6.58-18.33c1.08-3 3.95-5.02 7.15-5.02h54.52c3.67 0 6.66 2.99 6.66 6.66z" fill="#fde2bf"/>
<path d="m255.06 100.7c8.27 0 15 6.72 15 15 0 8.27-6.73 15-15 15s-15-6.73-15-15c0-8.28 6.73-15 15-15zm7 15c0-3.86-3.14-7-7-7s-7 3.14-7 7 3.14 7 7 7 7-3.14 7-7z"/>
<path d="m257.82 329.98c1.57 1.55 1.59 4.08 0.04 5.66-0.79 0.79-1.82 1.18-2.85 1.18-1.01 0-2.03-0.38-2.81-1.15l-0.63-0.62-1.97 1.98 0.6 0.6c1.57 1.56 1.59 4.09 0.04 5.66-0.79 0.79-1.82 1.19-2.85 1.19-1.01 0-2.03-0.39-2.81-1.16l-0.63-0.62-1.97 1.99 0.6 0.6c1.58 1.55 1.59 4.08 0.04 5.65-0.78 0.8-1.82 1.19-2.85 1.19-1.01 0-2.03-0.38-2.81-1.15l-0.62-0.62-1.98 1.99 0.6 0.59c1.58 1.55 1.59 4.09 0.04 5.66-0.78 0.79-1.82 1.19-2.85 1.19-1.01 0-2.03-0.39-2.81-1.16l-0.62-0.61-1.97 1.98 0.6 0.6c1.57 1.55 1.58 4.08 0.03 5.65-0.78 0.79-1.81 1.19-2.85 1.19-1.01 0-2.03-0.38-2.81-1.15l-0.61-0.61-1.98 1.98 0.6 0.59c1.57 1.55 1.58 4.09 0.03 5.66-0.78 0.79-1.81 1.19-2.84 1.19-1.02 0-2.04-0.39-2.82-1.16l-3.45-3.41s0-0.01-0.01-0.01l-43.95-43.71-3.46-3.43c-1.57-1.55-1.58-4.08-0.03-5.65s4.08-1.59 5.66-0.04l0.62 0.62 1.98-1.98-0.61-0.6c-1.57-1.55-1.59-4.09-0.03-5.66 1.55-1.57 4.08-1.58 5.65-0.03l0.63 0.62 1.97-1.99-0.6-0.6c-1.57-1.55-1.59-4.08-0.03-5.65 1.55-1.57 4.08-1.59 5.65-0.03l0.63 0.61 1.97-1.98-0.6-0.6c-1.57-1.55-1.59-4.08-0.03-5.66 1.55-1.57 4.08-1.58 5.65-0.03l0.62 0.61 1.98-1.98-0.6-0.59c-1.57-1.56-1.59-4.09-0.04-5.66 1.56-1.57 4.09-1.59 5.66-0.03l0.62 0.61 1.97-1.99-0.59-0.59c-1.57-1.55-1.59-4.08-0.04-5.65 1.56-1.58 4.09-1.59 5.66-0.04l3.45 3.41v0.01h0.01l43.96 43.72v0.01zm-44.37 32.05 32.44-32.61-3.09-3.08c-0.02 0.02-0.02 0.03-0.04 0.05-1.79 1.79-4.69 1.79-6.48 0-1.8-1.79-1.8-4.7 0-6.49 0-0.01 0.01-0.01 0.02-0.02l-10.51-10.46c-1.79 1.79-4.7 1.79-6.48 0-1.79-1.79-1.79-4.67-0.02-6.47l-11.69-11.62-32.44 32.62 11.6 11.53 0.02-0.02c1.79-1.79 4.69-1.79 6.48 0s1.79 4.69 0 6.48v0.01l10.52 10.46c1.79-1.77 4.67-1.76 6.45 0.02s1.79 4.64 0.04 6.44z"/>
<path d="m245.89 329.42-32.44 32.61-3.18-3.16c1.75-1.8 1.74-4.66-0.04-6.44s-4.66-1.79-6.45-0.02l-10.52-10.46v-0.01c1.79-1.79 1.79-4.69 0-6.48s-4.69-1.79-6.48 0l-0.02 0.02-11.6-11.53 32.44-32.62 11.69 11.62c-1.77 1.8-1.77 4.68 0.02 6.47 1.78 1.79 4.69 1.79 6.48 0l10.51 10.46c-0.01 0.01-0.02 0.01-0.02 0.02-1.8 1.79-1.8 4.7 0 6.49 1.79 1.79 4.69 1.79 6.48 0 0.02-0.02 0.02-0.03 0.04-0.05zm-13.97 7.81c1.79-1.79 1.79-4.69 0-6.48-1.79-1.8-4.7-1.8-6.49 0-1.79 1.79-1.79 4.69 0 6.48s4.7 1.79 6.49 0zm-3.07-13.91c1.8-1.79 1.8-4.69 0-6.48-1.79-1.79-4.69-1.79-6.48 0s-1.79 4.69 0 6.48c1.79 1.8 4.69 1.8 6.48 0zm-7.77 24.75c1.79-1.79 1.79-4.69 0-6.48s-4.7-1.79-6.49 0-1.79 4.69 0 6.48 4.7 1.79 6.49 0zm-3.07-13.9c1.79-1.79 1.79-4.7 0-6.49s-4.69-1.79-6.48 0-1.79 4.7 0 6.49 4.69 1.79 6.48 0zm-3.06-13.91c1.79-1.79 1.79-4.69 0-6.49-1.79-1.79-4.7-1.79-6.49 0-1.79 1.8-1.79 4.7 0 6.49s4.7 1.79 6.49 0zm-3.07-13.91c1.79-1.79 1.79-4.69 0-6.48s-4.69-1.79-6.48 0-1.79 4.69 0 6.48 4.69 1.79 6.48 0zm-4.71 38.66c1.79-1.79 1.79-4.7 0-6.49s-4.69-1.79-6.49 0c-1.79 1.79-1.79 4.7 0 6.49 1.8 1.79 4.7 1.79 6.49 0zm-3.06-13.91c1.79-1.79 1.79-4.69 0-6.48-1.8-1.79-4.7-1.79-6.49 0s-1.79 4.69 0 6.48 4.69 1.79 6.49 0zm-3.07-13.9c1.79-1.79 1.79-4.7 0-6.49s-4.69-1.79-6.48 0-1.79 4.7 0 6.49 4.69 1.79 6.48 0zm-10.84 10.84c1.79-1.79 1.79-4.7 0-6.49s-4.7-1.79-6.49 0-1.79 4.7 0 6.49 4.7 1.79 6.49 0z" fill="#c51162"/>
<path d="m231.92 330.75c1.79 1.79 1.79 4.69 0 6.48s-4.7 1.79-6.49 0-1.79-4.69 0-6.48c1.79-1.8 4.7-1.8 6.49 0z"/>
<path d="m220.06 100.7c8.27 0 15 6.72 15 15 0 8.27-6.73 15-15 15s-15-6.73-15-15c0-8.28 6.73-15 15-15zm7 15c0-3.86-3.14-7-7-7s-7 3.14-7 7 3.14 7 7 7 7-3.14 7-7z"/>
<path d="m228.85 316.84c1.8 1.79 1.8 4.69 0 6.48-1.79 1.8-4.69 1.8-6.48 0-1.79-1.79-1.79-4.69 0-6.48s4.69-1.79 6.48 0z"/>
<path d="m221.08 341.59c1.79 1.79 1.79 4.69 0 6.48s-4.7 1.79-6.49 0-1.79-4.69 0-6.48 4.7-1.79 6.49 0z"/>
<path d="m218.01 327.68c1.79 1.79 1.79 4.7 0 6.49s-4.69 1.79-6.48 0-1.79-4.7 0-6.49 4.69-1.79 6.48 0z"/>
<path d="m214.95 313.77c1.79 1.8 1.79 4.7 0 6.49s-4.7 1.79-6.49 0-1.79-4.69 0-6.49c1.79-1.79 4.7-1.79 6.49 0z"/>
<circle cx="208.64" cy="303.11" r="4.582"/>
<path d="m207.17 338.52c1.79 1.79 1.79 4.7 0 6.49s-4.69 1.79-6.49 0c-1.79-1.79-1.79-4.7 0-6.49 1.8-1.79 4.7-1.79 6.49 0z"/>
<path d="m204.11 324.62c1.79 1.79 1.79 4.69 0 6.48-1.8 1.79-4.7 1.79-6.49 0s-1.79-4.69 0-6.48 4.69-1.79 6.49 0z"/>
<path d="m201.04 310.71c1.79 1.79 1.79 4.7 0 6.49s-4.69 1.79-6.48 0-1.79-4.7 0-6.49 4.69-1.79 6.48 0z"/>
<circle cx="186.96" cy="324.8" r="4.589"/>
<path d="m170.28 138c6.35 0 11.51 5.16 11.51 11.51 0 6.36-5.16 11.52-11.51 11.52s-11.52-5.16-11.52-11.52c0-6.35 5.17-11.51 11.52-11.51zm3.51 11.51c0-1.93-1.57-3.51-3.51-3.51s-3.52 1.58-3.52 3.51c0 1.94 1.58 3.52 3.52 3.52s3.51-1.58 3.51-3.52z"/>
<rect x="166.03" y="93.68" width="8.5" height="32.33" fill="#808080"/>
<rect x="166.03" y="64.34" width="8.5" height="21.34" fill="#b3b3b3"/>
<path d="m169.86 195.68v16h-26v-16h9v3.33c0 2.21 1.79 4 4 4s4-1.79 4-4v-3.33z" fill="#999"/>
<path d="m157.51 332.68c2.21 0 4 1.79 4 4s-1.79 4-4 4h-51.93l-5.98 8.35c1.47 0.39 2.88 1.03 4.15 1.94 2.72 1.94 4.51 4.83 5.06 8.12 0.11 0.69 0.17 1.37 0.17 2.05 0 2.59-0.8 5.12-2.34 7.27-1.94 2.71-4.83 4.51-8.12 5.05-0.69 0.12-1.38 0.18-2.07 0.18-2.59 0-5.1-0.81-7.25-2.34-5.6-4.02-6.9-11.84-2.89-17.44 0.13-0.19 9.43-13.18 9.43-13.18h-33.98c-6.48 0-11.75-5.27-11.75-11.75s5.27-11.75 11.75-11.75h17.5c6.48 0 11.75 5.27 11.75 11.75 0 1.31-0.22 2.57-0.62 3.75h11.08l30.83-43.06c1.28-1.8 3.78-2.21 5.58-0.92 1.79 1.28 2.21 3.78 0.92 5.58l-27.49 38.4zm-57.38 31.07c0.71-0.98 0.98-2.17 0.79-3.35-0.2-1.19-0.85-2.23-1.82-2.93-0.78-0.55-1.68-0.84-2.61-0.84-0.25 0-0.5 0.02-0.75 0.06-1.19 0.2-2.22 0.85-2.92 1.82-1.45 2.02-0.98 4.84 1.04 6.28 0.97 0.7 2.17 0.98 3.35 0.78 1.19-0.19 2.23-0.84 2.92-1.82zm-17.12-34.82c0-2.07-1.68-3.75-3.75-3.75h-17.5c-1.03 0-1.97 0.42-2.65 1.1s-1.1 1.62-1.1 2.65c0 2.07 1.69 3.75 3.75 3.75h17.5c2.07 0 3.75-1.68 3.75-3.75z"/>
<path d="m158.03 64.34v16.01h-16.49c-4.19 0-8.21 1.44-11.44 4.03 0.36-3.66 0.75-7.31 1.19-10.94 0.3-2.51 1.5-4.81 3.4-6.5 1.88-1.67 4.31-2.6 6.85-2.6z" fill="#f2f2f2"/>
<rect x="127.53" y="195.68" width="8.33" height="16" fill="#ccc"/>
<path d="m114.53 278.35v17.25c0 2.21-1.79 4-4 4h-90c-2.21 0-4-1.79-4-4v-91.25c0-2.21 1.79-4 4-4h90c2.21 0 4 1.79 4 4zm-8 13.25v-8.78l-79.06 8.78zm0-16.83v-50l-3.85 1.27c-0.42 0.14-0.84 0.2-1.26 0.2-1.68 0-3.24-1.06-3.79-2.74-0.7-2.1 0.44-4.36 2.54-5.06l6.36-2.1v-7.99h-66.02l1.08 0.81c1.76 1.33 2.12 3.84 0.79 5.6-0.79 1.05-1.98 1.6-3.2 1.6-0.84 0-1.68-0.26-2.4-0.8l-7.99-6.02c-0.45-0.33-0.8-0.74-1.06-1.19h-3.2v35.11l8.23-2.73c2.09-0.69 4.36 0.45 5.05 2.55 0.69 2.09-0.44 4.36-2.54 5.05l-9.49 3.14c-0.42 0.14-0.84 0.2-1.25 0.2v11.14l7.92 1.6c2.17 0.43 3.57 2.54 3.13 4.71-0.38 1.9-2.05 3.21-3.91 3.21-0.27 0-0.53-0.03-0.8-0.08l-6.34-1.28v12.91l46.63-5.18c-0.34-0.74-0.46-1.59-0.29-2.45 0.44-2.17 2.54-3.57 4.71-3.13l9.8 1.98c1.1 0.22 1.99 0.87 2.56 1.73z"/>
<path d="m110.28 137.89c2.21 0 4 1.79 4 4s-1.79 4-4 4h-5.47c-0.24 2.14-0.66 4.23-1.25 6.24l5.07 2.09c2.04 0.85 3.01 3.19 2.16 5.23-0.63 1.54-2.12 2.47-3.7 2.47-0.5 0-1.02-0.1-1.52-0.3l-5.06-2.09c-1.04 1.89-2.24 3.68-3.59 5.35l3.88 3.88c1.57 1.57 1.57 4.1 0 5.66-0.78 0.78-1.8 1.17-2.82 1.17-1.03 0-2.05-0.39-2.83-1.17l-3.88-3.88c-1.65 1.32-3.42 2.51-5.28 3.54l2.1 5.07c0.85 2.04-0.12 4.38-2.16 5.22-0.5 0.21-1.02 0.31-1.53 0.31-1.57 0-3.06-0.93-3.7-2.46l-2.1-5.06c-2.04 0.6-4.15 1.03-6.32 1.26v5.47c0 2.21-1.79 4-4 4s-4-1.79-4-4v-5.47c-2.14-0.23-4.23-0.65-6.24-1.24l-2.1 5.07c-0.63 1.54-2.12 2.47-3.69 2.47-0.51 0-1.03-0.1-1.53-0.3-2.04-0.84-3.01-3.18-2.17-5.23l2.09-5.06c-1.89-1.04-3.68-2.25-5.35-3.59l-3.88 3.88c-0.78 0.78-1.81 1.17-2.83 1.17-1.03 0-2.05-0.39-2.83-1.17-1.56-1.56-1.56-4.09 0-5.66l3.88-3.88c-1.32-1.65-2.51-3.41-3.54-5.28l-5.06 2.1c-0.5 0.21-1.02 0.31-1.53 0.31-1.57 0-3.06-0.92-3.7-2.46-0.84-2.04 0.12-4.38 2.16-5.23l5.05-2.1c-0.6-2.05-1.03-4.16-1.26-6.33h-5.47c-2.21 0-4-1.79-4-4s1.79-4 4-4h5.47c0.23-2.14 0.65-4.22 1.24-6.24l-5.06-2.08c-2.04-0.84-3.01-3.18-2.17-5.22s3.18-3.02 5.22-2.18l5.06 2.09c1.04-1.89 2.25-3.68 3.59-5.35l-3.88-3.88c-1.56-1.56-1.56-4.1 0-5.66s4.09-1.56 5.66 0l3.88 3.88c1.65-1.32 3.41-2.51 5.28-3.54l-2.11-5.06c-0.84-2.04 0.12-4.38 2.16-5.23s4.38 0.12 5.23 2.16l2.1 5.05c2.04-0.6 4.16-1.03 6.33-1.26v-5.48c0-2.21 1.79-4 4-4s4 1.79 4 4v5.48c2.14 0.23 4.22 0.65 6.24 1.24l2.09-5.07c0.84-2.04 3.18-3.01 5.22-2.17 2.05 0.85 3.02 3.19 2.17 5.23l-2.09 5.06c1.9 1.04 3.68 2.25 5.36 3.59l3.88-3.88c1.56-1.56 4.09-1.56 5.65 0 1.57 1.56 1.57 4.1 0 5.66l-3.88 3.88c1.33 1.65 2.52 3.41 3.55 5.28l5.05-2.1c2.04-0.85 4.38 0.12 5.23 2.16s-0.12 4.38-2.16 5.23l-5.05 2.09c0.6 2.04 1.03 4.15 1.26 6.32zm-41.97 32.75c15.84-0.01 28.72-12.9 28.72-28.74 0-15.86-12.9-28.75-28.75-28.75-15.86 0-28.75 12.89-28.75 28.75 0 15.84 12.88 28.73 28.72 28.74h0.03 0.03z"/>
<polygon points="106.53 291.6 27.47 291.6 106.53 282.82" fill="#faa639"/>
<path d="m106.53 224.77v50l-18.59 2.06c-0.57-0.86-1.46-1.51-2.56-1.73l-9.8-1.98c-2.17-0.44-4.27 0.96-4.71 3.13-0.17 0.86-0.05 1.71 0.29 2.45l-46.63 5.18v-12.91l6.34 1.28c0.27 0.05 0.53 0.08 0.8 0.08 1.86 0 3.53-1.31 3.91-3.21 0.44-2.17-0.96-4.28-3.13-4.71l-7.92-1.6v-11.14c0.41 0 0.83-0.06 1.25-0.2l9.49-3.14c2.1-0.69 3.23-2.96 2.54-5.05-0.69-2.1-2.96-3.24-5.05-2.55l-8.23 2.73v-35.11h3.2c0.26 0.45 0.61 0.86 1.06 1.19l7.99 6.02c0.72 0.54 1.56 0.8 2.4 0.8 1.22 0 2.41-0.55 3.2-1.6 1.33-1.76 0.97-4.27-0.79-5.6l-1.08-0.81h66.02v7.99l-6.36 2.1c-2.1 0.7-3.24 2.96-2.54 5.06 0.55 1.68 2.11 2.74 3.79 2.74 0.42 0 0.84-0.06 1.26-0.2zm-2.14 36.65c1.33-1.77 0.97-4.27-0.79-5.6l-5.28-3.97c-1.76-1.33-4.27-0.97-5.6 0.79-1.33 1.77-0.97 4.28 0.79 5.6l5.28 3.97c0.72 0.54 1.56 0.8 2.4 0.8 1.21 0 2.41-0.55 3.2-1.59zm-17.85-30.04c2.1-0.7 3.23-2.96 2.54-5.06s-2.96-3.23-5.05-2.54l-9.5 3.14c-2.09 0.69-3.23 2.96-2.54 5.05 0.56 1.68 2.12 2.75 3.8 2.75 0.42 0 0.84-0.07 1.26-0.21zm-1.01 15.85c1.33-1.76 0.97-4.27-0.79-5.6l-7.99-6.01c-1.77-1.33-4.27-0.98-5.6 0.79-1.33 1.76-0.98 4.27 0.79 5.6l7.99 6.01c0.72 0.54 1.57 0.81 2.4 0.81 1.22 0 2.42-0.55 3.2-1.6zm-21.57-16.23c1.32-1.77 0.97-4.28-0.79-5.6l-8-6.02c-1.76-1.32-4.27-0.97-5.6 0.8-1.33 1.76-0.97 4.27 0.79 5.6l7.99 6.01c0.18 0.13 0.37 0.25 0.56 0.35-0.17 0.03-0.34 0.06-0.52 0.12l-9.49 3.14c-2.1 0.69-3.24 2.95-2.54 5.05 0.55 1.68 2.12 2.75 3.79 2.75 0.42 0 0.84-0.07 1.26-0.21l9.49-3.14c2.1-0.69 3.24-2.95 2.55-5.05-0.34-1.03-1.07-1.83-1.96-2.29 0.95-0.18 1.84-0.68 2.47-1.51zm-1.91 43.47c0.44-2.17-0.96-4.28-3.13-4.72l-9.8-1.98c-2.17-0.43-4.28 0.97-4.71 3.13-0.44 2.17 0.96 4.28 3.12 4.72l9.81 1.98c0.26 0.05 0.53 0.08 0.79 0.08 1.87 0 3.54-1.32 3.92-3.21z" fill="#faa639"/>
<path d="m103.6 255.82c1.76 1.33 2.12 3.83 0.79 5.6-0.79 1.04-1.99 1.59-3.2 1.59-0.84 0-1.68-0.26-2.4-0.8l-5.28-3.97c-1.76-1.32-2.12-3.83-0.79-5.6 1.33-1.76 3.84-2.12 5.6-0.79z"/>
<path d="m100.92 360.4c0.19 1.18-0.08 2.37-0.79 3.35-0.69 0.98-1.73 1.63-2.92 1.82-1.18 0.2-2.38-0.08-3.35-0.78-2.02-1.44-2.49-4.26-1.04-6.28 0.7-0.97 1.73-1.62 2.92-1.82 0.25-0.04 0.5-0.06 0.75-0.06 0.93 0 1.83 0.29 2.61 0.84 0.97 0.7 1.62 1.74 1.82 2.93z" fill="#fde2bf"/>
<path d="m97.03 141.9c0 15.84-12.88 28.73-28.72 28.74h-0.03-0.03c-15.84-0.01-28.72-12.9-28.72-28.74 0-15.86 12.89-28.75 28.75-28.75 15.85 0 28.75 12.89 28.75 28.75zm-6.07 0c0-12.51-10.17-22.69-22.68-22.69s-22.69 10.18-22.69 22.69c0 12.5 10.18 22.68 22.69 22.68s22.68-10.18 22.68-22.68z" fill="#faa639"/>
<path d="m89.08 226.32c0.69 2.1-0.44 4.36-2.54 5.06l-9.49 3.13c-0.42 0.14-0.84 0.21-1.26 0.21-1.68 0-3.24-1.07-3.8-2.75-0.69-2.09 0.45-4.36 2.54-5.05l9.5-3.14c2.09-0.69 4.36 0.44 5.05 2.54z"/>
<path d="m84.74 241.63c1.76 1.33 2.12 3.84 0.79 5.6-0.78 1.05-1.98 1.6-3.2 1.6-0.83 0-1.68-0.27-2.4-0.81l-7.99-6.01c-1.77-1.33-2.12-3.84-0.79-5.6 1.33-1.77 3.83-2.12 5.6-0.79z"/>
<path d="m68.28 119.21c12.51 0 22.68 10.18 22.68 22.69 0 12.5-10.17 22.68-22.68 22.68s-22.69-10.18-22.69-22.68c0-12.51 10.18-22.69 22.69-22.69zm14.68 22.69c0-8.1-6.58-14.69-14.68-14.69s-14.69 6.59-14.69 14.69c0 8.09 6.59 14.68 14.69 14.68s14.68-6.59 14.68-14.68z"/>
<path d="m79.26 325.18c2.07 0 3.75 1.68 3.75 3.75s-1.68 3.75-3.75 3.75h-17.5c-2.06 0-3.75-1.68-3.75-3.75 0-1.03 0.42-1.97 1.1-2.65s1.62-1.1 2.65-1.1z" fill="#fde2bf"/>
<path d="m68.28 127.21c8.1 0 14.68 6.59 14.68 14.69 0 8.09-6.58 14.68-14.68 14.68s-14.69-6.59-14.69-14.68c0-8.1 6.59-14.69 14.69-14.69z" fill="#faa639"/>
<path d="m63.17 225.4c1.76 1.32 2.11 3.83 0.79 5.6-0.63 0.83-1.52 1.33-2.47 1.51 0.89 0.46 1.62 1.26 1.96 2.29 0.69 2.1-0.45 4.36-2.55 5.05l-9.49 3.14c-0.42 0.14-0.84 0.21-1.26 0.21-1.67 0-3.24-1.07-3.79-2.75-0.7-2.1 0.44-4.36 2.54-5.05l9.49-3.14c0.18-0.06 0.35-0.09 0.52-0.12-0.19-0.1-0.38-0.22-0.56-0.35l-7.99-6.01c-1.76-1.33-2.12-3.84-0.79-5.6 1.33-1.77 3.84-2.12 5.6-0.8z"/>
<path d="m58.92 269.75c2.17 0.44 3.57 2.55 3.13 4.72-0.38 1.89-2.05 3.21-3.92 3.21-0.26 0-0.53-0.03-0.79-0.08l-9.81-1.98c-2.16-0.44-3.56-2.55-3.12-4.72 0.43-2.16 2.54-3.56 4.71-3.13z"/>
<path d="m52.53 362.39c0.03 0.2 0.05 0.4 0.05 0.6 0 6.43-9 9.36-17.37 9.36-8.36 0-17.36-2.93-17.36-9.36 0-0.2 0.01-0.4 0.04-0.6l3.45-22.75c0.41-5.05 6.22-8.8 13.87-8.8s13.47 3.75 13.88 8.8zm-8.08 0.05-2.14-14.12c-2.06 0.79-4.47 1.24-7.1 1.24s-5.04-0.45-7.1-1.24l-2.13 14.12c1.17 0.78 4.49 1.91 9.23 1.91s8.06-1.13 9.24-1.91zm-3.68-22.24c-0.82-0.56-2.68-1.36-5.56-1.36-2.87 0-4.74 0.8-5.56 1.36 0.82 0.57 2.69 1.36 5.56 1.36 2.88 0 4.74-0.79 5.56-1.36z"/>
<path d="m42.31 348.32 2.14 14.12c-1.18 0.78-4.5 1.91-9.24 1.91s-8.06-1.13-9.23-1.91l2.13-14.12c2.06 0.79 4.47 1.24 7.1 1.24s5.04-0.45 7.1-1.24z" fill="#e6e6e6"/>
<path d="m35.21 338.84c2.88 0 4.74 0.8 5.56 1.36-0.82 0.57-2.68 1.36-5.56 1.36-2.87 0-4.74-0.79-5.56-1.36 0.82-0.56 2.69-1.36 5.56-1.36z" fill="#999"/>
</g>
</svg>
