<?xml version="1.0" encoding="UTF-8"?>
<svg width="875" height="875" version="1.1" viewBox="0 0 875.00001 875" xmlns="http://www.w3.org/2000/svg" xmlns:cc="http://creativecommons.org/ns#" xmlns:dc="http://purl.org/dc/elements/1.1/" xmlns:rdf="http://www.w3.org/1999/02/22-rdf-syntax-ns#">
<metadata>
<rdf:RDF>
<cc:Work rdf:about="">
<dc:format>image/svg+xml</dc:format>
<dc:type rdf:resource="http://purl.org/dc/dcmitype/StillImage"/>
<dc:title/>
</cc:Work>
</rdf:RDF>
</metadata>
<defs>
<style>.f {fill: #c71138;}</style>
</defs>
<g transform="matrix(3.6078 0 0 3.6078 140.73 1.109)">
<path class="f" transform="translate(-13.9,-7)" d="m147.2 106.8c22.8-20.1 32.3-33.9 31.1-41.3s-8.6-17.4-9.8-16.5a1.2 1.2 0 0 0 -0.3 0.9c-0.3 4.3 7 10.4 0.3 21.4-3.4 5.6-18.6 20-37.3 36.2s-26.8 26-31.8 45.7c-1.2 4.6-2.4 9.7-3.3 15.1a158.1 158.1 0 0 0 -3.4 -15.6c-5-19.7-14-30.2-31.8-45.7s-33.7-30.7-37.1-36.3c-6.7-11 0.6-17.1 0.3-21.4a1.2 1.2 0 0 0 -0.3 -0.9c-1.2-0.8-8.7 9.1-9.8 16.5s8.3 21.3 31.1 41.3c10.2 9 30.7 28.5 35 48.8 5.5 25.2 0.8 42.9-6.7 57.5-5 9.8-33.6 35.6-33.6 35.6s5.3 4.7 34.7-22.1c13.4-12.2 19.5-24.5 21.6-36 2 11.7 8 24.1 21.7 36.6 29.4 26.8 34.7 22.1 34.7 22.1s-28.6-25.8-33.6-35.6c-7.5-14.6-12.1-32.3-6.7-57.5 4.4-20.3 24.8-39.8 35-48.8z"/>
<circle class="f" cx="82.1" cy="88.3" r="13.7"/>
<path class="f" transform="translate(-13.9,-7)" d="m152.7 114.5c-5.3-10-45.7-68.8-50.4-79.3s-4.6-25-4.7-26.1a2.1 2.1 0 0 0 -2 -2.2c-0.8 0-1.8 1.5-1.8 2.4s0 15.6-4.7 26.1-45.1 69.4-50.3 79.4-12.1 30.5-2.6 49.9 16.6 26.7 24.2 32.6c0.7 0.5 4.2 0 3.2-1.6s-11.9-16.9-14.7-27.3c-1.6-5.8-7.4-16.8-1.6-37.3s24.5-49.4 31.4-60.9 15.5-21 16.8-29.4c0.1-0.4 0-0.5 0.3-0.6a0.3 0.3 0 0 1 0.3 0.3c0 8.5 10 17.9 16.8 29.4s26.1 41.7 31.5 60.9 0 31.5-1.6 37.3c-2.8 10.4-13.6 25.7-14.7 27.3s2.5 2.1 3.2 1.6c7.5-5.9 14.7-13.1 24.2-32.6s2.5-39.9-2.8-49.9z"/>
</g>
</svg>
